<svg width="45" height="45" viewBox="0 0 45 45" fill="none" xmlns="http://www.w3.org/2000/svg">
<rect x="0.360352" y="0.316406" width="44" height="44" rx="6" fill="#FFF1F1"/>
<path d="M28.3604 17.3157H28.0104C28.2386 16.8485 28.3582 16.3357 28.3604 15.8157C28.3634 15.119 28.1578 14.4374 27.7702 13.8585C27.3825 13.2797 26.8305 12.8301 26.1851 12.5676C25.5397 12.3052 24.8306 12.2419 24.149 12.3859C23.4673 12.5299 22.8444 12.8747 22.3604 13.3757C21.8763 12.8747 21.2534 12.5299 20.5717 12.3859C19.8901 12.2419 19.181 12.3052 18.5356 12.5676C17.8902 12.8301 17.3382 13.2797 16.9505 13.8585C16.5629 14.4374 16.3573 15.119 16.3604 15.8157C16.3625 16.3357 16.4821 16.8485 16.7104 17.3157H16.3604C15.5647 17.3157 14.8016 17.6318 14.239 18.1944C13.6764 18.757 13.3604 19.5201 13.3604 20.3157V22.3157C13.3604 22.5809 13.4657 22.8353 13.6532 23.0228C13.8408 23.2104 14.0951 23.3157 14.3604 23.3157H15.3604V29.3157C15.3604 30.1114 15.6764 30.8744 16.239 31.437C16.8016 31.9996 17.5647 32.3157 18.3604 32.3157H26.3604C27.156 32.3157 27.9191 31.9996 28.4817 31.437C29.0443 30.8744 29.3604 30.1114 29.3604 29.3157V23.3157H30.3604C30.6256 23.3157 30.8799 23.2104 31.0675 23.0228C31.255 22.8353 31.3604 22.5809 31.3604 22.3157V20.3157C31.3604 19.5201 31.0443 18.757 30.4817 18.1944C29.9191 17.6318 29.156 17.3157 28.3604 17.3157ZM21.3604 30.3157H18.3604C18.0951 30.3157 17.8408 30.2104 17.6532 30.0228C17.4657 29.8353 17.3604 29.5809 17.3604 29.3157V23.3157H21.3604V30.3157ZM21.3604 21.3157H15.3604V20.3157C15.3604 20.0505 15.4657 19.7961 15.6532 19.6086C15.8408 19.4211 16.0951 19.3157 16.3604 19.3157H21.3604V21.3157ZM21.3604 17.3157H19.8604C19.5637 17.3157 19.2737 17.2277 19.027 17.0629C18.7803 16.8981 18.5881 16.6638 18.4745 16.3897C18.361 16.1156 18.3313 15.814 18.3892 15.5231C18.4471 15.2321 18.5899 14.9648 18.7997 14.7551C19.0095 14.5453 19.2767 14.4024 19.5677 14.3445C19.8587 14.2867 20.1603 14.3164 20.4344 14.4299C20.7085 14.5434 20.9427 14.7357 21.1076 14.9824C21.2724 15.229 21.3604 15.519 21.3604 15.8157V17.3157ZM23.3604 15.8157C23.3604 15.519 23.4483 15.229 23.6131 14.9824C23.778 14.7357 24.0122 14.5434 24.2863 14.4299C24.5604 14.3164 24.862 14.2867 25.153 14.3445C25.444 14.4024 25.7112 14.5453 25.921 14.7551C26.1308 14.9648 26.2737 15.2321 26.3315 15.5231C26.3894 15.814 26.3597 16.1156 26.2462 16.3897C26.1326 16.6638 25.9404 16.8981 25.6937 17.0629C25.447 17.2277 25.157 17.3157 24.8604 17.3157H23.3604V15.8157ZM27.3604 29.3157C27.3604 29.5809 27.255 29.8353 27.0675 30.0228C26.8799 30.2104 26.6256 30.3157 26.3604 30.3157H23.3604V23.3157H27.3604V29.3157ZM29.3604 21.3157H23.3604V19.3157H28.3604C28.6256 19.3157 28.8799 19.4211 29.0675 19.6086C29.255 19.7961 29.3604 20.0505 29.3604 20.3157V21.3157Z" fill="#775C5C"/>
</svg>
