<svg width="45" height="45" viewBox="0 0 45 45" fill="none" xmlns="http://www.w3.org/2000/svg">
<rect x="0.360352" y="0.316406" width="44" height="44" rx="6" fill="#FFF1F1"/>
<path d="M31.3604 26.3164H17.3604C17.0951 26.3164 16.8408 26.211 16.6532 26.0235C16.4657 25.836 16.3604 25.5816 16.3604 25.3164C16.3604 25.0512 16.4657 24.7968 16.6532 24.6093C16.8408 24.4218 17.0951 24.3164 17.3604 24.3164H27.8004C28.469 24.3164 29.1185 24.0931 29.6457 23.6818C30.1729 23.2706 30.5476 22.695 30.7104 22.0464L32.3604 15.5564C32.3978 15.4088 32.4011 15.2546 32.3699 15.1056C32.3387 14.9565 32.2739 14.8166 32.1804 14.6964C32.0831 14.5731 31.9582 14.4745 31.8157 14.4085C31.6733 14.3425 31.5173 14.3109 31.3604 14.3164H17.1204C16.914 13.7329 16.5323 13.2274 16.0274 12.8693C15.5226 12.5113 14.9193 12.3181 14.3004 12.3164H13.3604C13.0951 12.3164 12.8408 12.4218 12.6532 12.6093C12.4657 12.7968 12.3604 13.0512 12.3604 13.3164C12.3604 13.5816 12.4657 13.836 12.6532 14.0235C12.8408 14.211 13.0951 14.3164 13.3604 14.3164H14.3004C14.5288 14.3098 14.7526 14.3815 14.9346 14.5198C15.1165 14.6581 15.2456 14.8545 15.3004 15.0764L15.3604 15.5564L17.0904 22.3164C16.2947 22.3522 15.5459 22.7026 15.0086 23.2905C14.4713 23.8785 14.1895 24.6558 14.2254 25.4514C14.2612 26.2471 14.6116 26.9959 15.1995 27.5332C15.7874 28.0705 16.5647 28.3522 17.3604 28.3164H17.5404C17.3759 28.7695 17.323 29.2556 17.3863 29.7335C17.4495 30.2114 17.627 30.667 17.9037 31.0618C18.1803 31.4565 18.5481 31.7788 18.9757 32.0013C19.4033 32.2238 19.8783 32.3399 20.3604 32.3399C20.8424 32.3399 21.3174 32.2238 21.745 32.0013C22.1726 31.7788 22.5404 31.4565 22.817 31.0618C23.0937 30.667 23.2712 30.2114 23.3344 29.7335C23.3977 29.2556 23.3448 28.7695 23.1804 28.3164H25.5404C25.3759 28.7695 25.323 29.2556 25.3863 29.7335C25.4495 30.2114 25.627 30.667 25.9037 31.0618C26.1803 31.4565 26.5481 31.7788 26.9757 32.0013C27.4033 32.2238 27.8783 32.3399 28.3604 32.3399C28.8424 32.3399 29.3174 32.2238 29.745 32.0013C30.1726 31.7788 30.5404 31.4565 30.817 31.0618C31.0937 30.667 31.2712 30.2114 31.3344 29.7335C31.3977 29.2556 31.3448 28.7695 31.1804 28.3164H31.3604C31.6256 28.3164 31.8799 28.2111 32.0675 28.0235C32.255 27.836 32.3604 27.5816 32.3604 27.3164C32.3604 27.0512 32.255 26.7968 32.0675 26.6093C31.8799 26.4218 31.6256 26.3164 31.3604 26.3164ZM30.0804 16.3164L28.7704 21.5564C28.7156 21.7783 28.5865 21.9747 28.4046 22.113C28.2226 22.2513 27.9988 22.3231 27.7704 22.3164H19.1404L17.6404 16.3164H30.0804ZM20.3604 30.3164C20.1626 30.3164 19.9692 30.2578 19.8048 30.1479C19.6403 30.038 19.5122 29.8818 19.4365 29.6991C19.3608 29.5164 19.341 29.3153 19.3796 29.1213C19.4182 28.9273 19.5134 28.7492 19.6532 28.6093C19.7931 28.4694 19.9713 28.3742 20.1653 28.3356C20.3592 28.297 20.5603 28.3168 20.743 28.3925C20.9258 28.4682 21.0819 28.5964 21.1918 28.7608C21.3017 28.9253 21.3604 29.1186 21.3604 29.3164C21.3604 29.5816 21.255 29.836 21.0675 30.0235C20.8799 30.2111 20.6256 30.3164 20.3604 30.3164ZM28.3604 30.3164C28.1626 30.3164 27.9692 30.2578 27.8048 30.1479C27.6403 30.038 27.5122 29.8818 27.4365 29.6991C27.3608 29.5164 27.341 29.3153 27.3796 29.1213C27.4182 28.9273 27.5134 28.7492 27.6532 28.6093C27.7931 28.4694 27.9713 28.3742 28.1653 28.3356C28.3592 28.297 28.5603 28.3168 28.743 28.3925C28.9258 28.4682 29.0819 28.5964 29.1918 28.7608C29.3017 28.9253 29.3604 29.1186 29.3604 29.3164C29.3604 29.5816 29.255 29.836 29.0675 30.0235C28.8799 30.2111 28.6256 30.3164 28.3604 30.3164Z" fill="#775C5C"/>
<path d="M22.376 19.2791L23.7329 20.4L25.6207 18.1582" stroke="#775C5C" stroke-width="1.4" stroke-linecap="round" stroke-linejoin="round"/>
</svg>
