<svg width="45" height="45" viewBox="0 0 45 45" fill="none" xmlns="http://www.w3.org/2000/svg">
<rect x="0.360352" y="0.316406" width="44" height="44" rx="6" fill="#FFF1F1"/>
<path d="M22.3604 12.3164C20.3825 12.3164 18.4491 12.9029 16.8047 14.0017C15.1602 15.1005 13.8784 16.6623 13.1216 18.4896C12.3647 20.3168 12.1667 22.3275 12.5525 24.2673C12.9384 26.2071 13.8908 27.9889 15.2893 29.3875C16.6878 30.786 18.4696 31.7384 20.4095 32.1243C22.3493 32.5101 24.3599 32.3121 26.1872 31.5552C28.0145 30.7983 29.5762 29.5166 30.6751 27.8721C31.7739 26.2276 32.3604 24.2942 32.3604 22.3164C32.3604 21.0032 32.1017 19.7028 31.5992 18.4896C31.0966 17.2763 30.36 16.1739 29.4314 15.2453C28.5028 14.3168 27.4004 13.5802 26.1872 13.0776C24.9739 12.5751 23.6736 12.3164 22.3604 12.3164ZM22.3604 30.3164C20.7781 30.3164 19.2314 29.8472 17.9158 28.9682C16.6002 28.0891 15.5748 26.8397 14.9693 25.3779C14.3638 23.9161 14.2054 22.3075 14.5141 20.7557C14.8228 19.2038 15.5847 17.7784 16.7035 16.6596C17.8223 15.5407 19.2478 14.7788 20.7996 14.4701C22.3515 14.1614 23.96 14.3199 25.4218 14.9254C26.8836 15.5309 28.1331 16.5563 29.0121 17.8718C29.8912 19.1874 30.3604 20.7342 30.3604 22.3164C30.3604 24.4381 29.5175 26.473 28.0172 27.9733C26.5169 29.4736 24.4821 30.3164 22.3604 30.3164ZM22.3604 16.3164C22.0951 16.3164 21.8408 16.4218 21.6532 16.6093C21.4657 16.7968 21.3604 17.0512 21.3604 17.3164V21.3164H19.3604C19.0951 21.3164 18.8408 21.4218 18.6532 21.6093C18.4657 21.7968 18.3604 22.0512 18.3604 22.3164C18.3604 22.5816 18.4657 22.836 18.6532 23.0235C18.8408 23.211 19.0951 23.3164 19.3604 23.3164H22.3604C22.6256 23.3164 22.8799 23.211 23.0675 23.0235C23.255 22.836 23.3604 22.5816 23.3604 22.3164V17.3164C23.3604 17.0512 23.255 16.7968 23.0675 16.6093C22.8799 16.4218 22.6256 16.3164 22.3604 16.3164Z" fill="#775C5C"/>
</svg>
