<svg width="22" height="20" viewBox="0 0 22 20" fill="none" xmlns="http://www.w3.org/2000/svg">
<path d="M22 10.7227V15.7227C22 15.9879 21.8946 16.2422 21.7071 16.4298C21.5196 16.6173 21.2652 16.7227 21 16.7227H20C20 17.5183 19.6839 18.2814 19.1213 18.844C18.5587 19.4066 17.7956 19.7227 17 19.7227C16.2044 19.7227 15.4413 19.4066 14.8787 18.844C14.3161 18.2814 14 17.5183 14 16.7227H8C8 17.5183 7.68393 18.2814 7.12132 18.844C6.55871 19.4066 5.79565 19.7227 5 19.7227C4.20435 19.7227 3.44129 19.4066 2.87868 18.844C2.31607 18.2814 2 17.5183 2 16.7227H1C0.734783 16.7227 0.480429 16.6173 0.292892 16.4298C0.105356 16.2422 0 15.9879 0 15.7227V3.72266C0 2.92701 0.316071 2.16395 0.878679 1.60134C1.44129 1.03873 2.20435 0.722656 3 0.722656H12C12.7956 0.722656 13.5587 1.03873 14.1213 1.60134C14.6839 2.16395 15 2.92701 15 3.72266V5.72266H17C17.4657 5.72266 17.9251 5.83109 18.3416 6.03937C18.7582 6.24766 19.1206 6.55007 19.4 6.92266L21.8 10.1227C21.8292 10.1661 21.8528 10.2132 21.87 10.2627L21.93 10.3727C21.9741 10.4842 21.9978 10.6027 22 10.7227ZM6 16.7227C6 16.5249 5.94135 16.3315 5.83147 16.1671C5.72159 16.0026 5.56541 15.8745 5.38268 15.7988C5.19996 15.7231 4.99889 15.7033 4.80491 15.7419C4.61093 15.7805 4.43274 15.8757 4.29289 16.0155C4.15304 16.1554 4.0578 16.3336 4.01921 16.5276C3.98063 16.7215 4.00043 16.9226 4.07612 17.1053C4.15181 17.2881 4.27998 17.4442 4.44443 17.5541C4.60888 17.664 4.80222 17.7227 5 17.7227C5.26522 17.7227 5.51957 17.6173 5.70711 17.4298C5.89464 17.2422 6 16.9879 6 16.7227ZM13 3.72266C13 3.45744 12.8946 3.20309 12.7071 3.01555C12.5196 2.82801 12.2652 2.72266 12 2.72266H3C2.73478 2.72266 2.48043 2.82801 2.29289 3.01555C2.10536 3.20309 2 3.45744 2 3.72266V14.7227H2.78C3.06118 14.4133 3.40391 14.1661 3.78622 13.997C4.16852 13.8278 4.58195 13.7405 5 13.7405C5.41805 13.7405 5.83148 13.8278 6.21378 13.997C6.59609 14.1661 6.93882 14.4133 7.22 14.7227H13V3.72266ZM15 9.72266H19L17.8 8.12266C17.7069 7.99846 17.5861 7.89766 17.4472 7.82823C17.3084 7.7588 17.1552 7.72266 17 7.72266H15V9.72266ZM18 16.7227C18 16.5249 17.9414 16.3315 17.8315 16.1671C17.7216 16.0026 17.5654 15.8745 17.3827 15.7988C17.2 15.7231 16.9989 15.7033 16.8049 15.7419C16.6109 15.7805 16.4327 15.8757 16.2929 16.0155C16.153 16.1554 16.0578 16.3336 16.0192 16.5276C15.9806 16.7215 16.0004 16.9226 16.0761 17.1053C16.1518 17.2881 16.28 17.4442 16.4444 17.5541C16.6089 17.664 16.8022 17.7227 17 17.7227C17.2652 17.7227 17.5196 17.6173 17.7071 17.4298C17.8946 17.2422 18 16.9879 18 16.7227ZM20 11.7227H15V14.5027C15.5902 13.9752 16.3649 13.7024 17.1553 13.7436C17.9457 13.7848 18.6879 14.1367 19.22 14.7227H20V11.7227Z" fill="#2F80ED"/>
</svg>
