<svg width="12" height="21" viewBox="0 0 12 21" fill="none" xmlns="http://www.w3.org/2000/svg">
<path d="M8 9.22266H4C3.46957 9.22266 2.96086 9.01194 2.58579 8.63687C2.21071 8.2618 2 7.75309 2 7.22266C2 6.69222 2.21071 6.18352 2.58579 5.80844C2.96086 5.43337 3.46957 5.22266 4 5.22266H9C9.26522 5.22266 9.51957 5.32801 9.70711 5.51555C9.89464 5.70309 10 5.95744 10 6.22266C10 6.48787 10.1054 6.74223 10.2929 6.92976C10.4804 7.1173 10.7348 7.22266 11 7.22266C11.2652 7.22266 11.5196 7.1173 11.7071 6.92976C11.8946 6.74223 12 6.48787 12 6.22266C12 5.42701 11.6839 4.66395 11.1213 4.10134C10.5587 3.53873 9.79565 3.22266 9 3.22266H7V1.22266C7 0.95744 6.89464 0.703086 6.70711 0.515549C6.51957 0.328013 6.26522 0.222656 6 0.222656C5.73478 0.222656 5.48043 0.328013 5.29289 0.515549C5.10536 0.703086 5 0.95744 5 1.22266V3.22266H4C2.93913 3.22266 1.92172 3.64408 1.17157 4.39423C0.421427 5.14437 0 6.16179 0 7.22266C0 8.28352 0.421427 9.30094 1.17157 10.0511C1.92172 10.8012 2.93913 11.2227 4 11.2227H8C8.53043 11.2227 9.03914 11.4334 9.41421 11.8084C9.78929 12.1835 10 12.6922 10 13.2227C10 13.7531 9.78929 14.2618 9.41421 14.6369C9.03914 15.0119 8.53043 15.2227 8 15.2227H3C2.73478 15.2227 2.48043 15.1173 2.29289 14.9298C2.10536 14.7422 2 14.4879 2 14.2227C2 13.9574 1.89464 13.7031 1.70711 13.5155C1.51957 13.328 1.26522 13.2227 1 13.2227C0.734784 13.2227 0.48043 13.328 0.292893 13.5155C0.105357 13.7031 0 13.9574 0 14.2227C0 15.0183 0.316071 15.7814 0.87868 16.344C1.44129 16.9066 2.20435 17.2227 3 17.2227H5V19.2227C5 19.4879 5.10536 19.7422 5.29289 19.9298C5.48043 20.1173 5.73478 20.2227 6 20.2227C6.26522 20.2227 6.51957 20.1173 6.70711 19.9298C6.89464 19.7422 7 19.4879 7 19.2227V17.2227H8C9.06087 17.2227 10.0783 16.8012 10.8284 16.0511C11.5786 15.3009 12 14.2835 12 13.2227C12 12.1618 11.5786 11.1444 10.8284 10.3942C10.0783 9.64408 9.06087 9.22266 8 9.22266Z" fill="#2F80ED"/>
</svg>
