<svg width="20" height="21" viewBox="0 0 20 21" fill="none" xmlns="http://www.w3.org/2000/svg">
<path d="M19 9.22266C18.4 9.22266 18 9.62266 18 10.2227C18 13.1227 16.5 15.7227 14 17.1227C10.2 19.3227 5.3 18.0227 3.1 14.2227C0.9 10.4227 2.2 5.52266 6 3.32266C9.3 1.42266 13.3 2.12266 15.8 4.72266H13.4C12.8 4.72266 12.4 5.12266 12.4 5.72266C12.4 6.32266 12.8 6.72266 13.4 6.72266H17.9C18.5 6.72266 18.9 6.32266 18.9 5.72266V1.22266C18.9 0.622656 18.5 0.222656 17.9 0.222656C17.3 0.222656 16.9 0.622656 16.9 1.22266V3.02266C15 1.22266 12.6 0.222656 10 0.222656C4.5 0.222656 0 4.72266 0 10.2227C0 15.7227 4.5 20.2227 10 20.2227C15.5 20.2227 20 15.7227 20 10.2227C20 9.62266 19.6 9.22266 19 9.22266Z" fill="#2F80ED"/>
</svg>
