<svg width="707" height="458" viewBox="0 0 707 458" fill="none" xmlns="http://www.w3.org/2000/svg">
<path d="M394.112 68.4933C395.102 69.7313 396.836 67.9973 395.846 66.7593C391.76 61.5563 391.76 53.5053 395.846 48.4273C399.932 43.4723 407.237 41.7383 413.056 44.2153C413.676 44.4633 414.542 44.4633 414.79 43.7203C417.39 37.7753 420.857 31.8303 426.429 28.2373C431.134 25.2643 437.077 24.7693 441.906 27.4943C444.011 28.7323 445.868 30.5903 446.611 33.0683C447.478 35.9173 446.982 38.8893 448.097 41.7383C449.459 45.0823 452.43 45.8263 455.65 46.1983C458.869 46.5683 461.717 47.8083 464.07 50.0373C469.394 55.3633 468.898 64.0343 463.45 68.9883C462.212 70.1033 464.07 71.8373 465.184 70.7223C470.26 66.0153 471.87 58.2123 468.651 52.0193C467.165 49.0463 464.565 46.5693 461.593 45.0833C459.983 44.3393 458.373 43.8433 456.64 43.5963C454.907 43.3483 452.678 43.4723 451.316 42.1103C449.211 39.8803 449.83 35.6693 449.211 32.9443C448.592 30.2193 446.859 27.8653 444.506 26.2553C439.801 22.7873 433.239 22.2923 427.915 24.5213C420.733 27.6183 416.152 34.5543 412.933 41.4913C407.856 39.7563 402.037 40.3763 397.455 43.4723C392.255 46.9403 389.531 52.8863 390.15 59.0793C390.77 62.5473 392.007 65.7683 394.112 68.4933ZM8.04801 122.869C3.96201 117.667 3.96201 109.615 8.04801 104.537C12.134 99.5823 19.439 97.8483 25.258 100.326C25.878 100.573 26.745 100.573 26.992 99.8303C29.592 93.8853 33.059 87.9403 38.632 84.3473C43.336 81.3753 49.28 80.8793 54.108 83.6043C56.213 84.8433 58.071 86.7013 58.813 89.1783C59.68 92.0273 59.185 95.0003 60.299 97.8483C61.661 101.193 64.633 101.936 67.852 102.308C71.072 102.679 73.919 103.918 76.272 106.148C81.596 111.473 81.101 120.144 75.652 125.098C74.415 126.213 76.272 127.948 77.386 126.832C82.463 122.126 84.072 114.322 80.853 108.129C79.367 105.156 76.767 102.679 73.795 101.193C72.185 100.45 70.576 99.9543 68.843 99.7063C67.109 99.4593 64.881 99.5823 63.519 98.2203C61.414 95.9903 62.033 91.7803 61.414 89.0543C60.794 86.3293 59.061 83.9763 56.709 82.3653C52.004 78.8973 45.441 78.4023 40.117 80.6313C32.936 83.7283 28.354 90.6643 25.135 97.6013C20.058 95.8673 14.239 96.4863 9.65801 99.5823C4.45801 103.051 1.73301 108.996 2.35301 115.189C2.72401 118.657 3.96301 121.878 6.06701 124.603C7.30501 125.842 9.03901 124.107 8.04801 122.869ZM506.415 190.994C507.158 191.489 507.901 192.109 508.52 192.604C508.149 192.356 507.9 192.109 507.53 191.861C507.158 191.489 506.787 191.241 506.415 190.994ZM501.215 185.42C500.967 185.048 500.595 184.677 500.348 184.43C500.843 185.172 501.462 185.915 501.958 186.535L501.215 185.42Z" fill="#DBC5B2"/>
<path d="M506.415 215.769C511.615 218.246 517.063 220.228 522.759 221.466C529.321 222.953 536.131 223.696 542.941 223.944C554.951 224.315 567.086 223.077 578.972 221.714C591.726 220.228 604.479 218.122 617.108 215.521C626.271 213.663 635.309 211.433 644.348 208.956C644.72 210.195 644.968 211.433 645.215 212.672C646.453 218.617 646.577 225.182 650.415 230.012C654.996 235.834 663.416 236.949 670.721 235.834C688.923 232.862 704.276 216.759 706.133 198.304C708.114 179.972 696.599 160.897 679.389 154.208C666.016 149.006 649.177 149.873 639.767 138.973C632.337 130.179 632.957 117.297 633.452 105.778C633.947 94.2578 633.081 81.0048 624.042 73.9448C616.489 67.9988 605.222 68.3708 597.792 62.3018C590.487 56.4798 588.63 46.1988 583.058 38.7668C577.61 31.5828 568.572 27.2478 559.657 27.6198C550.618 27.9908 541.951 32.9458 537.122 40.5018C535.388 43.2268 533.655 46.5708 530.436 47.1898C528.331 47.5618 526.226 46.5698 523.997 46.1998C519.416 45.3318 514.587 47.9328 511.739 51.6498C508.891 55.3648 507.653 60.0718 507.034 64.7788C506.539 68.6188 506.663 72.7058 508.149 76.2988C509.759 79.8898 513.225 82.7388 517.063 82.7388C518.549 74.1918 523.378 66.1408 530.312 60.9388L533.16 60.5668C534.77 70.4768 541.332 79.3948 550.123 83.8538C553.342 85.4638 556.809 86.5788 559.657 88.8078C563.867 92.1528 565.724 97.4778 567.457 102.558C571.048 113.21 574.763 123.986 580.706 133.523C589.868 148.139 593.336 158.667 609.308 165.356C619.213 169.444 628.499 178.981 635.186 189.51C622.68 192.854 610.051 195.579 597.297 197.808C592.592 198.675 587.887 199.295 583.058 200.038C574.886 201.153 566.714 202.02 558.542 202.515C550.37 203.011 542.075 203.135 533.902 202.144C528.455 201.277 523.13 199.914 518.054 197.932C515.325 196.7 512.678 195.294 510.13 193.721C507.282 198.799 505.053 204.249 502.824 209.575L501.339 213.291C503.072 214.158 504.682 214.901 506.415 215.769ZM542.322 274.604C564.981 276.338 587.763 273.984 609.803 268.534C621.937 265.562 633.947 262.094 646.205 260.236C645.586 260.36 645.091 260.36 644.472 260.483C645.462 260.36 646.329 260.236 647.32 260.112C646.948 260.112 646.577 260.236 646.205 260.236C648.063 259.988 649.796 259.864 651.653 259.74C650.663 252.804 649.549 245.744 648.558 238.807C643.481 239.303 638.281 240.046 633.328 241.037C622.061 243.267 611.041 246.487 599.774 249.087C594.202 250.327 588.506 251.441 582.811 252.308C565.955 254.414 548.902 254.414 532.045 252.308C519.045 250.45 506.167 247.354 493.785 243.018V244.381C493.785 251.937 495.395 259.121 497.5 266.429C511.987 270.764 527.093 273.365 542.322 274.604ZM543.684 343.844C537.769 343.353 531.866 342.734 525.978 341.986C526.474 342.109 526.968 342.109 527.34 342.233C526.35 342.11 525.483 341.986 524.492 341.862C524.988 341.986 525.483 341.986 525.854 341.986C518.425 340.995 510.996 339.632 503.691 338.146C502.948 345.206 501.834 352.142 500.719 359.079C514.835 361.928 529.198 363.786 543.684 364.9C556.809 365.891 570.057 366.263 583.182 365.767C587.926 359.888 591.842 353.387 594.821 346.445C594.45 345.702 594.201 344.958 593.954 344.091C577.239 345.454 560.276 345.206 543.684 343.844ZM657.968 313.249H659.206C658.959 309.409 658.34 305.569 657.844 301.854C657.349 298.634 656.854 295.413 656.358 292.069C644.224 292.192 631.966 292.44 619.832 292.564C617.356 292.564 614.88 292.688 612.527 292.688C612.651 293.059 612.775 293.555 612.898 293.927C601.631 297.89 589.868 300.615 578.106 302.349C578.601 302.225 579.096 302.225 579.591 302.102C578.601 302.225 577.734 302.349 576.744 302.473C577.239 302.473 577.61 302.349 578.106 302.225C562.195 304.207 546.099 304.207 530.188 302.225C530.683 302.349 531.178 302.349 531.55 302.473C530.56 302.349 529.693 302.225 528.702 302.102C529.198 302.225 529.692 302.225 530.064 302.225C521.397 300.987 512.73 299.129 504.31 296.652C505.177 303.96 505.3 311.392 505.053 318.823C518.673 322.291 532.788 324.273 546.903 324.769C567.333 325.512 588.135 323.035 607.822 317.585C608.193 317.461 608.565 317.337 608.936 317.337C610.051 310.153 611.66 302.102 613.146 295.165C613.766 297.519 614.384 299.995 615.127 302.349C616.117 306.065 617.108 310.029 616.365 313.745C630.233 313.621 644.101 313.497 657.968 313.249Z" fill="#DBC5B2"/>
<path d="M623.794 341.118C624.661 341.489 625.528 341.861 626.271 342.232C625.899 342.109 625.404 341.861 625.033 341.738C629.985 343.967 634.567 346.691 638.9 349.788C638.653 349.54 638.281 349.293 638.033 349.045C638.776 349.54 639.519 350.161 640.138 350.656C639.767 350.285 639.272 350.035 638.9 349.665C639.52 350.16 640.015 350.531 640.51 351.027C641.872 349.912 643.234 348.797 644.596 347.558C644.967 347.311 645.215 346.939 645.586 346.691L645.71 346.568L646.577 345.701C648.189 344.212 649.68 342.597 651.034 340.87C651.282 340.499 651.53 340.251 651.777 339.88C652.892 338.516 653.758 337.03 654.625 335.544C651.901 333.19 648.929 330.962 645.958 328.98C637.786 323.654 628.499 319.689 618.965 317.584C617.727 317.336 616.489 317.089 615.127 316.84C612.775 321.671 607.698 324.768 602.869 327.369L605.717 330.094C602.127 331.085 598.659 332.819 596.183 335.544C597.669 336.411 599.403 336.782 601.26 336.782C603.86 336.782 606.46 336.906 609.184 337.278C608.689 337.154 608.317 337.154 607.822 337.031C608.812 337.154 609.679 337.278 610.67 337.402C610.174 337.278 609.68 337.278 609.184 337.278C614.508 338.145 619.832 339.631 624.909 341.613C624.661 341.489 624.289 341.365 623.794 341.118ZM163.687 308.419C147.962 303.464 133.104 294.299 124.065 280.549C120.97 275.719 118.494 270.391 116.141 265.189C115.522 263.827 111.56 261.226 112.427 259.863C113.17 258.748 117.875 259.368 119.237 259.12C133.228 256.52 148.087 249.582 159.725 241.531C164.554 248.591 162.945 259.368 167.155 266.676C170.745 272.993 177.431 277.081 184.365 279.311C189.689 281.044 195.261 281.664 200.833 282.036C198.48 264.695 195.261 247.353 191.175 230.384C185.851 208.336 178.917 186.04 165.173 168.08C156.877 156.19 144.991 146.777 131.247 142.812C127.532 140.707 123.323 139.22 119.484 137.362C115.646 135.504 111.931 132.78 109.95 129.188C98.9342 141.07 88.4409 153.426 78.5002 166.221C78.8722 166.221 66.4902 184.058 70.5762 211.184C73.1762 228.524 77.2622 245.618 82.8342 262.215C88.4062 278.814 94.1022 295.66 95.9592 313.001C97.8162 330.465 95.5872 348.921 86.0532 363.661C84.0732 366.881 81.5962 370.101 81.5962 373.941C81.7202 381.126 90.0162 384.84 97.0732 386.576C127.903 393.759 160.22 394.625 191.423 389.052C195.261 388.309 199.471 387.442 202.071 384.592C205.166 381.248 205.538 376.17 205.785 371.587C206.405 352.76 205.909 333.809 204.423 315.105C190.556 314.115 176.812 312.628 163.687 308.417V308.419Z" fill="#DBC5B2"/>
<path d="M82.5872 367.005C73.7952 344.09 59.5572 323.529 41.3552 307.055C36.2792 302.472 30.8312 298.137 25.1352 294.297C24.5152 293.926 23.7732 294.173 23.4022 294.793C12.6292 313.248 3.71516 333.314 1.48616 354.743C-0.742839 376.79 4.82916 398.714 12.8772 419.152C17.4582 430.795 22.7822 442.19 28.2302 453.586C28.9732 455.072 31.0782 453.834 30.4602 452.347C21.0492 432.653 11.6392 412.587 6.68616 391.159C4.33416 380.754 3.09616 369.978 3.71516 359.202C4.33416 348.549 6.68616 338.145 10.2772 328.112C14.1152 317.336 19.1922 307.055 25.0112 297.146C44.3272 310.647 60.4232 328.607 71.8142 349.293C75.0357 355.223 77.8891 361.344 80.3582 367.624C80.7292 369.234 83.2062 368.615 82.5872 367.005Z" fill="#DBC5B2"/>
<path d="M69.0902 425.841C67.1102 429.681 64.1382 433.023 60.5472 435.625C56.9572 423.115 53.3652 410.48 50.0222 397.97C54.8522 386.08 61.4142 374.932 69.3382 364.776C70.3282 363.536 68.5952 361.678 67.6052 363.04C60.0522 372.578 53.8612 382.982 49.0322 394.13C48.9082 393.635 48.7842 393.263 48.6602 392.768C45.5652 381.248 42.5932 369.605 39.7462 358.086C39.9932 357.962 40.1172 357.715 40.2412 357.344C43.4612 347.806 46.5562 338.392 49.7752 328.854C50.2702 327.368 47.7942 326.624 47.2982 328.234C44.4512 336.781 41.6032 345.452 38.7552 353.999C37.3932 348.178 35.9072 342.356 34.5452 336.535C32.0692 325.882 29.7162 315.23 27.3642 304.578C26.9922 302.968 24.6402 303.711 24.8872 305.198C28.9732 324.148 33.3072 342.975 38.0122 361.678L42.0982 378.028C30.3352 373.693 19.6872 366.756 10.8962 357.838C9.78218 356.723 7.92418 358.459 9.16318 359.573C18.4492 369.111 29.8402 376.295 42.3462 380.754C42.4702 380.754 42.7172 380.877 42.8412 380.877C44.3272 386.575 45.8132 392.272 47.2982 397.847C47.1752 398.217 46.9272 398.59 46.8032 399.086C46.4322 400.076 47.1752 400.571 48.0412 400.571C49.6512 406.269 51.1372 412.092 52.7462 417.789C53.6132 420.762 54.3562 423.61 55.2232 426.583C41.4792 421.38 29.0972 412.958 19.3162 401.933C18.2012 400.695 16.4682 402.553 17.5822 403.668C27.9822 415.435 41.3552 424.354 56.0892 429.556C57.9472 436.12 59.9282 442.685 61.7852 449.25C62.2802 450.86 64.6332 450.117 64.2612 448.63C63.2712 445.162 62.2812 441.695 61.1662 438.227C65.3762 435.501 68.7192 431.662 71.0712 427.203C72.0622 425.716 69.8332 424.354 69.0912 425.84L69.0902 425.841ZM229.806 435.996C230.425 429.556 231.292 423.115 232.406 416.798C242.53 416.303 252.477 413.952 261.751 409.862C263.237 409.242 261.999 407.012 260.513 407.631C251.846 411.471 242.435 413.701 232.901 414.196C234.14 407.631 235.625 400.943 237.483 394.502C238.102 394.254 238.597 393.511 238.102 392.768C238.102 392.644 237.978 392.645 237.978 392.521C239.717 386.415 241.699 380.383 243.921 374.436C250.36 372.578 256.798 370.596 263.361 368.738C264.971 368.243 264.227 365.889 262.741 366.262C256.922 367.995 250.979 369.729 245.159 371.463C245.655 370.101 246.149 368.862 246.769 367.5C249.864 359.944 253.455 352.512 257.294 345.204C258.036 343.718 255.932 342.48 255.064 343.966C250.112 353.132 245.778 362.669 242.064 372.455C241.692 372.702 241.569 373.197 241.569 373.569C239.614 378.695 237.879 383.902 236.369 389.177L227.825 372.826C227.082 371.34 224.853 372.703 225.596 374.065C228.816 380.258 232.158 386.451 235.378 392.644C232.161 403.928 229.801 415.439 228.32 427.078C228.073 428.936 227.825 430.794 227.701 432.776C222.996 426.335 218.415 419.894 213.71 413.453C212.72 412.09 210.614 413.453 211.48 414.692C216.805 422 222.005 429.184 227.33 436.492C226.834 441.694 226.587 446.772 226.463 451.975C226.463 453.585 228.939 453.585 228.939 451.975C229.063 447.02 229.311 442.066 229.806 437.112C230.054 436.988 230.177 436.491 229.806 435.996Z" fill="#DBC5B2"/>
<path d="M313.012 351.027C312.64 350.779 312.269 350.531 311.773 350.655C297.039 356.105 285.029 367.996 279.085 382.488C278.838 383.108 278.59 383.603 278.466 384.222C278.095 376.666 277.104 369.235 275.742 361.802C273.885 351.274 271.409 340.87 268.809 330.589C268.685 329.969 267.942 329.474 267.199 329.722C245.407 336.906 226.587 352.018 214.576 371.464C211.204 376.952 208.384 382.76 206.156 388.805C205.538 390.291 208.014 391.035 208.633 389.425C216.31 368.615 231.539 350.903 250.731 339.755C255.808 336.782 261.131 334.429 266.704 332.447C271.037 349.912 275.247 367.501 275.99 385.461C276.114 387.814 276.114 390.044 276.114 392.397C275.99 393.264 275.742 394.255 275.619 395.122C275.495 395.618 275.742 395.989 275.99 396.237C275.495 408.252 273.018 420.143 267.942 431.043C264.352 438.723 259.522 445.658 253.332 451.48C252.093 452.595 253.95 454.329 255.065 453.214C262.246 446.526 267.57 438.227 271.285 429.308C271.664 436.286 273.885 443.039 277.723 448.879C278.59 450.241 280.819 449.003 279.953 447.64C276.238 441.943 274.133 435.378 273.885 428.69C273.885 427.698 272.895 427.327 272.152 427.574C273.885 422.991 275.371 418.284 276.362 413.578C277.847 406.641 278.466 399.705 278.59 392.768C281.438 379.144 289.61 366.758 301.125 358.83C304.468 356.6 308.059 354.619 311.773 353.256C321.431 362.051 328.365 373.57 331.708 386.08C335.175 399.086 334.556 412.959 330.222 425.716C327.746 433.024 323.908 439.836 319.202 445.906C318.212 447.145 319.945 449.003 320.936 447.64C329.727 436.616 335.175 422.991 336.289 408.871C337.404 394.998 334.184 381.001 327.374 368.863C323.66 362.298 318.707 356.229 313.012 351.027Z" fill="#DBC5B2"/>
<path d="M329.108 401.688C330.594 400.945 329.232 398.715 327.87 399.458L304.097 412.464C305.211 403.05 306.573 393.637 308.307 384.347C309.426 378.378 310.664 372.431 312.021 366.511C312.392 364.901 309.916 364.281 309.545 365.891C307.315 375.677 305.335 385.461 303.849 395.371V395.247C301.125 388.682 298.277 382.117 295.553 375.553C294.934 374.066 292.705 375.305 293.325 376.791C296.049 383.356 298.896 389.921 301.62 396.486C301.992 397.476 303.23 397.229 303.725 396.486C301.992 407.531 300.752 418.649 300.011 429.805C299.887 430.92 299.887 431.911 299.763 433.025C294.067 427.328 289.239 420.639 285.524 413.455C284.781 411.969 282.552 413.331 283.295 414.694C287.381 422.621 292.705 429.681 299.144 435.874C299.268 435.998 299.392 436.122 299.639 436.122C299.392 440.086 299.268 443.925 299.144 447.889C299.144 449.499 301.62 449.499 301.62 447.889C301.868 437.113 302.61 426.213 303.725 415.437C312.145 410.854 320.688 406.271 329.108 401.687V401.688ZM429.277 109.246C440.544 112.342 450.573 119.155 458.002 128.197C465.432 137.487 469.765 149.007 470.26 160.897C470.384 162.712 470.384 164.532 470.26 166.347C470.136 167.957 472.737 167.957 472.737 166.347C473.356 153.589 469.765 140.831 462.584 130.303C455.65 120.27 445.744 112.466 434.229 108.255C422.343 103.92 409.094 103.548 397.084 107.264C385.445 110.856 375.044 118.04 367.615 127.702C359.939 137.611 355.729 149.749 355.481 162.259C355.481 164.241 355.481 166.223 355.605 168.205C355.729 169.815 358.205 169.815 358.081 168.205C357.091 155.819 360.186 143.308 366.996 132.904C373.311 123.119 382.721 115.439 393.493 111.228C405.008 106.645 417.638 106.025 429.277 109.246Z" fill="#DBC5B2"/>
<path d="M450.45 166.097C450.326 167.707 452.926 167.707 452.926 166.097C454.04 149.004 443.639 132.778 427.419 126.833C411.323 120.887 392.998 126.585 382.845 140.21C376.902 148.137 374.301 158.294 375.54 168.08C375.787 169.69 378.264 169.69 378.016 168.08C377.026 159.78 378.759 151.358 383.092 144.297C387.055 137.857 393.246 132.654 400.303 129.681C415.161 123.612 432.496 128.195 442.525 140.705C448.345 147.889 451.068 156.931 450.449 166.097H450.45Z" fill="#DBC5B2"/>
<path d="M423.21 141.45C413.056 137.239 401.17 140.831 394.855 149.75C391.017 155.075 389.779 161.764 391.017 168.205C391.264 169.815 393.741 169.072 393.493 167.585C391.636 157.8 396.836 147.644 406.246 143.804C415.286 140.088 425.933 143.184 431.506 151.236C433.154 153.611 434.31 156.293 434.906 159.122C435.501 161.952 435.523 164.872 434.972 167.71C434.601 169.32 437.077 169.939 437.449 168.329C439.553 157.181 433.734 145.786 423.209 141.45H423.21ZM209.995 198.923C225.101 201.896 240.33 204.869 255.436 207.841C257.046 208.213 257.665 205.736 256.056 205.364C240.95 202.391 225.72 199.419 210.614 196.446C209.004 196.198 208.385 198.552 209.995 198.923ZM208.51 208.089C221.263 209.823 233.768 213.044 245.902 217.627C247.388 218.246 248.131 215.769 246.522 215.149C234.511 210.566 221.882 207.469 209.128 205.612C207.518 205.364 206.9 207.842 208.509 208.089H208.51ZM205.661 216.264C217.671 218.37 229.311 221.714 240.578 226.421C242.064 227.041 242.683 224.563 241.198 223.944C229.93 219.237 218.291 215.892 206.281 213.787C204.795 213.539 204.176 216.017 205.661 216.264ZM200.956 224.067C207.395 225.677 213.833 227.287 220.272 228.774C221.882 229.146 222.501 226.669 220.892 226.297C214.452 224.687 208.014 223.077 201.575 221.59C199.965 221.219 199.347 223.696 200.956 224.067Z" fill="#DBC5B2"/>
<path d="M255.189 85.4622H335.918C337.528 85.4622 337.528 82.9852 335.918 82.9852H255.189C253.455 82.8612 253.455 85.4622 255.189 85.4622ZM255.189 95.3712H335.918C337.528 95.3712 337.528 92.8942 335.918 92.8942H255.189C253.455 92.8942 253.455 95.3712 255.189 95.3712ZM255.189 105.404H335.918C337.528 105.404 337.528 102.927 335.918 102.927H255.189C253.455 102.803 253.455 105.404 255.189 105.404ZM255.189 115.313H335.918C337.528 115.313 337.528 112.836 335.918 112.836H255.189C253.455 112.836 253.455 115.313 255.189 115.313ZM255.189 125.346H290.972C292.582 125.346 292.582 122.869 290.972 122.869H255.189C253.455 122.745 253.455 125.346 255.189 125.346ZM334.06 198.054H400.922C402.532 198.054 402.532 195.577 400.922 195.577H334.061C332.451 195.453 332.451 198.054 334.061 198.054H334.06ZM411.942 198.054H425.438C427.048 198.054 427.048 195.577 425.438 195.577H411.942C410.332 195.453 410.332 198.054 411.942 198.054ZM440.173 198.921H489.823C491.433 198.921 491.433 196.444 489.823 196.444H440.173C438.563 196.444 438.563 198.921 440.173 198.921ZM368.606 212.298H353.624C352.014 212.298 352.014 214.776 353.624 214.776H421.724C423.334 214.776 423.334 212.298 421.724 212.298H368.606ZM431.381 214.404H465.184C466.794 214.404 466.794 211.927 465.184 211.927H431.38C429.77 211.803 429.77 214.404 431.38 214.404H431.381ZM108.836 90.7882C110.817 92.7702 113.789 93.8852 116.513 93.3892C116.141 105.28 113.789 117.047 109.826 128.319C109.331 129.805 111.684 130.549 112.303 128.939C115.77 119.277 117.998 109.12 118.741 98.8392C120.351 104.661 123.075 110.235 127.037 114.942C132.361 121.259 139.914 125.222 148.334 125.718H149.324C148.706 134.156 149.08 142.636 150.439 150.986C150.686 152.596 153.163 151.853 152.915 150.366C151.677 142.192 151.305 133.893 151.925 125.718C158.611 125.222 165.173 122.25 169.507 116.923C175.45 109.368 176.564 98.8392 177.06 89.6732C177.679 77.5352 176.317 65.2732 173.097 53.5052C172.602 51.8952 170.25 52.6382 170.621 54.1252C173.345 63.7852 174.707 73.8192 174.707 83.9752C174.707 89.0552 174.336 94.0092 173.593 98.9632C172.973 103.298 171.983 107.633 170.002 111.473C166.412 118.533 159.725 122.745 151.925 123.24H151.305C151.169 123.179 151.021 123.147 150.872 123.147C150.723 123.147 150.575 123.179 150.439 123.24C143.257 123.364 136.447 120.64 131.123 115.56C124.561 109.244 120.846 100.202 119.98 91.1602C119.856 90.2932 118.989 89.5502 118.122 90.0452C115.646 91.6552 112.55 90.7882 110.693 88.8062C108.836 86.8252 107.598 83.9762 107.226 81.2512C106.855 78.8972 107.226 75.8012 109.579 74.5622C111.189 73.6952 113.541 73.6952 114.532 75.5532C115.274 76.7922 117.132 75.9252 116.884 74.5622C116.265 72.2092 115.77 69.7322 115.151 67.3782C114.779 65.7682 112.303 66.5112 112.674 67.9982C112.922 69.2362 113.294 70.4752 113.541 71.7132C112.179 71.3422 110.569 71.3422 109.207 71.9612C105.74 73.3232 104.378 76.9152 104.627 80.3842C104.627 84.1002 106.236 88.0642 108.836 90.7882ZM157.744 242.026C158.611 243.636 160.964 242.893 161.087 241.159C161.211 240.044 160.468 238.929 159.973 237.939C159.353 236.699 158.858 235.461 158.239 234.346C155.887 229.516 153.658 224.809 151.305 219.978C146.725 210.317 142.019 200.779 137.438 191.118C136.695 189.631 134.59 190.994 135.209 192.356C139.171 200.408 143.009 208.582 146.972 216.634C148.952 220.597 150.81 224.684 152.792 228.648C153.782 230.63 154.649 232.612 155.639 234.594C156.134 235.709 156.629 236.7 157.125 237.814C157.373 238.31 157.62 238.681 157.744 239.177C157.868 239.425 157.992 239.797 158.239 240.044V240.168C157.744 240.539 157.373 241.283 157.744 242.026ZM310.164 327.615C307.316 327.492 304.592 326.996 301.992 325.634C299.887 324.519 298.03 323.033 296.049 321.546C290.849 317.706 285.029 315.725 278.59 315.476C274.876 315.229 271.037 315.476 267.323 315.601C263.113 315.725 259.027 315.725 254.817 315.725C246.645 315.725 238.473 315.353 230.301 314.857C213.957 313.867 197.737 312.009 181.393 310.151C173.964 309.284 166.287 308.664 159.353 305.568C153.534 303.09 148.086 299.746 143.01 296.154C131.123 287.855 120.97 276.584 116.017 262.834C115.522 261.348 113.046 261.968 113.541 263.454C117.998 275.84 126.418 286.245 136.571 294.42C141.524 298.384 146.971 301.976 152.667 304.948C155.639 306.558 158.735 308.045 161.954 309.16C165.544 310.275 169.259 311.018 172.974 311.513C181.022 312.628 189.07 313.371 196.994 314.238C205.414 315.105 213.834 315.972 222.129 316.592C238.721 317.83 255.312 318.326 271.904 317.83C275.866 317.706 279.828 317.706 283.667 318.45C286.762 319.069 289.734 320.308 292.457 322.042C296.667 324.767 300.258 328.235 305.335 329.35C306.821 329.721 308.43 329.845 309.916 329.845C311.773 330.093 311.773 327.615 310.164 327.615ZM327.87 329.102C321.184 326.005 314.745 322.289 308.554 318.202C307.192 317.335 305.954 319.44 307.316 320.432C313.383 324.642 319.822 328.235 326.632 331.332C328.117 331.951 329.356 329.845 327.87 329.102ZM342.356 327.615C333.62 324.61 325.133 320.925 316.974 316.592C315.488 315.848 314.25 317.954 315.736 318.822C324.156 323.28 332.822 326.996 341.737 330.092C343.223 330.588 343.842 328.111 342.357 327.615H342.356ZM350.28 326.872C343.1 323.032 335.67 318.822 329.727 313.123C328.365 311.761 327.003 310.275 325.889 308.664C325.146 307.55 324.774 306.559 324.403 305.692C323.783 303.958 323.783 302.223 324.155 300.365C324.527 299.003 325.022 297.765 326.384 297.021C327.498 296.401 328.86 296.278 330.222 296.031C331.832 295.783 331.089 293.305 329.603 293.553C327.251 293.925 324.774 294.543 323.165 296.526C321.679 298.507 321.184 301.604 321.431 304.081C321.555 305.691 322.298 307.301 323.041 308.788C325.517 313.371 329.727 316.839 333.937 319.936C338.642 323.404 343.842 326.376 349.043 329.102C350.405 329.845 351.643 327.615 350.281 326.872H350.28ZM83.453 380.63C76.148 397.97 72.929 417.045 73.919 435.748C74.167 441.075 74.909 446.401 75.777 451.603C76.024 453.213 78.501 452.47 78.253 450.983C74.91 432.776 75.777 413.948 80.729 396.112C82.091 391.034 83.825 386.079 85.929 381.372C86.425 379.886 84.072 379.142 83.453 380.629V380.63ZM204.3 399.209C203.928 394.13 203.557 389.176 203.185 384.097C203.061 382.487 200.585 382.487 200.709 384.097C202.071 401.686 203.309 419.275 204.671 436.863C205.042 441.942 205.414 446.896 205.785 451.975C205.909 453.585 208.385 453.585 208.262 451.975C207.023 434.385 205.662 416.797 204.299 399.209H204.3ZM197.737 424.23C197.24 435.227 194.412 445.993 189.441 455.814C188.698 457.301 190.927 458.539 191.671 457.053C196.878 446.859 199.834 435.665 200.337 424.229C200.337 422.619 197.737 422.619 197.737 424.229V424.23Z" fill="#0E4D80"/>
<path d="M432.248 301.852C432.496 301.48 432.62 300.985 432.496 300.613C432.62 300.489 432.743 300.242 432.743 300.118C435.343 286.988 437.943 273.858 440.42 260.729C440.544 259.986 440.173 259.49 439.553 259.243C439.306 258.376 438.191 257.756 437.449 258.623C437.325 258.376 437.077 258.252 436.706 258.128C418.381 254.908 400.056 252.058 381.606 249.458C363.282 246.856 344.833 244.627 326.508 242.645C316.119 241.532 305.718 240.541 295.306 239.672C293.696 239.548 293.696 242.026 295.306 242.15C313.631 243.76 331.956 245.618 350.281 247.847C368.73 250.077 387.055 252.554 405.38 255.403C415.533 257.013 425.562 258.623 435.715 260.357C428.286 268.037 420.733 275.84 413.304 283.52C413.056 283.768 413.056 283.892 412.933 284.14C412.809 284.14 412.685 284.015 412.561 284.015C392.035 281.915 371.522 279.686 351.024 277.327C330.594 274.973 310.164 272.372 289.734 269.647C278.838 268.161 268.066 266.675 257.17 265.188C268.19 257.508 279.085 249.705 290.105 242.026C291.467 241.159 290.105 238.929 288.867 239.796C277.228 247.971 265.713 256.146 254.074 264.321C253.455 264.693 253.455 265.312 253.579 265.931C253.455 266.179 253.455 266.551 253.579 266.798C253.579 266.922 253.455 267.17 253.455 267.294C253.95 275.221 253.827 283.024 252.836 290.952V291.323C241.197 289.342 229.682 287.112 218.043 285.13C211.149 283.903 204.256 282.664 197.366 281.414C193.899 280.795 190.556 280.176 187.089 279.556C184.117 279.061 181.146 278.442 178.422 277.203C172.974 274.726 168.392 269.276 166.535 263.578C165.545 260.605 164.925 257.508 164.182 254.536C163.316 251.192 162.449 247.723 161.706 244.379C161.335 242.769 158.858 243.512 159.23 244.999C160.592 250.82 162.078 256.518 163.563 262.339C164.925 267.789 167.897 272.496 172.107 276.089C174.336 277.946 176.812 279.432 179.536 280.423C182.508 281.414 185.603 281.91 188.698 282.405C195.756 283.644 202.814 284.882 209.871 286.245C223.987 288.722 238.101 291.323 252.341 293.801C265.589 296.154 278.961 298.507 292.334 295.782C306.078 292.934 319.822 287.236 333.937 291.076C335.547 291.447 336.165 289.094 334.556 288.598C322.298 285.378 309.916 288.846 298.03 291.818C292.086 293.305 286.143 294.544 279.952 294.544C273.018 294.544 266.085 293.677 259.275 292.438L254.817 291.695C254.941 291.447 255.189 291.2 255.189 290.952C256.055 283.148 256.303 275.345 255.808 267.542C275.742 270.39 295.678 272.992 315.612 275.592C336.165 278.194 356.843 280.672 377.397 282.901C388.54 284.139 399.684 285.254 410.827 286.493C410.457 286.74 410.332 286.988 410.332 287.483C410.704 301.604 409.466 315.601 406.742 329.473L406.618 329.597C406.246 330.093 406.246 330.588 406.494 330.96L405.751 334.304C389.16 331.455 372.444 328.606 355.853 325.634C354.243 325.386 353.623 327.739 355.233 328.111C372.073 330.96 388.788 333.932 405.627 336.781C406.37 336.905 406.865 336.41 407.113 335.914C407.608 335.914 408.103 335.667 408.227 335.047C408.599 333.561 408.847 332.075 409.218 330.588C416.895 321.051 424.571 311.389 432.248 301.852ZM413.056 287.607C413.056 287.236 412.933 286.988 412.685 286.74C413.304 286.74 413.675 286.245 413.675 285.75C414.047 285.873 414.542 285.873 414.914 285.502L437.572 262.092C435.096 274.478 432.743 286.864 430.267 299.375C430.267 299.622 430.267 299.87 430.391 300.118C423.705 308.54 417.019 316.963 410.209 325.386C412.437 313 413.428 300.366 413.056 287.608V287.607ZM155.64 243.264C142.638 252.182 127.532 257.509 111.808 258.624C110.198 258.747 110.198 261.224 111.808 261.101C127.904 259.862 143.628 254.536 156.878 245.37C158.239 244.503 157.001 242.273 155.639 243.264H155.64ZM157.001 95.2475C159.477 95.9905 162.201 95.7435 164.554 94.5045C167.03 93.2655 167.154 90.9125 166.287 88.5595C164.182 82.7375 161.83 77.0395 159.601 71.2185C158.982 69.7315 156.63 70.3515 157.125 71.8375C158.858 76.4205 160.592 80.8795 162.325 85.4625C162.697 86.5775 163.192 87.6925 163.563 88.6825C163.935 89.5505 164.678 90.9125 163.935 91.7795C163.315 92.5225 162.078 92.7705 161.211 93.0185C160.013 93.2496 158.776 93.1641 157.621 92.7705C156.134 92.3985 155.515 94.7525 157.001 95.2475ZM137.81 102.184C145.734 106.767 155.64 107.51 164.059 103.918C165.544 103.298 164.925 100.821 163.439 101.44C155.639 104.785 146.477 104.29 139.171 99.9545C137.685 99.2115 136.447 101.44 137.809 102.184H137.81ZM135.828 67.2545C137.19 61.8045 143.133 58.9555 148.21 61.4335C149.696 62.1765 150.934 59.9465 149.448 59.2035C143.01 55.9835 135.085 59.3275 133.352 66.5115C132.98 68.1215 135.457 68.8645 135.828 67.2545ZM160.22 60.5655C161.582 57.5935 165.297 57.0975 167.402 59.5755C168.516 60.8135 170.25 58.9555 169.135 57.8405C165.915 54.2485 160.096 54.9925 157.992 59.3275C157.372 60.8135 159.602 62.0525 160.22 60.5655ZM150.067 71.5905C150.067 69.3605 148.829 67.6265 147.343 67.6265C145.857 67.6265 144.619 69.3605 144.619 71.5895C144.619 73.8195 145.857 75.5535 147.343 75.5535C148.829 75.5535 150.067 73.8195 150.067 71.5895V71.5905ZM165.668 65.1485C164.182 65.1485 162.944 66.8825 162.944 69.1125C162.944 71.3425 164.182 73.0765 165.668 73.0765C167.154 73.0765 168.392 71.3425 168.392 69.1125C168.392 66.8825 167.154 65.1485 165.668 65.1485ZM106.731 393.51C101.778 392.644 96.949 391.53 92.244 390.043C88.406 388.804 86.673 394.997 90.511 396.112C95.216 397.598 100.045 398.713 104.998 399.58C106.731 399.828 108.341 399.085 108.836 397.35C109.331 395.864 108.341 393.759 106.731 393.51ZM137.933 396.98C132.857 397.35 127.78 396.855 122.827 395.617C118.865 394.626 117.256 400.695 121.094 401.686C126.542 403.048 132.237 403.544 137.934 403.172C139.667 403.048 141.029 401.81 141.029 400.076C141.152 398.466 139.667 396.856 137.933 396.979V396.98ZM175.698 396.236C168.021 396.979 160.22 397.351 152.42 397.103C148.334 396.979 148.334 403.296 152.42 403.42C160.22 403.544 167.897 403.296 175.698 402.553C177.431 402.429 178.793 401.19 178.793 399.456C178.793 397.846 177.431 396.112 175.698 396.236ZM199.1 394.378C198.728 392.768 196.87 391.653 195.26 392.148C191.794 393.387 188.45 394.626 184.984 395.74C183.374 396.36 182.26 397.846 182.755 399.58C183.127 401.19 184.984 402.305 186.594 401.81C190.06 400.571 193.404 399.333 196.87 398.218C198.48 397.722 199.47 396.112 199.1 394.378Z" fill="#0E4D80"/>
<path d="M91.8731 217.378C90.8831 212.795 90.2631 208.088 89.8921 203.505C89.7681 201.895 87.2921 201.895 87.4151 203.505C88.5301 219.483 93.4821 234.719 101.159 248.715C103.264 252.679 105.617 256.519 107.969 260.358C108.836 261.721 111.065 260.482 110.198 259.12C102.026 246.114 95.2161 232.49 91.8731 217.378ZM659.33 303.339C658.092 295.04 656.854 286.865 655.616 278.566C652.892 259.986 650.044 241.407 647.32 222.828C647.072 221.218 644.596 221.961 644.843 223.448C647.073 238.93 649.425 254.289 651.653 269.772C652.768 277.452 653.883 285.007 654.996 292.687C656.111 300.119 657.596 307.674 657.844 315.23C658.092 322.043 657.101 328.855 653.758 334.8C650.787 340.127 646.453 344.462 641.748 348.426C639.395 350.407 636.919 352.266 634.443 354.247C631.843 356.229 629.119 358.459 625.899 359.449C619.709 361.431 615.87 355.857 611.413 352.761C608.689 350.903 605.717 350.284 602.498 349.788C599.402 349.293 596.183 348.302 595.068 344.958C592.84 337.773 600.269 333.19 605.965 331.456C606.831 331.208 607.203 329.97 606.46 329.351C605.965 328.855 605.346 328.36 604.85 327.741C609.432 325.139 614.137 321.919 616.365 316.964C617.851 313.62 617.727 310.152 617.108 306.684C616.365 302.844 615.251 299.128 614.137 295.288V295.164C614.137 294.916 614.137 294.793 614.013 294.544C612.032 286.989 609.927 279.557 607.946 272.002C605.965 264.818 604.231 257.386 600.64 250.697C597.297 244.132 592.345 237.691 592.468 230.012C592.468 228.402 589.992 228.402 589.992 230.012C589.868 236.577 593.212 242.398 596.307 247.848C597.917 250.821 599.65 253.794 600.888 256.89C602.25 260.235 603.241 263.827 604.231 267.295C606.336 274.851 608.317 282.406 610.298 289.962C610.794 291.696 611.288 293.43 611.66 295.164C609.803 303.587 608.193 312.01 606.955 320.432C606.708 322.042 609.184 322.662 609.432 321.052C610.422 314.115 611.784 307.179 613.146 300.366C613.146 300.614 613.27 300.738 613.27 300.986C614.26 304.454 615.375 308.046 615.127 311.762C614.632 318.946 607.822 322.91 602.25 326.13C601.507 326.502 601.383 327.616 602.002 328.112C602.498 328.484 602.869 328.979 603.364 329.351C598.288 331.209 593.335 334.677 592.468 340.498C592.221 342.48 592.345 344.586 593.211 346.32C588.631 356.719 581.925 366.044 573.524 373.694C571.296 375.676 569.067 377.534 566.714 379.268C565.971 379.887 565.104 380.506 564.362 381.002C564.114 380.506 563.619 380.135 562.876 380.259C546.532 383.851 529.94 379.639 514.587 373.941C510.162 372.336 505.785 370.601 501.462 368.739C500.472 368.368 499.977 369.111 499.977 369.978H499.729C499.977 369.854 500.1 369.606 500.1 369.235C502.824 352.885 505.548 336.535 506.167 320.061C506.539 311.761 506.291 303.587 505.301 295.411C504.311 287.361 502.453 279.434 500.101 271.631C497.871 263.951 495.519 256.271 494.9 248.344C494.28 240.293 495.767 232.365 498.243 224.686C500.719 217.13 503.815 209.822 506.91 202.514C509.882 195.578 513.473 188.765 518.55 183.191C523.13 178.113 528.95 174.397 535.76 173.035C538.36 172.539 541.084 172.168 543.808 171.796C543.808 175.512 547.151 178.113 550.618 179.104C555.075 180.466 559.781 180.59 564.362 179.971C573.896 178.732 582.439 174.521 591.23 171.053C596.183 169.071 601.26 167.337 606.46 166.47C608.07 166.222 607.327 163.745 605.84 163.993C589.125 166.841 574.391 178.98 556.809 177.741C554.456 177.618 552.104 177.122 549.999 176.255C548.018 175.388 545.789 173.654 546.161 171.301C548.513 170.681 550.741 169.938 552.723 168.576C553.9 167.748 554.943 166.746 555.818 165.603C555.942 165.479 556.066 165.231 556.066 165.107C556.686 165.107 557.304 164.736 557.304 163.869C556.93 158.148 556.311 152.445 555.447 146.776C555.695 146.652 555.942 146.528 556.19 146.528C564.238 143.431 570.305 137.114 575.258 130.426C576.248 129.063 574.02 127.824 573.029 129.186C568.819 134.885 563.867 140.211 557.428 143.307C556.438 143.803 555.447 144.174 554.456 144.546C553.961 144.298 553.342 144.546 552.971 145.041C547.771 146.404 542.075 146.156 537.493 143.555C531.303 139.963 528.083 132.903 525.978 126.462C523.378 119.03 522.016 111.227 521.273 103.423C520.778 98.4694 520.53 93.5144 520.406 88.5604C520.902 89.0554 521.892 89.1794 522.388 88.3124C523.873 85.8354 527.34 85.5874 528.95 88.0644C529.94 89.4274 532.045 88.0644 531.179 86.8264C528.455 82.9864 523.007 82.9864 520.406 86.8264C520.283 83.3574 520.283 80.0134 520.283 76.5454C520.283 74.9354 517.806 74.9354 517.806 76.5454C517.93 93.3904 517.93 110.731 523.502 126.957C525.854 133.77 529.074 141.077 535.265 145.165C540.465 148.634 547.027 149.129 553.095 147.766C553.965 153.144 554.585 158.559 554.952 163.993C554.58 163.993 554.209 164.116 553.837 164.488C550.123 169.318 542.941 169.566 537.493 170.434C530.807 171.548 524.988 174.274 519.911 178.732C514.463 183.563 510.501 189.88 507.281 196.321C503.815 203.381 500.843 210.689 498.119 217.997C495.271 225.429 493.043 233.109 492.424 241.036C491.928 248.963 493.414 256.89 495.519 264.446C497.624 272.249 500.224 279.929 501.71 287.856C502.948 294.297 503.567 300.862 503.815 307.426C491.785 309.778 479.546 310.899 467.289 310.771C465.679 310.771 465.679 313.248 467.289 313.248C479.547 313.372 491.805 312.258 503.815 309.904V312.505C503.815 317.831 503.567 323.157 503.195 328.36C497.995 327.864 492.919 327.245 487.719 326.378C482.519 325.511 477.318 324.644 472.118 325.758C462.212 327.864 456.888 337.649 447.602 340.746C443.516 342.109 438.068 341.613 435.344 337.773C434.477 336.411 432.248 337.649 433.114 339.012C434.724 341.489 437.324 342.976 440.173 343.595C440.173 343.595 440.049 343.595 440.049 343.719C432.991 347.435 425.686 341.985 420.238 337.897C419 336.907 417.638 339.136 419 340.127C425.314 344.957 433.363 350.16 441.287 345.948C442.154 345.453 442.03 344.462 441.411 343.966C442.154 344.09 442.896 344.09 443.516 344.09C448.344 343.966 452.678 341.49 456.393 338.64C460.355 335.544 464.069 331.952 468.651 329.722C473.851 327.245 479.671 327.74 485.118 328.607C491.062 329.474 496.881 330.341 502.948 330.961C501.958 341.489 500.472 351.894 498.738 362.422C498.367 364.528 497.995 366.51 497.748 368.615C497.624 369.482 498.243 370.102 498.986 370.225C498.615 370.473 498.491 370.721 498.491 371.216C499.728 391.562 502.084 411.824 505.548 431.91C506.538 437.607 507.653 443.429 508.768 449.127C509.139 450.737 511.492 449.994 511.244 448.507C507.157 428.664 504.181 408.609 502.329 388.434C501.834 382.736 501.339 377.038 501.091 371.34C516.691 377.657 532.664 383.974 549.751 384.222C553.961 384.222 558.171 383.974 562.257 383.107C561.637 383.727 561.143 384.346 560.523 384.965C557.057 389.425 556.313 395.122 557.304 400.572C558.542 407.385 562.504 413.33 566.343 418.904C566.962 419.771 568.324 419.647 568.695 418.656C575.753 398.219 596.431 387.69 613.022 375.799C616.984 394.627 616.489 414.321 611.66 432.901C610.298 438.227 608.441 443.553 606.46 448.631C605.84 450.118 608.317 450.737 608.936 449.251C616.489 430.795 619.585 410.481 617.851 390.539C617.356 384.965 616.489 379.515 615.375 374.065C620.451 370.225 625.156 366.138 629.242 361.431C629.49 361.184 629.614 360.811 629.614 360.441C631.966 359.201 634.071 357.591 636.176 355.981C646.576 348.178 657.473 339.136 660.073 325.759C661.311 318.574 660.444 310.895 659.33 303.339ZM575.258 402.678C571.902 406.65 569.187 411.122 567.21 415.931C564.362 411.596 561.514 407.137 560.276 402.058C558.914 396.856 559.286 390.787 563 386.576C564.857 384.47 567.21 382.86 569.438 381.126C571.652 379.528 573.761 377.791 575.753 375.923C579.839 372.207 583.43 368.12 586.773 363.785C590.09 359.247 592.951 354.393 595.316 349.293C597.421 351.398 600.393 352.018 603.116 352.513C606.336 353.008 608.936 353.752 611.536 355.733C613.766 357.468 615.87 359.697 618.346 361.06C620.576 362.298 623.051 362.794 625.404 362.422C610.422 377.905 589.125 385.956 575.258 402.678Z" fill="#0E4D80"/>
<path d="M431.381 347.807C424.076 350.037 417.266 345.454 411.447 341.49C410.085 340.623 408.847 342.729 410.209 343.72C416.523 348.055 424.076 352.762 432.001 350.285C433.611 349.789 432.867 347.312 431.381 347.807ZM461.222 314.488C462.707 315.108 463.946 313.002 462.46 312.258C454.66 308.79 447.23 313.621 441.163 318.08C437.943 320.433 434.725 322.91 430.886 324.15C429.029 324.769 426.924 324.769 425.191 325.76C423.829 326.627 422.838 328.113 422.961 329.847C423.086 331.457 425.686 331.457 425.438 329.847C425.314 327.989 427.419 327.494 428.905 327.122C430.515 326.75 432.125 326.379 433.61 325.759C436.83 324.397 439.553 322.291 442.277 320.309C447.725 316.594 454.535 311.515 461.222 314.488ZM436.334 334.058C437.324 333.687 438.191 333.068 439.058 332.448C439.925 331.828 441.163 330.962 440.544 329.599C439.924 328.237 438.439 328.609 437.324 328.856C436.706 328.98 436.087 329.228 435.467 329.352C435.22 329.352 434.848 329.475 434.601 329.475H434.353C432.743 329.104 432.124 331.581 433.734 331.953C434.105 332.077 434.601 332.077 435.096 331.953C434.476 332.943 435.096 334.678 436.334 334.058ZM514.34 418.286C509.882 414.074 509.634 407.51 509.387 401.812C509.139 394.008 508.767 386.329 508.52 378.525C508.396 376.915 505.92 376.915 506.044 378.525C506.415 386.7 506.663 394.875 507.034 403.05C507.282 409.12 508.024 415.685 512.606 420.02C513.72 421.134 515.454 419.4 514.339 418.286H514.34ZM516.197 421.506C515.949 419.896 513.473 420.639 513.72 422.126C515.206 431.167 516.816 440.333 518.302 449.376C518.549 450.986 521.026 450.242 520.778 448.756C519.292 439.714 517.806 430.672 516.197 421.506ZM531.055 120.889C533.531 121.88 536.255 121.509 538.608 120.394C540.094 119.65 538.732 117.544 537.37 118.164C536.413 118.656 535.351 118.911 534.274 118.907C533.531 118.907 532.045 118.783 531.426 118.164C530.807 117.544 531.179 116.306 531.302 115.563C531.55 114.448 531.798 113.209 531.922 112.095L534.522 98.7167C534.769 97.1067 532.417 96.4867 532.045 98.0977C530.931 103.92 529.569 109.865 528.578 115.811C528.207 118.041 528.826 120.022 531.055 120.889ZM535.884 128.197C534.398 127.454 533.16 129.683 534.646 130.427C537.617 131.913 540.96 132.408 544.18 131.541C547.523 130.551 550.123 128.197 552.104 125.472C553.094 124.11 550.866 122.871 549.875 124.233C546.408 128.816 541.085 130.798 535.884 128.197ZM539.846 86.9497C544.303 83.6057 550.246 85.2157 552.476 90.2947C553.094 91.7807 555.323 90.5417 554.704 89.0557C551.98 82.8627 543.932 80.7567 538.608 84.8447C537.246 85.7117 538.484 87.9407 539.846 86.9497ZM544.303 100.452C545.665 100.204 546.532 98.3457 546.161 96.2397C545.789 94.1347 544.427 92.6477 542.941 92.8957C541.579 93.1437 540.713 95.0017 541.084 97.1067C541.456 99.2127 542.818 100.699 544.304 100.452H544.303ZM528.702 96.8597C528.331 94.7537 526.969 93.2667 525.483 93.5147C524.121 93.7627 523.254 95.6207 523.626 97.7267C523.997 99.8317 525.359 101.319 526.845 101.071C528.207 100.823 529.074 98.9647 528.702 96.8587V96.8597ZM192.29 222.333C197.366 211.433 202.442 200.657 207.519 189.757C207.766 189.262 207.643 188.642 207.271 188.395C207.395 188.519 207.643 188.519 207.891 188.519C224.729 189.509 241.569 191.367 258.284 193.969C262.865 194.712 267.447 195.579 272.028 196.446C261.999 210.554 251.928 224.633 241.816 238.683C238.845 242.771 235.996 246.858 233.026 250.946C232.901 250.822 232.654 250.698 232.53 250.574C227.453 246.858 221.015 248.84 215.69 251.07C214.205 251.689 214.824 254.166 216.31 253.547C220.396 251.937 225.225 250.079 229.558 251.937C231.292 252.68 232.778 254.042 233.273 255.9C233.52 257.015 233.52 258.13 233.025 259.245C232.406 259.245 231.663 259.616 231.539 260.483C231.539 260.731 231.539 260.979 231.416 261.227C231.292 261.474 231.292 261.722 231.292 261.97C229.806 269.65 223.12 275.347 215.195 275.47C213.585 275.47 213.585 278.072 215.195 277.948C224.482 277.824 232.158 271.136 233.768 262.341C236.368 259.741 236.368 255.901 234.511 252.928C234.635 252.804 234.759 252.804 234.759 252.68C245.159 238.064 255.684 223.448 266.085 208.832C269.056 204.621 272.152 200.409 275.123 196.198C275.99 195.083 274.504 193.968 273.39 194.464C273.266 194.34 273.142 194.34 272.895 194.216C256.063 190.996 239.078 188.64 222.005 187.156C217.177 186.784 212.348 186.413 207.519 186.166C206.281 186.041 206.033 187.528 206.652 188.271C206.157 187.899 205.29 187.899 205.042 188.642C199.966 199.542 194.889 210.319 189.812 221.219C189.442 222.581 191.67 223.819 192.289 222.333H192.29Z" fill="#0E4D80"/>
<path d="M214.205 259.987C218.167 257.138 223.367 256.271 228.073 257.881C229.558 258.377 230.301 255.899 228.692 255.404C223.367 253.67 217.424 254.537 212.967 257.757C211.605 258.748 212.967 260.854 214.205 259.987ZM211.233 265.685C214.663 263.716 218.452 262.452 222.377 261.969C223.987 261.845 223.987 259.244 222.377 259.491C218.043 259.987 213.833 261.349 209.995 263.455C208.509 264.322 209.747 266.428 211.233 265.685ZM208.262 270.887C211.852 270.144 215.567 269.401 219.158 268.657C220.768 268.286 220.024 265.932 218.538 266.18C214.948 266.923 211.233 267.666 207.643 268.41C206.033 268.781 206.652 271.135 208.262 270.887ZM608.689 166.47C624.289 173.406 636.424 187.279 641.5 203.505C642.986 208.088 643.853 212.919 644.1 217.749C644.224 219.359 646.7 219.359 646.577 217.749C645.71 200.037 636.671 183.068 622.68 172.044C618.718 168.947 614.508 166.346 609.927 164.364C608.565 163.621 607.203 165.727 608.689 166.47ZM118.231 18.6492C132.855 7.79021 151.198 5.16921 168.921 3.54621C170.655 3.42221 170.16 0.801206 168.425 0.926206C150.206 2.54821 131.616 5.54321 116.496 16.6522C115.133 17.6502 116.868 19.6472 118.231 18.6492Z" fill="#0E4D80"/>
</svg>
