<svg width="10" height="10" viewBox="0 0 10 10" fill="none" xmlns="http://www.w3.org/2000/svg">
<path d="M6.0599 4.94203L9.28489 1.72453C9.42612 1.58331 9.50546 1.39176 9.50546 1.19203C9.50546 0.992307 9.42612 0.800761 9.28489 0.659534C9.14367 0.518306 8.95212 0.438965 8.7524 0.438965C8.55267 0.438965 8.36112 0.518306 8.2199 0.659534L5.0024 3.88453L1.7849 0.659534C1.64367 0.518306 1.45212 0.438965 1.2524 0.438965C1.05267 0.438965 0.861123 0.518306 0.719896 0.659534C0.578668 0.800761 0.499327 0.992307 0.499327 1.19203C0.499327 1.39176 0.578668 1.58331 0.719896 1.72453L3.9449 4.94203L0.719896 8.15953C0.649599 8.22926 0.593804 8.31221 0.555727 8.4036C0.517651 8.495 0.498047 8.59303 0.498047 8.69203C0.498047 8.79104 0.517651 8.88907 0.555727 8.98047C0.593804 9.07186 0.649599 9.15481 0.719896 9.22453C0.789618 9.29483 0.872569 9.35063 0.963963 9.3887C1.05536 9.42678 1.15339 9.44638 1.2524 9.44638C1.3514 9.44638 1.44943 9.42678 1.54083 9.3887C1.63222 9.35063 1.71517 9.29483 1.7849 9.22453L5.0024 5.99953L8.2199 9.22453C8.28962 9.29483 8.37257 9.35063 8.46396 9.3887C8.55536 9.42678 8.65339 9.44638 8.7524 9.44638C8.8514 9.44638 8.94943 9.42678 9.04083 9.3887C9.13222 9.35063 9.21517 9.29483 9.28489 9.22453C9.35519 9.15481 9.41099 9.07186 9.44906 8.98047C9.48714 8.88907 9.50674 8.79104 9.50674 8.69203C9.50674 8.59303 9.48714 8.495 9.44906 8.4036C9.41099 8.31221 9.35519 8.22926 9.28489 8.15953L6.0599 4.94203Z" fill="#B49F69"/>
</svg>
