<svg width="17" height="14" viewBox="0 0 17 14" fill="none" xmlns="http://www.w3.org/2000/svg">
<path d="M16.3558 6.8028C14.7566 3.08988 11.7483 0.786133 8.50243 0.786133C5.2566 0.786133 2.24827 3.08988 0.6491 6.8028C0.605508 6.90268 0.583008 7.01049 0.583008 7.11947C0.583008 7.22845 0.605508 7.33625 0.6491 7.43613C2.24827 11.149 5.2566 13.4528 8.50243 13.4528C11.7483 13.4528 14.7566 11.149 16.3558 7.43613C16.3994 7.33625 16.4219 7.22845 16.4219 7.11947C16.4219 7.01049 16.3994 6.90268 16.3558 6.8028ZM8.50243 11.8695C5.99285 11.8695 3.61785 10.0565 2.24827 7.11947C3.61785 4.18238 5.99285 2.36947 8.50243 2.36947C11.012 2.36947 13.387 4.18238 14.7566 7.11947C13.387 10.0565 11.012 11.8695 8.50243 11.8695ZM8.50243 3.9528C7.87613 3.9528 7.26388 4.13852 6.74313 4.48648C6.22237 4.83444 5.81649 5.329 5.57682 5.90763C5.33714 6.48627 5.27443 7.12298 5.39661 7.73725C5.5188 8.35152 5.8204 8.91577 6.26326 9.35864C6.70613 9.8015 7.27037 10.1031 7.88465 10.2253C8.49892 10.3475 9.13563 10.2848 9.71426 10.0451C10.2929 9.80541 10.7875 9.39953 11.1354 8.87877C11.4834 8.35802 11.6691 7.74577 11.6691 7.11947C11.6691 6.27961 11.3355 5.47416 10.7416 4.88029C10.1477 4.28643 9.34229 3.9528 8.50243 3.9528ZM8.50243 8.7028C8.18928 8.7028 7.88316 8.60994 7.62278 8.43596C7.3624 8.26198 7.15946 8.0147 7.03962 7.72538C6.91979 7.43606 6.88843 7.11771 6.94952 6.81057C7.01062 6.50344 7.16142 6.22131 7.38285 5.99988C7.60428 5.77845 7.8864 5.62765 8.19354 5.56656C8.50068 5.50546 8.81903 5.53682 9.10835 5.65666C9.39767 5.7765 9.64495 5.97944 9.81893 6.23981C9.99291 6.50019 10.0858 6.80631 10.0858 7.11947C10.0858 7.53939 9.91895 7.94212 9.62202 8.23905C9.32509 8.53598 8.92236 8.7028 8.50243 8.7028Z" fill="white"/>
</svg>
