<svg width="25" height="25" viewBox="0 0 25 25" fill="none" xmlns="http://www.w3.org/2000/svg">
<path d="M22.3574 10.2012C22.2397 9.83923 21.9269 9.57541 21.5503 9.52051L15.8516 8.69238L13.3033 3.52881C13.1261 3.20133 12.7783 3.00284 12.4062 3.01681V19.2959L17.5034 21.9756C17.9924 22.2326 18.5971 22.0445 18.8541 21.5556C18.9564 21.361 18.9917 21.1381 18.9546 20.9214L17.981 15.2456L22.1045 11.2266C22.377 10.9607 22.4751 10.5633 22.3574 10.2012Z" fill="#FCDBBD"/>
<path d="M11.5094 3.52881L8.96108 8.69244L3.26235 9.52063C3.04488 9.55231 2.84389 9.65472 2.69045 9.81201C2.30471 10.2075 2.31264 10.8409 2.70815 11.2266L6.83169 15.2456L5.85806 20.9214C5.82095 21.138 5.85629 21.361 5.95852 21.5555C6.21554 22.0445 6.82028 22.2326 7.30923 21.9756L12.4064 19.2959V3.03418C12.0508 3.03497 11.7033 3.20044 11.5094 3.52881Z" fill="#FFAE63"/>
</svg>
