<svg width="21" height="20" viewBox="0 0 21 20" fill="none" xmlns="http://www.w3.org/2000/svg">
<path d="M15.9689 19.0911C15.8068 19.091 15.6471 19.0516 15.5035 18.9763L10.4064 16.2966L5.30921 18.9763C5.14403 19.0631 4.95786 19.102 4.77175 19.0886C4.58563 19.0751 4.40699 19.0098 4.25602 18.9002C4.10505 18.7905 3.98777 18.6408 3.91744 18.4679C3.84711 18.2951 3.82653 18.106 3.85803 17.9221L4.83167 12.2463L0.708135 8.22734C0.574552 8.09705 0.480073 7.932 0.435375 7.75084C0.390676 7.56967 0.39754 7.37962 0.455191 7.20215C0.512842 7.02468 0.618982 6.86688 0.761615 6.74657C0.904248 6.62626 1.07769 6.54824 1.26233 6.52134L6.96107 5.69321L9.50937 0.529548C9.60148 0.3736 9.73265 0.244361 9.88995 0.154579C10.0472 0.0647983 10.2252 0.0175781 10.4063 0.0175781C10.5875 0.0175781 10.7654 0.0647983 10.9227 0.154579C11.08 0.244361 11.2112 0.3736 11.3033 0.529548L13.8517 5.69312L19.5504 6.52125C19.735 6.54815 19.9085 6.62617 20.0511 6.74648C20.1937 6.86679 20.2999 7.02459 20.3575 7.20206C20.4152 7.37953 20.422 7.56958 20.3773 7.75075C20.3326 7.93191 20.2382 8.09696 20.1046 8.22725L15.9811 12.2462L16.9547 17.922C16.9793 18.0656 16.9723 18.2128 16.9341 18.3533C16.8959 18.4939 16.8274 18.6244 16.7335 18.7357C16.6396 18.8471 16.5225 18.9365 16.3905 18.9979C16.2584 19.0593 16.1145 19.0911 15.9688 19.091L15.9689 19.0911Z" fill="#FFAE63"/>
</svg>
