<svg width="21" height="20" viewBox="0 0 21 20" fill="none" xmlns="http://www.w3.org/2000/svg">
<path d="M15.9689 18.5901L15.9629 18.59C15.8839 18.589 15.8062 18.5694 15.7361 18.5327C15.736 18.5327 15.7359 18.5326 15.7358 18.5326L10.639 15.8531L10.4064 15.7308L10.1737 15.8531L5.07658 18.5328C5.07657 18.5328 5.07655 18.5328 5.07654 18.5328C4.99395 18.5762 4.90086 18.5956 4.8078 18.5889C4.71472 18.5821 4.62539 18.5495 4.54989 18.4947C4.47439 18.4398 4.41574 18.365 4.38057 18.2785C4.34541 18.1921 4.33511 18.0976 4.35084 18.0057C4.35084 18.0056 4.35085 18.0056 4.35086 18.0056L5.32447 12.3299L5.36891 12.0708L5.18065 11.8873L1.05724 7.86842C0.990429 7.80325 0.943174 7.7207 0.920817 7.63009C0.898461 7.53948 0.901894 7.44442 0.930729 7.35565C0.959564 7.26689 1.01265 7.18796 1.08399 7.12779C1.15528 7.06766 1.24196 7.02865 1.33424 7.01516C1.3343 7.01515 1.33437 7.01514 1.33443 7.01514L7.03297 6.18703L7.2931 6.14923L7.40944 5.91351L9.94809 0.769411C9.99544 0.694317 10.0606 0.631934 10.1378 0.587846C10.2196 0.541158 10.3122 0.516602 10.4063 0.516602C10.5005 0.516602 10.5931 0.541157 10.6749 0.587846C10.7521 0.631934 10.8173 0.694319 10.8646 0.769415L13.4033 5.91342L13.5196 6.14914L13.7798 6.18694L19.4783 7.01505C19.4783 7.01505 19.4784 7.01506 19.4784 7.01506C19.4784 7.01507 19.4785 7.01507 19.4785 7.01507C19.5708 7.02856 19.6574 7.06757 19.7287 7.1277C19.8001 7.18787 19.8532 7.2668 19.882 7.35557C19.9108 7.44433 19.9143 7.53939 19.8919 7.63C19.8696 7.72056 19.8223 7.80306 19.7556 7.86821C19.7556 7.86825 19.7555 7.86829 19.7555 7.86833L15.6321 11.8872L15.4438 12.0707L15.4883 12.3298L16.4619 18.0056C16.4619 18.0056 16.4619 18.0056 16.4619 18.0056C16.4742 18.0773 16.4707 18.1509 16.4516 18.2212C16.4325 18.2915 16.3982 18.3567 16.3513 18.4124C16.3043 18.4681 16.2458 18.5128 16.1798 18.5435C16.1137 18.5742 16.0418 18.5901 15.9689 18.5901Z" stroke="#FFAE63"/>
</svg>
