<svg width="13" height="21" viewBox="0 0 13 21" fill="none" xmlns="http://www.w3.org/2000/svg">
<path d="M8.08398 9.75H4.08398C3.55355 9.75 3.04484 9.53929 2.66977 9.16421C2.2947 8.78914 2.08398 8.28043 2.08398 7.75C2.08398 7.21957 2.2947 6.71086 2.66977 6.33579C3.04484 5.96071 3.55355 5.75 4.08398 5.75H9.08398C9.3492 5.75 9.60355 5.85536 9.79109 6.04289C9.97863 6.23043 10.084 6.48478 10.084 6.75C10.084 7.01522 10.1893 7.26957 10.3769 7.45711C10.5644 7.64464 10.8188 7.75 11.084 7.75C11.3492 7.75 11.6036 7.64464 11.7911 7.45711C11.9786 7.26957 12.084 7.01522 12.084 6.75C12.084 5.95435 11.7679 5.19129 11.2053 4.62868C10.6427 4.06607 9.87963 3.75 9.08398 3.75H7.08398V1.75C7.08398 1.48478 6.97863 1.23043 6.79109 1.04289C6.60355 0.855357 6.3492 0.75 6.08398 0.75C5.81877 0.75 5.56441 0.855357 5.37688 1.04289C5.18934 1.23043 5.08398 1.48478 5.08398 1.75V3.75H4.08398C3.02312 3.75 2.0057 4.17143 1.25556 4.92157C0.505412 5.67172 0.0839844 6.68913 0.0839844 7.75C0.0839844 8.81087 0.505412 9.82828 1.25556 10.5784C2.0057 11.3286 3.02312 11.75 4.08398 11.75H8.08398C8.61442 11.75 9.12312 11.9607 9.4982 12.3358C9.87327 12.7109 10.084 13.2196 10.084 13.75C10.084 14.2804 9.87327 14.7891 9.4982 15.1642C9.12312 15.5393 8.61442 15.75 8.08398 15.75H3.08398C2.81877 15.75 2.56441 15.6446 2.37688 15.4571C2.18934 15.2696 2.08398 15.0152 2.08398 14.75C2.08398 14.4848 1.97863 14.2304 1.79109 14.0429C1.60355 13.8554 1.3492 13.75 1.08398 13.75C0.818768 13.75 0.564414 13.8554 0.376878 14.0429C0.189341 14.2304 0.0839844 14.4848 0.0839844 14.75C0.0839844 15.5456 0.400055 16.3087 0.962664 16.8713C1.52527 17.4339 2.28833 17.75 3.08398 17.75H5.08398V19.75C5.08398 20.0152 5.18934 20.2696 5.37688 20.4571C5.56441 20.6446 5.81877 20.75 6.08398 20.75C6.3492 20.75 6.60355 20.6446 6.79109 20.4571C6.97863 20.2696 7.08398 20.0152 7.08398 19.75V17.75H8.08398C9.14485 17.75 10.1623 17.3286 10.9124 16.5784C11.6626 15.8283 12.084 14.8109 12.084 13.75C12.084 12.6891 11.6626 11.6717 10.9124 10.9216C10.1623 10.1714 9.14485 9.75 8.08398 9.75V9.75Z" fill="#2F80ED"/>
</svg>
