<svg width="21" height="19" viewBox="0 0 21 19" fill="none" xmlns="http://www.w3.org/2000/svg">
<path d="M18.2443 2.74997C17.178 1.69467 15.7696 1.05524 14.2733 0.947052C12.777 0.838863 11.2913 1.26904 10.0843 2.15997C8.81192 1.21361 7.22825 0.784481 5.65218 0.959007C4.07611 1.13353 2.6247 1.89875 1.59023 3.10055C0.555767 4.30236 0.0150822 5.85149 0.077061 7.43598C0.13904 9.02048 0.799078 10.5226 1.92426 11.64L7.92426 17.69C8.48676 18.2518 9.24926 18.5673 10.0443 18.5673C10.8393 18.5673 11.6018 18.2518 12.1643 17.69L18.1643 11.64C18.7552 11.0626 19.2262 10.3742 19.5502 9.6142C19.8742 8.85423 20.0448 8.03772 20.0523 7.2116C20.0597 6.38548 19.9038 5.56603 19.5935 4.80035C19.2832 4.03467 18.8247 3.33786 18.2443 2.74997V2.74997ZM16.8343 10.21L10.8343 16.21C10.7413 16.3037 10.6307 16.3781 10.5088 16.4289C10.387 16.4796 10.2563 16.5058 10.1243 16.5058C9.99225 16.5058 9.86154 16.4796 9.73968 16.4289C9.61782 16.3781 9.50722 16.3037 9.41426 16.21L3.41426 10.21C2.63002 9.40831 2.19087 8.33144 2.19087 7.20997C2.19087 6.0885 2.63002 5.01162 3.41426 4.20997C4.21342 3.42096 5.29123 2.97854 6.41426 2.97854C7.53729 2.97854 8.6151 3.42096 9.41426 4.20997C9.50722 4.3037 9.61782 4.37809 9.73968 4.42886C9.86154 4.47963 9.99225 4.50577 10.1243 4.50577C10.2563 4.50577 10.387 4.47963 10.5088 4.42886C10.6307 4.37809 10.7413 4.3037 10.8343 4.20997C11.655 3.55686 12.6875 3.22869 13.7347 3.28806C14.7819 3.34743 15.7707 3.79018 16.5124 4.53187C17.254 5.27356 17.6968 6.2623 17.7562 7.30953C17.8155 8.35676 17.4874 9.3892 16.8343 10.21V10.21Z" fill="#2F80ED"/>
</svg>
