<svg width="20" height="21" viewBox="0 0 20 21" fill="none" xmlns="http://www.w3.org/2000/svg">
<path d="M5.58398 8.75H6.58398C6.8492 8.75 7.10355 8.64464 7.29109 8.45711C7.47863 8.26957 7.58398 8.01522 7.58398 7.75C7.58398 7.48478 7.47863 7.23043 7.29109 7.04289C7.10355 6.85536 6.8492 6.75 6.58398 6.75H5.58398C5.31877 6.75 5.06441 6.85536 4.87688 7.04289C4.68934 7.23043 4.58398 7.48478 4.58398 7.75C4.58398 8.01522 4.68934 8.26957 4.87688 8.45711C5.06441 8.64464 5.31877 8.75 5.58398 8.75ZM9.58398 14.75H5.58398C5.31877 14.75 5.06441 14.8554 4.87688 15.0429C4.68934 15.2304 4.58398 15.4848 4.58398 15.75C4.58398 16.0152 4.68934 16.2696 4.87688 16.4571C5.06441 16.6446 5.31877 16.75 5.58398 16.75H9.58398C9.8492 16.75 10.1036 16.6446 10.2911 16.4571C10.4786 16.2696 10.584 16.0152 10.584 15.75C10.584 15.4848 10.4786 15.2304 10.2911 15.0429C10.1036 14.8554 9.8492 14.75 9.58398 14.75ZM9.58398 10.75H5.58398C5.31877 10.75 5.06441 10.8554 4.87688 11.0429C4.68934 11.2304 4.58398 11.4848 4.58398 11.75C4.58398 12.0152 4.68934 12.2696 4.87688 12.4571C5.06441 12.6446 5.31877 12.75 5.58398 12.75H9.58398C9.8492 12.75 10.1036 12.6446 10.2911 12.4571C10.4786 12.2696 10.584 12.0152 10.584 11.75C10.584 11.4848 10.4786 11.2304 10.2911 11.0429C10.1036 10.8554 9.8492 10.75 9.58398 10.75ZM16.504 8.13C16.5806 7.94789 16.6015 7.74718 16.5641 7.55319C16.5267 7.3592 16.4327 7.18062 16.294 7.04L10.294 1.04C10.2113 0.962216 10.1168 0.898081 10.014 0.85C9.98413 0.84576 9.95383 0.84576 9.92398 0.85L9.64398 0.75H3.58398C2.78833 0.75 2.02527 1.06607 1.46266 1.62868C0.900055 2.19129 0.583984 2.95435 0.583984 3.75V17.75C0.583984 18.5456 0.900055 19.3087 1.46266 19.8713C2.02527 20.4339 2.78833 20.75 3.58398 20.75H9.58398C9.8492 20.75 10.1036 20.6446 10.2911 20.4571C10.4786 20.2696 10.584 20.0152 10.584 19.75C10.584 19.4848 10.4786 19.2304 10.2911 19.0429C10.1036 18.8554 9.8492 18.75 9.58398 18.75H3.58398C3.31877 18.75 3.06441 18.6446 2.87688 18.4571C2.68934 18.2696 2.58398 18.0152 2.58398 17.75V3.75C2.58398 3.48478 2.68934 3.23043 2.87688 3.04289C3.06441 2.85536 3.31877 2.75 3.58398 2.75H8.58398V5.75C8.58398 6.54565 8.90005 7.30871 9.46266 7.87132C10.0253 8.43393 10.7883 8.75 11.584 8.75H15.584C15.7814 8.74901 15.9741 8.68961 16.1378 8.57928C16.3016 8.46895 16.429 8.31262 16.504 8.13V8.13ZM11.584 6.75C11.3188 6.75 11.0644 6.64464 10.8769 6.45711C10.6893 6.26957 10.584 6.01522 10.584 5.75V4.16L13.174 6.75H11.584ZM18.584 10.75H13.584C13.3188 10.75 13.0644 10.8554 12.8769 11.0429C12.6893 11.2304 12.584 11.4848 12.584 11.75V19.75C12.5845 19.9309 12.634 20.1083 12.7273 20.2633C12.8207 20.4182 12.9543 20.545 13.114 20.63C13.2704 20.7103 13.4451 20.7479 13.6207 20.7392C13.7963 20.7304 13.9664 20.6755 14.114 20.58L16.084 19.28L18.084 20.58C18.2334 20.6664 18.4026 20.7127 18.5752 20.7143C18.7477 20.7159 18.9178 20.6729 19.0688 20.5893C19.2198 20.5058 19.3466 20.3846 19.4369 20.2375C19.5271 20.0904 19.5778 19.9225 19.584 19.75V11.75C19.584 11.4848 19.4786 11.2304 19.2911 11.0429C19.1036 10.8554 18.8492 10.75 18.584 10.75ZM17.584 17.87L16.644 17.24C16.4786 17.1282 16.2836 17.0685 16.084 17.0685C15.8844 17.0685 15.6894 17.1282 15.524 17.24L14.584 17.87V12.75H17.584V17.87Z" fill="#2F80ED"/>
</svg>
