<svg width="24" height="25" viewBox="0 0 24 25" fill="none" xmlns="http://www.w3.org/2000/svg">
<g clip-path="url(#clip0_519_84)">
<path d="M23.864 9.50059L19.9592 3.22676C19.8165 2.99768 19.5658 2.8584 19.2961 2.8584H4.76999C4.5003 2.8584 4.24961 2.99768 4.10692 3.22676L0.202052 9.50059C0.0146033 9.80179 0.0533905 10.1913 0.296803 10.4492L11.4647 22.2937C11.6123 22.4502 11.818 22.539 12.033 22.539C12.2481 22.539 12.4537 22.4502 12.6013 22.2935L23.7692 10.4492C24.0124 10.191 24.0515 9.80179 23.864 9.50059ZM12.0331 20.6196L1.84601 9.81533L5.20393 4.42035H18.8624L22.2201 9.81533L12.0331 20.6196Z" fill="#2F80ED"/>
<path d="M23.2011 9.13184H0.865234V10.6938H23.2011V9.13184Z" fill="#2F80ED"/>
<path d="M8.10595 9.83997L9.31023 3.7934L7.7782 3.48828L6.52864 9.76211C6.49924 9.9105 6.51329 10.0641 6.56953 10.2047L11.3075 22.0495L12.7577 21.4695L8.10595 9.83997Z" fill="#2F80ED"/>
<path d="M17.5856 9.69806L16.284 3.60645L14.7567 3.93289L16.0085 9.79099L11.3076 21.4666L12.7563 22.0497L17.5466 10.1531C17.6043 10.0086 17.6181 9.85008 17.5856 9.69806Z" fill="#2F80ED"/>
</g>
<defs>
<clipPath id="clip0_519_84">
<rect width="23.898" height="23.898" fill="white" transform="translate(0.0839844 0.75)"/>
</clipPath>
</defs>
</svg>
