<svg width="21" height="18" viewBox="0 0 21 18" fill="none" xmlns="http://www.w3.org/2000/svg">
<path d="M17.4043 3.88283H16.1243L15.8043 2.88283C15.5968 2.29607 15.212 1.78834 14.7032 1.43C14.1944 1.07165 13.5867 0.880436 12.9643 0.882835H7.8443C7.21584 0.884011 6.60363 1.08252 6.09406 1.45034C5.5845 1.81816 5.20331 2.33672 5.0043 2.93284L4.6843 3.93284H3.4043C2.60865 3.93284 1.84559 4.24891 1.28298 4.81151C0.720367 5.37412 0.404297 6.13719 0.404297 6.93284V14.9328C0.404297 15.7285 0.720367 16.4915 1.28298 17.0542C1.84559 17.6168 2.60865 17.9328 3.4043 17.9328H17.4043C18.1999 17.9328 18.963 17.6168 19.5256 17.0542C20.0882 16.4915 20.4043 15.7285 20.4043 14.9328V6.93284C20.4109 6.53468 20.3382 6.13919 20.1904 5.76942C20.0427 5.39966 19.8227 5.06301 19.5435 4.77912C19.2643 4.49522 18.9313 4.26976 18.564 4.11588C18.1967 3.962 17.8025 3.88278 17.4043 3.88283ZM18.4043 14.8828C18.4043 15.1481 18.2989 15.4024 18.1114 15.5899C17.9239 15.7775 17.6695 15.8828 17.4043 15.8828H3.4043C3.13908 15.8828 2.88473 15.7775 2.69719 15.5899C2.50965 15.4024 2.4043 15.1481 2.4043 14.8828V6.88283C2.4043 6.61762 2.50965 6.36326 2.69719 6.17573C2.88473 5.98819 3.13908 5.88283 3.4043 5.88283H5.4043C5.62236 5.89422 5.83816 5.83391 6.01873 5.71112C6.1993 5.58833 6.33472 5.40982 6.4043 5.20284L6.9443 3.56283C7.01138 3.36421 7.13919 3.1917 7.30967 3.06968C7.48014 2.94765 7.68465 2.88229 7.8943 2.88283H13.0143C13.2239 2.88229 13.4285 2.94765 13.5989 3.06968C13.7694 3.1917 13.8972 3.36421 13.9643 3.56283L14.5043 5.20284C14.5685 5.39358 14.6887 5.56052 14.8493 5.68185C15.0098 5.80317 15.2033 5.87321 15.4043 5.88283H17.4043C17.6695 5.88283 17.9239 5.98819 18.1114 6.17573C18.2989 6.36326 18.4043 6.61762 18.4043 6.88283V14.8828ZM10.4043 5.88283C9.61317 5.88283 8.83981 6.11743 8.18202 6.55696C7.52422 6.99648 7.01153 7.6212 6.70878 8.3521C6.40603 9.083 6.32681 9.88727 6.48116 10.6632C6.6355 11.4391 7.01646 12.1519 7.57587 12.7113C8.13528 13.2707 8.84801 13.6516 9.62394 13.806C10.3999 13.9603 11.2041 13.8811 11.935 13.5784C12.6659 13.2756 13.2906 12.7629 13.7302 12.1051C14.1697 11.4473 14.4043 10.674 14.4043 9.88283C14.4043 8.82197 13.9829 7.80455 13.2327 7.05441C12.4826 6.30426 11.4652 5.88283 10.4043 5.88283ZM10.4043 11.8828C10.0087 11.8828 9.62206 11.7655 9.29316 11.5458C8.96426 11.326 8.70791 11.0137 8.55654 10.6482C8.40516 10.2827 8.36556 9.88062 8.44273 9.49265C8.5199 9.10469 8.71038 8.74833 8.99008 8.46862C9.26979 8.18892 9.62615 7.99843 10.0141 7.92126C10.4021 7.84409 10.8042 7.8837 11.1697 8.03508C11.5351 8.18645 11.8475 8.4428 12.0672 8.77169C12.287 9.10059 12.4043 9.48727 12.4043 9.88283C12.4043 10.4133 12.1936 10.922 11.8185 11.297C11.4434 11.6721 10.9347 11.8828 10.4043 11.8828Z" fill="white"/>
</svg>
