<svg width="22" height="21" viewBox="0 0 22 21" fill="none" xmlns="http://www.w3.org/2000/svg">
<path d="M9.94018 4.39269C10.2909 4.33892 10.6453 4.31217 11.0002 4.31269C14.1802 4.31269 17.1702 6.60268 18.9102 10.3127C18.6441 10.8773 18.3435 11.425 18.0102 11.9527C17.9044 12.1165 17.8487 12.3077 17.8502 12.5027C17.8524 12.7209 17.926 12.9324 18.0596 13.105C18.1933 13.2775 18.3798 13.4015 18.5905 13.4582C18.8013 13.5149 19.0248 13.501 19.227 13.4188C19.4291 13.3365 19.5988 13.1904 19.7102 13.0027C20.1761 12.2706 20.5808 11.5013 20.9202 10.7027C20.9738 10.5779 21.0015 10.4435 21.0015 10.3077C21.0015 10.1719 20.9738 10.0375 20.9202 9.91269C18.9002 5.22269 15.1002 2.31269 11.0002 2.31269C10.5309 2.31032 10.0623 2.35048 9.60019 2.43269C9.46886 2.45501 9.34322 2.50298 9.23044 2.57386C9.11766 2.64474 9.01994 2.73714 8.94287 2.84579C8.8658 2.95443 8.81088 3.07719 8.78125 3.20706C8.75162 3.33693 8.74786 3.47136 8.77018 3.60269C8.79251 3.73401 8.84048 3.85965 8.91136 3.97243C8.98224 4.08521 9.07464 4.18293 9.18329 4.26C9.29193 4.33707 9.41469 4.39199 9.54456 4.42162C9.67443 4.45125 9.80886 4.45501 9.94018 4.43269V4.39269ZM2.71019 0.602685C2.61695 0.509447 2.50626 0.435486 2.38443 0.385026C2.26261 0.334565 2.13204 0.308594 2.00019 0.308594C1.86833 0.308594 1.73776 0.334565 1.61594 0.385026C1.49411 0.435486 1.38342 0.509447 1.29019 0.602685C1.10188 0.790989 0.996094 1.04638 0.996094 1.31269C0.996094 1.57899 1.10188 1.83438 1.29019 2.02269L4.39019 5.11269C2.97576 6.47421 1.85004 8.10667 1.08019 9.91269C1.02512 10.0389 0.996701 10.175 0.996701 10.3127C0.996701 10.4503 1.02512 10.5865 1.08019 10.7127C3.10019 15.4027 6.90019 18.3127 11.0002 18.3127C12.7973 18.3003 14.552 17.7652 16.0502 16.7727L19.2902 20.0227C19.3831 20.1164 19.4937 20.1908 19.6156 20.2416C19.7375 20.2923 19.8682 20.3185 20.0002 20.3185C20.1322 20.3185 20.2629 20.2923 20.3848 20.2416C20.5066 20.1908 20.6172 20.1164 20.7102 20.0227C20.8039 19.9297 20.8783 19.8191 20.9291 19.6973C20.9798 19.5754 21.006 19.4447 21.006 19.3127C21.006 19.1807 20.9798 19.05 20.9291 18.9281C20.8783 18.8062 20.8039 18.6956 20.7102 18.6027L2.71019 0.602685ZM9.07018 9.79268L11.5202 12.2427C11.3512 12.2912 11.176 12.3147 11.0002 12.3127C10.4698 12.3127 9.96104 12.102 9.58597 11.7269C9.2109 11.3518 9.00019 10.8431 9.00019 10.3127C8.99814 10.1369 9.02172 9.9617 9.07018 9.79268ZM11.0002 16.3127C7.82018 16.3127 4.83019 14.0227 3.10019 10.3127C3.74627 8.88643 4.66326 7.59926 5.80019 6.52269L7.57019 8.31269C7.15443 9.07148 6.99592 9.94463 7.11844 10.8011C7.24096 11.6577 7.6379 12.4513 8.24971 13.0632C8.86152 13.675 9.65522 14.0719 10.5117 14.1944C11.3682 14.3169 12.2414 14.1584 13.0002 13.7427L14.5902 15.3127C13.5013 15.9536 12.2636 16.2983 11.0002 16.3127Z" fill="#8E8E8E"/>
</svg>
