<svg width="14" height="17" viewBox="0 0 14 17" fill="none" xmlns="http://www.w3.org/2000/svg">
<path d="M7.00016 0.320312C5.23205 0.320313 3.53636 1.02269 2.28612 2.27293C1.03588 3.52318 0.333496 5.21887 0.333496 6.98698C0.333496 11.487 6.2085 16.5703 6.4585 16.787C6.60944 16.9161 6.80154 16.987 7.00016 16.987C7.19879 16.987 7.39089 16.9161 7.54183 16.787C7.8335 16.5703 13.6668 11.487 13.6668 6.98698C13.6668 5.21887 12.9645 3.52318 11.7142 2.27293C10.464 1.02269 8.76827 0.320313 7.00016 0.320312V0.320312ZM7.00016 15.0286C5.22516 13.362 2.00016 9.77031 2.00016 6.98698C2.00016 5.6609 2.52695 4.38913 3.46463 3.45145C4.40231 2.51376 5.67408 1.98698 7.00016 1.98698C8.32625 1.98698 9.59802 2.51376 10.5357 3.45145C11.4734 4.38913 12.0002 5.6609 12.0002 6.98698C12.0002 9.77031 8.77516 13.3703 7.00016 15.0286ZM7.00016 3.65365C6.34089 3.65365 5.69643 3.84914 5.14826 4.21541C4.6001 4.58169 4.17286 5.10228 3.92056 5.71137C3.66827 6.32045 3.60226 6.99068 3.73088 7.63728C3.8595 8.28388 4.17696 8.87783 4.64314 9.344C5.10931 9.81018 5.70326 10.1276 6.34986 10.2563C6.99646 10.3849 7.66669 10.3189 8.27577 10.0666C8.88486 9.81429 9.40546 9.38704 9.77173 8.83888C10.138 8.29072 10.3335 7.64625 10.3335 6.98698C10.3335 6.10292 9.98231 5.25508 9.35719 4.62996C8.73206 4.00484 7.88422 3.65365 7.00016 3.65365ZM7.00016 8.65365C6.67053 8.65365 6.34829 8.5559 6.07421 8.37276C5.80013 8.18963 5.58651 7.92933 5.46036 7.62478C5.33422 7.32024 5.30121 6.98513 5.36552 6.66183C5.42983 6.33853 5.58856 6.04156 5.82165 5.80847C6.05474 5.57538 6.35171 5.41665 6.67501 5.35234C6.99831 5.28803 7.33342 5.32103 7.63797 5.44718C7.94251 5.57333 8.20281 5.78695 8.38595 6.06103C8.56908 6.33511 8.66683 6.65734 8.66683 6.98698C8.66683 7.42901 8.49123 7.85293 8.17867 8.16549C7.86611 8.47805 7.44219 8.65365 7.00016 8.65365Z" fill="black"/>
</svg>
