<svg width="124" height="41" viewBox="0 0 124 41" fill="none" xmlns="http://www.w3.org/2000/svg">
<g clip-path="url(#clip0_149_9918)">
<path d="M116 0.47168H8C3.58172 0.47168 0 4.0534 0 8.47168V32.4717C0 36.89 3.58172 40.4717 8 40.4717H116C120.418 40.4717 124 36.89 124 32.4717V8.47168C124 4.0534 120.418 0.47168 116 0.47168Z" fill="white"/>
<path d="M55.4102 15.1909V17.5219H54.3302V16.1809H49.4972V17.5219H48.4082L48.4172 15.1909H48.6872C49.0832 15.1729 49.3592 14.8819 49.5152 14.3179C49.6772 13.7479 49.7762 12.9349 49.8122 11.8789L49.8842 9.88086H54.5012V15.1909H55.4102ZM50.8382 11.9869C50.8082 12.8029 50.7422 13.4839 50.6402 14.0299C50.5382 14.5699 50.3762 14.9569 50.1542 15.1909H53.3492V10.8709H50.8832L50.8382 11.9869ZM58.24 16.2439C57.754 16.2439 57.316 16.1389 56.926 15.9289C56.536 15.7189 56.23 15.4279 56.008 15.0559C55.792 14.6779 55.684 14.2519 55.684 13.7779C55.684 13.3039 55.792 12.8809 56.008 12.5089C56.23 12.1369 56.536 11.8459 56.926 11.6359C57.316 11.4259 57.754 11.3209 58.24 11.3209C58.732 11.3209 59.173 11.4259 59.563 11.6359C59.953 11.8459 60.256 12.1369 60.472 12.5089C60.694 12.8809 60.805 13.3039 60.805 13.7779C60.805 14.2519 60.694 14.6779 60.472 15.0559C60.256 15.4279 59.953 15.7189 59.563 15.9289C59.173 16.1389 58.732 16.2439 58.24 16.2439ZM58.24 15.2809C58.654 15.2809 58.996 15.1429 59.266 14.8669C59.536 14.5909 59.671 14.2279 59.671 13.7779C59.671 13.3279 59.536 12.9649 59.266 12.6889C58.996 12.4129 58.654 12.2749 58.24 12.2749C57.826 12.2749 57.484 12.4129 57.214 12.6889C56.95 12.9649 56.818 13.3279 56.818 13.7779C56.818 14.2279 56.95 14.5909 57.214 14.8669C57.484 15.1429 57.826 15.2809 58.24 15.2809ZM63.9033 16.2439C63.4053 16.2439 62.9583 16.1389 62.5623 15.9289C62.1663 15.7189 61.8573 15.4279 61.6353 15.0559C61.4133 14.6779 61.3023 14.2519 61.3023 13.7779C61.3023 13.3039 61.4133 12.8809 61.6353 12.5089C61.8573 12.1369 62.1633 11.8459 62.5533 11.6359C62.9493 11.4259 63.3993 11.3209 63.9033 11.3209C64.3773 11.3209 64.7913 11.4169 65.1453 11.6089C65.5053 11.8009 65.7753 12.0769 65.9553 12.4369L65.0913 12.9409C64.9533 12.7189 64.7793 12.5539 64.5693 12.4459C64.3653 12.3319 64.1403 12.2749 63.8943 12.2749C63.4743 12.2749 63.1263 12.4129 62.8503 12.6889C62.5743 12.9589 62.4363 13.3219 62.4363 13.7779C62.4363 14.2339 62.5713 14.5999 62.8413 14.8759C63.1173 15.1459 63.4683 15.2809 63.8943 15.2809C64.1403 15.2809 64.3653 15.2269 64.5693 15.1189C64.7793 15.0049 64.9533 14.8369 65.0913 14.6149L65.9553 15.1189C65.7693 15.4789 65.4963 15.7579 65.1363 15.9559C64.7823 16.1479 64.3713 16.2439 63.9033 16.2439ZM70.5089 12.3289H68.8259V16.1809H67.7009V12.3289H66.0089V11.3749H70.5089V12.3289ZM75.6961 11.3749L73.4461 16.5679C73.2361 17.0899 72.9811 17.4559 72.6811 17.6659C72.3811 17.8819 72.0181 17.9899 71.5921 17.9899C71.3521 17.9899 71.1151 17.9509 70.8811 17.8729C70.6471 17.7949 70.4551 17.6869 70.3051 17.5489L70.7551 16.7209C70.8631 16.8229 70.9891 16.9039 71.1331 16.9639C71.2831 17.0239 71.4331 17.0539 71.5831 17.0539C71.7811 17.0539 71.9431 17.0029 72.0691 16.9009C72.2011 16.7989 72.3211 16.6279 72.4291 16.3879L72.5101 16.1989L70.4131 11.3749H71.5831L73.0951 14.9299L74.6161 11.3749H75.6961ZM80.8855 11.3749V16.1809H79.7695V12.3289H77.4025V16.1809H76.2775V11.3749H80.8855ZM82.2034 11.3749H83.3284V13.3279H85.7494V11.3749H86.8744V16.1809H85.7494V14.2819H83.3284V16.1809H82.2034V11.3749ZM90.3241 16.2439C89.8381 16.2439 89.4001 16.1389 89.0101 15.9289C88.6201 15.7189 88.3141 15.4279 88.0921 15.0559C87.8761 14.6779 87.7681 14.2519 87.7681 13.7779C87.7681 13.3039 87.8761 12.8809 88.0921 12.5089C88.3141 12.1369 88.6201 11.8459 89.0101 11.6359C89.4001 11.4259 89.8381 11.3209 90.3241 11.3209C90.8161 11.3209 91.2571 11.4259 91.6471 11.6359C92.0371 11.8459 92.3401 12.1369 92.5561 12.5089C92.7781 12.8809 92.8891 13.3039 92.8891 13.7779C92.8891 14.2519 92.7781 14.6779 92.5561 15.0559C92.3401 15.4279 92.0371 15.7189 91.6471 15.9289C91.2571 16.1389 90.8161 16.2439 90.3241 16.2439ZM90.3241 15.2809C90.7381 15.2809 91.0801 15.1429 91.3501 14.8669C91.6201 14.5909 91.7551 14.2279 91.7551 13.7779C91.7551 13.3279 91.6201 12.9649 91.3501 12.6889C91.0801 12.4129 90.7381 12.2749 90.3241 12.2749C89.9101 12.2749 89.5681 12.4129 89.2981 12.6889C89.0341 12.9649 88.9021 13.3279 88.9021 13.7779C88.9021 14.2279 89.0341 14.5909 89.2981 14.8669C89.5681 15.1429 89.9101 15.2809 90.3241 15.2809ZM101.218 15.2269V17.2519H100.165V16.1809H96.4568V17.2519H95.4128V15.2269H95.6378C95.9438 15.2149 96.1508 15.0199 96.2588 14.6419C96.3728 14.2579 96.4478 13.7179 96.4838 13.0219L96.5468 11.3749H100.507V15.2269H101.218ZM97.5098 13.1029C97.4858 13.6549 97.4408 14.1049 97.3748 14.4529C97.3088 14.8009 97.1888 15.0589 97.0148 15.2269H99.3818V12.3289H97.5368L97.5098 13.1029ZM106.378 11.3749V16.1809H105.253V12.3289H103.453L103.408 13.2829C103.378 13.9189 103.318 14.4529 103.228 14.8849C103.144 15.3109 102.997 15.6499 102.787 15.9019C102.583 16.1479 102.301 16.2709 101.941 16.2709C101.773 16.2709 101.566 16.2379 101.32 16.1719L101.374 15.2269C101.458 15.2449 101.53 15.2539 101.59 15.2539C101.818 15.2539 101.989 15.1639 102.103 14.9839C102.217 14.7979 102.289 14.5789 102.319 14.3269C102.355 14.0689 102.385 13.7029 102.409 13.2289L102.49 11.3749H106.378ZM111.752 11.3749V16.1809H110.744V14.7319H109.475L108.494 16.1809H107.288L108.422 14.5789C108.074 14.4589 107.807 14.2759 107.621 14.0299C107.441 13.7779 107.351 13.4689 107.351 13.1029C107.351 12.5509 107.546 12.1249 107.936 11.8249C108.326 11.5249 108.863 11.3749 109.547 11.3749H111.752ZM109.583 12.3199C108.857 12.3199 108.494 12.5929 108.494 13.1389C108.494 13.6789 108.845 13.9489 109.547 13.9489H110.744V12.3199H109.583Z" fill="black"/>
<path d="M54.8567 28.6795H50.6567L49.8287 30.6235H48.2207L52.0007 22.2235H53.5367L57.3287 30.6235H55.6967L54.8567 28.6795ZM54.3407 27.4555L52.7567 23.7835L51.1847 27.4555H54.3407ZM66.361 22.2235V30.6235H65.077L60.445 24.9355V30.6235H58.897V22.2235H60.181L64.813 27.9115V22.2235H66.361ZM69.1118 22.2235H72.7838C73.6798 22.2235 74.4758 22.3995 75.1718 22.7515C75.8678 23.0955 76.4078 23.5875 76.7918 24.2275C77.1758 24.8595 77.3678 25.5915 77.3678 26.4235C77.3678 27.2555 77.1758 27.9915 76.7918 28.6315C76.4078 29.2635 75.8678 29.7555 75.1718 30.1075C74.4758 30.4515 73.6798 30.6235 72.7838 30.6235H69.1118V22.2235ZM72.7118 29.3035C73.3278 29.3035 73.8678 29.1875 74.3318 28.9555C74.8038 28.7155 75.1638 28.3795 75.4118 27.9475C75.6678 27.5075 75.7958 26.9995 75.7958 26.4235C75.7958 25.8475 75.6678 25.3435 75.4118 24.9115C75.1638 24.4715 74.8038 24.1355 74.3318 23.9035C73.8678 23.6635 73.3278 23.5435 72.7118 23.5435H70.6718V29.3035H72.7118ZM85.0219 30.6235L83.3059 28.1635C83.2339 28.1715 83.1259 28.1755 82.9819 28.1755H81.0859V30.6235H79.5259V22.2235H82.9819C83.7099 22.2235 84.3419 22.3435 84.8779 22.5835C85.4219 22.8235 85.8379 23.1675 86.1259 23.6155C86.4139 24.0635 86.5579 24.5955 86.5579 25.2115C86.5579 25.8435 86.4019 26.3875 86.0899 26.8435C85.7859 27.2995 85.3459 27.6395 84.7699 27.8635L86.7019 30.6235H85.0219ZM84.9859 25.2115C84.9859 24.6755 84.8099 24.2635 84.4579 23.9755C84.1059 23.6875 83.5899 23.5435 82.9099 23.5435H81.0859V26.8915H82.9099C83.5899 26.8915 84.1059 26.7475 84.4579 26.4595C84.8099 26.1635 84.9859 25.7475 84.9859 25.2115ZM92.7272 30.7435C91.8712 30.7435 91.0992 30.5595 90.4112 30.1915C89.7232 29.8155 89.1832 29.2995 88.7912 28.6435C88.3992 27.9795 88.2032 27.2395 88.2032 26.4235C88.2032 25.6075 88.3992 24.8715 88.7912 24.2155C89.1832 23.5515 89.7232 23.0355 90.4112 22.6675C91.0992 22.2915 91.8712 22.1035 92.7272 22.1035C93.5832 22.1035 94.3552 22.2915 95.0432 22.6675C95.7312 23.0355 96.2712 23.5475 96.6632 24.2035C97.0552 24.8595 97.2512 25.5995 97.2512 26.4235C97.2512 27.2475 97.0552 27.9875 96.6632 28.6435C96.2712 29.2995 95.7312 29.8155 95.0432 30.1915C94.3552 30.5595 93.5832 30.7435 92.7272 30.7435ZM92.7272 29.3755C93.2872 29.3755 93.7912 29.2515 94.2392 29.0035C94.6872 28.7475 95.0392 28.3955 95.2952 27.9475C95.5512 27.4915 95.6792 26.9835 95.6792 26.4235C95.6792 25.8635 95.5512 25.3595 95.2952 24.9115C95.0392 24.4555 94.6872 24.1035 94.2392 23.8555C93.7912 23.5995 93.2872 23.4715 92.7272 23.4715C92.1672 23.4715 91.6632 23.5995 91.2152 23.8555C90.7672 24.1035 90.4152 24.4555 90.1592 24.9115C89.9032 25.3595 89.7752 25.8635 89.7752 26.4235C89.7752 26.9835 89.9032 27.4915 90.1592 27.9475C90.4152 28.3955 90.7672 28.7475 91.2152 29.0035C91.6632 29.2515 92.1672 29.3755 92.7272 29.3755ZM99.4048 22.2235H100.965V30.6235H99.4048V22.2235ZM103.737 22.2235H107.409C108.305 22.2235 109.101 22.3995 109.797 22.7515C110.493 23.0955 111.033 23.5875 111.417 24.2275C111.801 24.8595 111.993 25.5915 111.993 26.4235C111.993 27.2555 111.801 27.9915 111.417 28.6315C111.033 29.2635 110.493 29.7555 109.797 30.1075C109.101 30.4515 108.305 30.6235 107.409 30.6235H103.737V22.2235ZM107.337 29.3035C107.953 29.3035 108.493 29.1875 108.957 28.9555C109.429 28.7155 109.789 28.3795 110.037 27.9475C110.293 27.5075 110.421 26.9995 110.421 26.4235C110.421 25.8475 110.293 25.3435 110.037 24.9115C109.789 24.4715 109.429 24.1355 108.957 23.9035C108.493 23.6635 107.953 23.5435 107.337 23.5435H105.297V29.3035H107.337Z" fill="black"/>
<g clip-path="url(#clip1_149_9918)">
<mask id="mask0_149_9918" style="mask-type:alpha" maskUnits="userSpaceOnUse" x="9" y="15" width="31" height="31">
<circle cx="24.7564" cy="30.563" r="14.9712" fill="#83D578"/>
</mask>
<g mask="url(#mask0_149_9918)">
<rect width="34.9141" height="18.0096" transform="matrix(1 0 0 -1 8.79102 29.2373)" fill="#83D578"/>
</g>
<path fill-rule="evenodd" clip-rule="evenodd" d="M30.6452 18.5711C30.1745 18.2821 30.0272 17.6663 30.3162 17.1957L33.1367 12.602C33.4257 12.1313 34.0415 11.9841 34.5121 12.273C34.9828 12.562 35.13 13.1778 34.8411 13.6485L32.0206 18.2421C31.7316 18.7128 31.1158 18.8601 30.6452 18.5711Z" fill="#83D578"/>
<path fill-rule="evenodd" clip-rule="evenodd" d="M18.8177 18.5711C19.2884 18.2821 19.4357 17.6663 19.1467 17.1957L16.3262 12.602C16.0372 12.1313 15.4214 11.9841 14.9508 12.273C14.4801 12.562 14.3328 13.1778 14.6218 13.6485L17.4423 18.2421C17.7313 18.7128 18.3471 18.8601 18.8177 18.5711Z" fill="#83D578"/>
<circle cx="31.6809" cy="22.8928" r="1.42894" fill="white"/>
<circle cx="17.8332" cy="22.8928" r="1.42894" fill="white"/>
</g>
</g>
<defs>
<clipPath id="clip0_149_9918">
<rect width="124" height="40" fill="white" transform="translate(0 0.47168)"/>
</clipPath>
<clipPath id="clip1_149_9918">
<rect width="32" height="18" fill="white" transform="translate(9 11.4717)"/>
</clipPath>
</defs>
</svg>
