<svg width="121" height="41" viewBox="0 0 121 41" fill="none" xmlns="http://www.w3.org/2000/svg">
<path d="M7.77 40.4717L6.84 40.4617C6.19663 40.4534 5.55481 40.3966 4.92 40.2917C4.32729 40.1853 3.75411 39.9898 3.22 39.7117C2.68941 39.4376 2.20653 39.0797 1.79 38.6517C1.36309 38.2252 1.00845 37.7321 0.74 37.1917C0.470844 36.6459 0.285431 36.0627 0.19 35.4617C0.084731 34.8135 0.027907 34.1583 0.02 33.5017L0 32.5417V8.38168L0.01 7.45168C0.02 6.79168 0.08 6.14168 0.19 5.49168C0.28505 4.88738 0.470458 4.30082 0.74 3.75168C1.00632 3.21251 1.35745 2.71957 1.78 2.29168C2.21 1.86168 2.69 1.50168 3.22 1.22168C3.75432 0.946181 4.3276 0.753962 4.92 0.65168C5.55476 0.546381 6.19661 0.48955 6.84 0.48168L7.77 0.47168H113.22L114.16 0.48168C114.8 0.49168 115.44 0.55168 116.06 0.65168C116.659 0.756819 117.239 0.952382 117.78 1.23168C118.85 1.79572 119.717 2.68033 120.26 3.76168C120.53 4.30168 120.71 4.88168 120.81 5.48168C120.971 6.43938 121.032 7.41138 120.99 8.38168L121 9.53168V32.5417L120.99 33.5117C120.977 34.1618 120.916 34.8102 120.81 35.4517C120.715 36.056 120.53 36.6427 120.26 37.1917C119.991 37.7264 119.64 38.2156 119.22 38.6417C118.801 39.0739 118.315 39.4353 117.78 39.7117C117.243 39.991 116.666 40.1866 116.07 40.2917C115.43 40.3917 114.79 40.4517 114.15 40.4617H113.23L112.12 40.4717H7.77Z" fill="white"/>
<path d="M24.4994 20.3915C24.5119 19.534 24.7413 18.6937 25.1662 17.9488C25.5911 17.2039 26.1977 16.5787 26.9294 16.1315C26.4638 15.4716 25.8508 14.9292 25.1392 14.5473C24.4275 14.1655 23.6367 13.9546 22.8294 13.9315C21.1094 13.7415 19.4394 14.9515 18.5594 14.9515C17.6594 14.9515 16.3194 13.9415 14.8594 13.9715C13.9175 14.0016 12.9995 14.2753 12.1951 14.7661C11.3906 15.2568 10.7271 15.9478 10.2694 16.7715C8.28938 20.2015 9.76937 25.2515 11.6694 28.0215C12.6194 29.3815 13.7294 30.9015 15.1894 30.8515C16.6094 30.7915 17.1394 29.9515 18.8594 29.9515C20.5594 29.9515 21.0594 30.8515 22.5394 30.8115C24.0694 30.7915 25.0294 29.4515 25.9394 28.0815C26.6232 27.1137 27.1497 26.0438 27.4994 24.9115C26.6098 24.5373 25.8505 23.9087 25.3168 23.1045C24.7831 22.3004 24.4987 21.3566 24.4994 20.3915ZM21.6994 12.0915C22.5314 11.0958 22.9438 9.81562 22.8494 8.52148C21.5779 8.654 20.4031 9.26104 19.5594 10.2215C19.1469 10.6913 18.8313 11.2378 18.6305 11.8299C18.4297 12.4219 18.3478 13.0477 18.3894 13.6715C19.0255 13.6783 19.6549 13.5406 20.2301 13.2686C20.8052 12.9966 21.311 12.5975 21.7094 12.1015L21.6994 12.0915ZM42.4994 27.4115H37.6394L36.4694 30.8515H34.4194L39.0194 18.1115H41.1494L45.7494 30.8515H43.6494L42.4894 27.4115H42.4994ZM38.1394 25.8215H41.9894L40.0894 20.2315H40.0394L38.1394 25.8215ZM55.6794 26.2115C55.6794 29.0915 54.1294 30.9515 51.7994 30.9515C51.2087 30.9813 50.6216 30.8442 50.1052 30.556C49.5888 30.2677 49.164 29.8399 48.8794 29.3215H48.8394V33.9215H46.9394V21.5715H48.7794V23.1215H48.8094C49.1075 22.6045 49.5402 22.1781 50.0614 21.8875C50.5826 21.597 51.1729 21.4532 51.7694 21.4715C54.1294 21.4715 55.6694 23.3315 55.6694 26.2115H55.6794ZM53.7194 26.2115C53.7194 24.3315 52.7494 23.0915 51.2694 23.0915C49.8094 23.0915 48.8294 24.3515 48.8294 26.2115C48.8294 28.0815 49.8094 29.3315 51.2694 29.3315C52.7494 29.3315 53.7194 28.1015 53.7194 26.2115ZM65.8994 26.2115C65.8994 29.0915 64.3494 30.9515 62.0194 30.9515C61.4287 30.9813 60.8416 30.8442 60.3252 30.556C59.8088 30.2677 59.384 29.8399 59.0994 29.3215H59.0594V33.9215H57.1594V21.5715H58.9994V23.1215H59.0294C59.3283 22.603 59.7626 22.1755 60.2857 21.8849C60.8089 21.5942 61.4012 21.4513 61.9994 21.4715C64.3594 21.4715 65.8994 23.3315 65.8994 26.2115ZM63.9394 26.2115C63.9394 24.3315 62.9694 23.0915 61.4894 23.0915C60.0294 23.0915 59.0494 24.3515 59.0494 26.2115C59.0494 28.0815 60.0294 29.3315 61.4894 29.3315C62.9694 29.3315 63.9394 28.1015 63.9394 26.2115ZM72.6494 27.3115C72.7894 28.5715 74.0194 29.3915 75.6994 29.3915C77.2994 29.3915 78.4594 28.5615 78.4594 27.4315C78.4594 26.4315 77.7594 25.8515 76.1094 25.4415L74.4594 25.0415C72.1194 24.4815 71.0394 23.3815 71.0394 21.6115C71.0394 19.4115 72.9494 17.9115 75.6694 17.9115C78.3694 17.9115 80.2094 19.4115 80.2694 21.6115H78.3494C78.2294 20.3415 77.1794 19.5715 75.6494 19.5715C74.1094 19.5715 73.0494 20.3515 73.0494 21.4715C73.0494 22.3715 73.7294 22.9115 75.3694 23.3115L76.7694 23.6615C79.3894 24.2715 80.4694 25.3215 80.4694 27.1915C80.4694 29.5715 78.5694 31.0615 75.5594 31.0615C72.7294 31.0615 70.8294 29.6115 70.6994 27.3015H72.6494V27.3115ZM84.5994 19.3715V21.5715H86.3594V23.0715H84.5994V28.1915C84.5994 28.9915 84.9494 29.3615 85.7294 29.3615C85.9294 29.3615 86.1494 29.3415 86.3494 29.3115V30.8115C86.0036 30.8801 85.6519 30.9136 85.2994 30.9115C83.4194 30.9115 82.6794 30.2015 82.6794 28.4015V23.0715H81.3294V21.5715H82.6794V19.3715H84.5994ZM87.3894 26.2115C87.3894 23.2915 89.1094 21.4515 91.7894 21.4515C94.4894 21.4515 96.1894 23.2915 96.1894 26.2115C96.1894 29.1415 94.4894 30.9715 91.7894 30.9715C89.0894 30.9715 87.3894 29.1415 87.3894 26.2115ZM94.2494 26.2115C94.2494 24.2115 93.3394 23.0215 91.7894 23.0215C90.2494 23.0215 89.3294 24.2215 89.3294 26.2115C89.3294 28.2215 90.2494 29.3915 91.7894 29.3915C93.3394 29.3915 94.2494 28.2215 94.2494 26.2115ZM97.7694 21.5715H99.5794V23.1415H99.6294C99.7529 22.6495 100.042 22.2149 100.448 21.9108C100.854 21.6067 101.352 21.4516 101.859 21.4715C102.079 21.4715 102.299 21.4915 102.519 21.5415V23.3215C102.241 23.2382 101.95 23.2011 101.659 23.2115C101.383 23.1997 101.107 23.2479 100.851 23.3528C100.594 23.4576 100.364 23.6167 100.175 23.819C99.9857 24.0213 99.8426 24.2621 99.7554 24.5249C99.6682 24.7877 99.6388 25.0663 99.6694 25.3415V30.8515H97.7694V21.5715ZM111.299 28.1215C111.049 29.8115 109.399 30.9715 107.299 30.9715C104.599 30.9715 102.929 29.1615 102.929 26.2515C102.929 23.3415 104.609 21.4515 107.229 21.4515C109.799 21.4515 111.409 23.2115 111.409 26.0315V26.6815H104.849V26.8015C104.819 27.1433 104.862 27.4877 104.976 27.8116C105.089 28.1355 105.27 28.4317 105.506 28.6804C105.743 28.9292 106.029 29.1248 106.347 29.2542C106.665 29.3837 107.006 29.4441 107.349 29.4315C107.798 29.4733 108.249 29.3694 108.634 29.1353C109.02 28.9012 109.32 28.5492 109.489 28.1315H111.299V28.1215ZM104.859 25.3515H109.499C109.517 25.0445 109.472 24.7371 109.365 24.4486C109.259 24.1601 109.094 23.8968 108.88 23.6751C108.667 23.4535 108.41 23.2784 108.126 23.1607C107.842 23.0431 107.537 22.9854 107.229 22.9915C106.918 22.9888 106.61 23.048 106.322 23.1655C106.034 23.2831 105.772 23.4566 105.551 23.6762C105.331 23.8957 105.156 24.1569 105.037 24.4445C104.919 24.732 104.858 25.0403 104.859 25.3515Z" fill="black"/>
<path d="M36.7794 11.1119H37.5994C37.7402 11.13 37.8833 11.1187 38.0196 11.0789C38.1559 11.0391 38.2825 10.9715 38.3914 10.8804C38.5003 10.7893 38.5893 10.6767 38.6526 10.5496C38.7159 10.4225 38.7523 10.2837 38.7594 10.1419C38.7594 9.58187 38.3294 9.21187 37.6094 9.21187C37.4653 9.19231 37.3188 9.20177 37.1784 9.23969C37.0381 9.27762 36.9067 9.34324 36.7921 9.43269C36.6775 9.52215 36.5819 9.63363 36.511 9.76057C36.4402 9.88752 36.3954 10.0274 36.3794 10.1719H35.4794C35.4937 9.90843 35.5623 9.65078 35.6806 9.415C35.799 9.17922 35.9647 8.97036 36.1674 8.80146C36.37 8.63256 36.6054 8.50725 36.8586 8.43333C37.1119 8.35942 37.3777 8.3385 37.6394 8.37187C38.8394 8.37187 39.6894 9.05187 39.6894 10.0219C39.6931 10.3457 39.5861 10.661 39.386 10.9157C39.186 11.1703 38.9049 11.3489 38.5894 11.4219V11.5019C38.9634 11.5226 39.3144 11.6892 39.5668 11.966C39.8193 12.2427 39.953 12.6075 39.9394 12.9819C39.9121 13.2523 39.8311 13.5145 39.7011 13.7531C39.5711 13.9918 39.3947 14.2021 39.1823 14.3716C38.9699 14.5412 38.7258 14.6666 38.4643 14.7404C38.2027 14.8143 37.9291 14.8352 37.6594 14.8019C37.3887 14.8396 37.1132 14.8222 36.8493 14.7508C36.5855 14.6795 36.3388 14.5555 36.124 14.3865C35.9093 14.2175 35.7308 14.0069 35.5994 13.7672C35.468 13.5276 35.3864 13.2638 35.3594 12.9919H36.2694C36.3294 13.5719 36.8694 13.9519 37.6594 13.9519C38.4594 13.9519 38.9594 13.5219 38.9594 12.9219C38.9594 12.3219 38.4794 11.9519 37.6294 11.9519H36.7794V11.1119ZM40.9794 13.3419C40.9794 12.5119 41.5994 12.0419 42.6994 11.9619L43.9494 11.8919V11.4919C43.9494 11.0019 43.6294 10.7319 42.9994 10.7319C42.4994 10.7319 42.1394 10.9219 42.0394 11.2419H41.1594C41.2594 10.4419 41.9994 9.94187 43.0494 9.94187C44.1994 9.94187 44.8494 10.5219 44.8494 11.4919V14.6519H43.9794V14.0019H43.9094C43.7624 14.2344 43.5562 14.4237 43.3119 14.5502C43.0677 14.6768 42.7941 14.736 42.5194 14.7219C42.3258 14.7413 42.1303 14.7202 41.9453 14.6599C41.7603 14.5996 41.5899 14.5014 41.445 14.3715C41.3001 14.2417 41.1839 14.083 41.1037 13.9058C41.0235 13.7285 40.9812 13.5364 40.9794 13.3419ZM43.9494 12.9419V12.5619L42.8194 12.6319C42.1894 12.6819 41.8994 12.8919 41.8994 13.3019C41.8994 13.7119 42.2594 13.9619 42.7494 13.9619C42.895 13.977 43.0421 13.9626 43.182 13.9196C43.322 13.8766 43.4518 13.8059 43.5638 13.7116C43.6758 13.6174 43.7676 13.5015 43.8339 13.371C43.9001 13.2404 43.9394 13.0979 43.9494 12.9519V12.9419ZM47.2794 10.8019V14.6519H46.3594V10.0319H49.4094V10.8019H47.2794ZM54.9294 12.3419C54.9294 13.8019 54.1894 14.7219 53.0294 14.7219C52.7422 14.7443 52.4547 14.6837 52.2011 14.5471C51.9476 14.4106 51.7387 14.2039 51.5994 13.9519H51.5294V16.1819H50.6194V10.0319H51.4894V10.7919H51.5594C51.6998 10.5315 51.9096 10.3151 52.1656 10.1669C52.4216 10.0186 52.7137 9.94415 53.0094 9.95187C54.1894 9.95187 54.9294 10.8719 54.9294 12.3419ZM53.9894 12.3419C53.9894 11.3619 53.5294 10.7719 52.7594 10.7719C51.9894 10.7719 51.5094 11.3719 51.5094 12.3419C51.5094 13.3019 51.9894 13.9119 52.7494 13.9119C53.5294 13.9119 53.9894 13.3119 53.9894 12.3419ZM56.1394 16.3019V15.5219L56.4394 15.5319C56.6337 15.5476 56.827 15.491 56.982 15.3728C57.1371 15.2547 57.243 15.0834 57.2794 14.8919L57.3394 14.6619L55.6694 10.0319H56.6694L57.8194 13.7019H57.8994L59.0494 10.0319H60.0194L58.2894 14.8319C57.8994 15.9619 57.4594 16.3319 56.5194 16.3319C56.4394 16.3319 56.2194 16.3219 56.1394 16.3019ZM60.7294 13.3419H61.6294C61.7294 13.7419 62.0994 13.9619 62.6294 13.9619C63.2394 13.9619 63.6194 13.6919 63.6194 13.2719C63.6194 12.8319 63.2794 12.6219 62.6394 12.6219H61.9394V11.9119H62.6294C63.1794 11.9119 63.4594 11.7019 63.4594 11.3119C63.4594 10.9719 63.1894 10.7119 62.6294 10.7119C62.1194 10.7119 61.7394 10.9319 61.6794 11.2919H60.8094C60.876 10.8736 61.1039 10.498 61.4441 10.2457C61.7843 9.99336 62.2097 9.8843 62.6294 9.94187C63.7294 9.94187 64.3494 10.4419 64.3494 11.2219C64.353 11.4383 64.2826 11.6494 64.1498 11.8203C64.0171 11.9913 63.8299 12.1118 63.6194 12.1619V12.2319C64.1394 12.3019 64.5294 12.7519 64.5194 13.2719C64.5194 14.1519 63.7794 14.7319 62.6394 14.7319C61.6294 14.7319 60.8094 14.2719 60.7294 13.3319V13.3419ZM65.8294 14.6419V10.0419H66.7394V13.2219H66.8094L68.9394 10.0419H69.8394V14.6619H68.9394V11.4619H68.8794L66.7394 14.6619L65.8294 14.6419ZM74.8294 10.8019H73.3694V14.6519H72.4594V10.8019H70.9994V10.0319H74.8194L74.8294 10.8019ZM79.7294 13.4019C79.6054 13.8239 79.3374 14.1891 78.972 14.434C78.6066 14.6788 78.1668 14.7878 77.7294 14.7419C77.4249 14.7491 77.1225 14.6901 76.8431 14.5689C76.5637 14.4476 76.3141 14.267 76.1114 14.0397C75.9088 13.8123 75.758 13.5436 75.6696 13.2521C75.5812 12.9607 75.5572 12.6535 75.5994 12.3519C75.5593 12.0496 75.5846 11.7422 75.6735 11.4505C75.7624 11.1589 75.9129 10.8897 76.1149 10.6612C76.3168 10.4327 76.5655 10.2503 76.844 10.1262C77.1225 10.0021 77.4245 9.93922 77.7294 9.94187C79.0094 9.94187 79.7894 10.8219 79.7894 12.2719V12.5919H76.5294V12.6419C76.5154 12.8111 76.537 12.9814 76.5927 13.1419C76.6484 13.3023 76.7369 13.4494 76.8527 13.5737C76.9685 13.6979 77.1089 13.7966 77.2651 13.8635C77.4212 13.9303 77.5896 13.9638 77.7594 13.9619C78.1994 14.0119 78.6394 13.7919 78.8594 13.4019H79.7294ZM76.5294 11.9119H78.8594C78.8721 11.7562 78.8518 11.5995 78.7999 11.4522C78.7479 11.3048 78.6654 11.1701 78.5578 11.0568C78.4502 10.9436 78.3199 10.8543 78.1754 10.7948C78.0309 10.7354 77.8755 10.7071 77.7194 10.7119C77.561 10.7092 77.4038 10.7383 77.257 10.7977C77.1102 10.857 76.9768 10.9453 76.8648 11.0573C76.7528 11.1693 76.6646 11.3026 76.6052 11.4495C76.5459 11.5963 76.5167 11.7535 76.5194 11.9119H76.5294ZM83.5994 10.0319H85.6794C86.5794 10.0319 87.1094 10.4919 87.1094 11.2019C87.1104 11.4296 87.0336 11.6509 86.8918 11.8291C86.75 12.0073 86.5516 12.1318 86.3294 12.1819V12.2519C86.8894 12.2919 87.3294 12.7519 87.3194 13.3219C87.3194 14.1219 86.7194 14.6519 85.6994 14.6519H83.5994V10.0319ZM84.4994 10.7319V11.9319H85.3994C85.9494 11.9319 86.2194 11.7119 86.2194 11.3319C86.2194 10.9619 85.9894 10.7319 85.4994 10.7319H84.4994ZM84.4994 12.5919V13.9519H85.5794C86.1194 13.9519 86.4094 13.7119 86.4094 13.2719C86.4094 12.8119 86.0794 12.5919 85.4694 12.5919H84.4994Z" fill="black"/>
</svg>
