<svg width="7" height="12" viewBox="0 0 7 12" fill="none" xmlns="http://www.w3.org/2000/svg">
<path d="M6.3297 5.46695L2.0897 1.22695C1.99674 1.13322 1.88613 1.05883 1.76428 1.00806C1.64242 0.95729 1.51171 0.931152 1.3797 0.931152C1.24769 0.931152 1.11698 0.95729 0.995122 1.00806C0.873263 1.05883 0.762662 1.13322 0.669699 1.22695C0.483448 1.41431 0.378906 1.66776 0.378906 1.93195C0.378906 2.19614 0.483448 2.44959 0.669699 2.63695L4.2097 6.17695L0.669699 9.71695C0.483448 9.90431 0.378906 10.1578 0.378906 10.422C0.378906 10.6861 0.483448 10.9396 0.669699 11.127C0.763139 11.2196 0.873955 11.293 0.995792 11.3427C1.11763 11.3925 1.24809 11.4177 1.3797 11.417C1.51131 11.4177 1.64177 11.3925 1.76361 11.3427C1.88544 11.293 1.99626 11.2196 2.0897 11.127L6.3297 6.88695C6.42343 6.79399 6.49782 6.68339 6.54859 6.56153C6.59936 6.43967 6.6255 6.30896 6.6255 6.17695C6.6255 6.04494 6.59936 5.91423 6.54859 5.79237C6.49782 5.67051 6.42343 5.55991 6.3297 5.46695Z" fill="black"/>
</svg>
