<svg width="8" height="5" viewBox="0 0 8 5" fill="none" xmlns="http://www.w3.org/2000/svg">
<path d="M7.33346 0.767104C7.20855 0.642937 7.03959 0.573242 6.86346 0.573242C6.68734 0.573242 6.51837 0.642937 6.39346 0.767104L4.00013 3.1271L1.64013 0.767104C1.51522 0.642937 1.34625 0.573242 1.17013 0.573242C0.994005 0.573242 0.825037 0.642937 0.700129 0.767104C0.637643 0.829079 0.588047 0.902813 0.554201 0.984053C0.520355 1.06529 0.50293 1.15243 0.50293 1.24044C0.50293 1.32845 0.520355 1.41558 0.554201 1.49682C0.588047 1.57806 0.637643 1.6518 0.700129 1.71377L3.52679 4.54044C3.58877 4.60292 3.6625 4.65252 3.74374 4.68636C3.82498 4.72021 3.91212 4.73764 4.00013 4.73764C4.08814 4.73764 4.17527 4.72021 4.25651 4.68636C4.33775 4.65252 4.41149 4.60292 4.47346 4.54044L7.33346 1.71377C7.39595 1.6518 7.44554 1.57806 7.47939 1.49682C7.51323 1.41558 7.53066 1.32845 7.53066 1.24044C7.53066 1.15243 7.51323 1.06529 7.47939 0.984053C7.44554 0.902813 7.39595 0.829079 7.33346 0.767104Z" fill="black"/>
</svg>
