<svg width="13" height="16" viewBox="0 0 13 16" fill="none" xmlns="http://www.w3.org/2000/svg">
<path d="M12.5655 5.91247C12.5031 5.78879 12.4078 5.68477 12.29 5.61196C12.1721 5.53915 12.0365 5.50039 11.898 5.49997H8.14797V0.999971C8.15602 0.835484 8.1097 0.67292 8.01617 0.537371C7.92265 0.401823 7.7871 0.300827 7.63047 0.249971C7.47989 0.200429 7.31748 0.199872 7.16656 0.248381C7.01565 0.29689 6.88398 0.39197 6.79047 0.519971L0.790467 8.76997C0.715292 8.87862 0.670151 9.0052 0.659615 9.1369C0.649079 9.2686 0.673521 9.40075 0.730467 9.51997C0.782909 9.65628 0.874009 9.77432 0.992585 9.85959C1.11116 9.94485 1.25205 9.99365 1.39797 9.99997H5.14797V14.5C5.14808 14.6581 5.19819 14.8122 5.29114 14.9402C5.38408 15.0681 5.5151 15.1634 5.66547 15.2125C5.74082 15.2358 5.81909 15.2485 5.89797 15.25C6.01631 15.2503 6.13304 15.2226 6.23862 15.1691C6.34421 15.1157 6.43565 15.038 6.50547 14.9425L12.5055 6.69247C12.5863 6.58057 12.6346 6.44854 12.6452 6.31091C12.6558 6.17329 12.6282 6.03542 12.5655 5.91247V5.91247ZM6.64797 12.19V9.24997C6.64797 9.05106 6.56895 8.86029 6.4283 8.71964C6.28764 8.57899 6.09688 8.49997 5.89797 8.49997H2.89797L6.64797 3.30997V6.24997C6.64797 6.44888 6.72699 6.63965 6.86764 6.7803C7.00829 6.92095 7.19906 6.99997 7.39797 6.99997H10.398L6.64797 12.19Z" fill="#EB5757"/>
</svg>
