<svg width="20" height="16" viewBox="0 0 20 16" fill="none" xmlns="http://www.w3.org/2000/svg">
<path d="M5 10.5859H8C8.26522 10.5859 8.51957 10.4806 8.70711 10.293C8.89464 10.1055 9 9.85115 9 9.58594C9 9.32072 8.89464 9.06637 8.70711 8.87883C8.51957 8.69129 8.26522 8.58594 8 8.58594H5C4.73478 8.58594 4.48043 8.69129 4.29289 8.87883C4.10536 9.06637 4 9.32072 4 9.58594C4 9.85115 4.10536 10.1055 4.29289 10.293C4.48043 10.4806 4.73478 10.5859 5 10.5859ZM17 0.585938H3C2.20435 0.585938 1.44129 0.902008 0.87868 1.46462C0.316071 2.02723 0 2.79029 0 3.58594V12.5859C0 13.3816 0.316071 14.1446 0.87868 14.7073C1.44129 15.2699 2.20435 15.5859 3 15.5859H17C17.7956 15.5859 18.5587 15.2699 19.1213 14.7073C19.6839 14.1446 20 13.3816 20 12.5859V3.58594C20 2.79029 19.6839 2.02723 19.1213 1.46462C18.5587 0.902008 17.7956 0.585938 17 0.585938ZM18 12.5859C18 12.8512 17.8946 13.1055 17.7071 13.293C17.5196 13.4806 17.2652 13.5859 17 13.5859H3C2.73478 13.5859 2.48043 13.4806 2.29289 13.293C2.10536 13.1055 2 12.8512 2 12.5859V6.58594H18V12.5859ZM18 4.58594H2V3.58594C2 3.32072 2.10536 3.06637 2.29289 2.87883C2.48043 2.69129 2.73478 2.58594 3 2.58594H17C17.2652 2.58594 17.5196 2.69129 17.7071 2.87883C17.8946 3.06637 18 3.32072 18 3.58594V4.58594Z" fill="black"/>
</svg>
