<svg width="39" height="40" viewBox="0 0 39 40" fill="none" xmlns="http://www.w3.org/2000/svg">
<rect y="0.594727" width="39" height="39" rx="9.67778" fill="white"/>
<path d="M30.9309 19.4559C30.9309 21.351 30.7035 22.9618 30.2487 24.2883C29.8128 25.6149 29.159 26.6951 28.2873 27.5289C27.4345 28.3627 26.3827 28.9786 25.132 29.3766C23.8812 29.7556 22.4505 29.9451 20.8397 29.9451H10.521V10.0469H19.3899C20.2806 10.0469 21.1808 10.0848 22.0904 10.1606C23.019 10.2364 23.9097 10.388 24.7624 10.6154C25.6152 10.8428 26.4112 11.165 27.1502 11.5819C27.9083 11.9988 28.5621 12.5484 29.1116 13.2306C29.6802 13.9128 30.1255 14.7561 30.4477 15.7605C30.7698 16.7459 30.9309 17.9304 30.9309 19.3138V19.4559ZM13.3067 27.4436H19.8732C21.5977 27.4436 22.9906 27.2636 24.0518 26.9035C25.113 26.5435 25.9279 26.0318 26.4964 25.3685C27.0839 24.6863 27.4724 23.8714 27.6619 22.9239C27.8704 21.9574 27.9746 20.8772 27.9746 19.6833C27.9746 18.4326 27.823 17.3618 27.5198 16.4712C27.2166 15.5805 26.7238 14.8509 26.0416 14.2824C25.3783 13.6949 24.5066 13.2685 23.4264 13.0032C22.3652 12.7189 21.0671 12.5673 19.5321 12.5484H13.3067V27.4436Z" fill="#1A1A1A"/>
</svg>
