<svg width="17" height="17" viewBox="0 0 17 17" fill="none" xmlns="http://www.w3.org/2000/svg">
<g clip-path="url(#clip0_501_903)">
<path d="M15.9226 6.51241L13.308 2.31159C13.2125 2.1582 13.0446 2.06494 12.864 2.06494H3.13764C2.95707 2.06494 2.78921 2.1582 2.69367 2.31159L0.0790553 6.51241C-0.046456 6.71408 -0.020485 6.97485 0.142499 7.14759L7.6203 15.0784C7.71912 15.1832 7.85682 15.2426 8.0008 15.2426C8.14479 15.2426 8.28249 15.1832 8.38131 15.0782L15.8591 7.14759C16.0219 6.97467 16.0481 6.71408 15.9226 6.51241ZM8.00083 13.9575L1.17981 6.72315L3.4282 3.11079H12.5736L14.8218 6.72315L8.00083 13.9575Z" fill="black"/>
<path d="M15.4786 6.26562H0.522949V7.31147H15.4786V6.26562Z" fill="black"/>
<path d="M5.37133 6.7383L6.17769 2.68965L5.15187 2.48535L4.3152 6.68617C4.29551 6.78552 4.30492 6.88837 4.34258 6.98251L7.515 14.9135L8.48606 14.5252L5.37133 6.7383Z" fill="black"/>
<path d="M11.7197 6.64424L10.8482 2.56543L9.82551 2.78401L10.6637 6.70646L7.51611 14.5242L8.48614 14.9146L11.6936 6.94892C11.7322 6.85219 11.7415 6.74603 11.7197 6.64424Z" fill="black"/>
</g>
<defs>
<clipPath id="clip0_501_903">
<rect width="16.0016" height="16.0016" fill="white" transform="translate(0 0.652832)"/>
</clipPath>
</defs>
</svg>
