<svg width="28" height="29" viewBox="0 0 28 29" fill="none" xmlns="http://www.w3.org/2000/svg">
<rect y="0.75" width="28" height="28" rx="14" fill="white"/>
<path d="M18 11.4169H17.7667C17.9188 11.1054 17.9986 10.7635 18 10.4169C18.002 9.95241 17.865 9.49798 17.6065 9.11207C17.3481 8.72617 16.9801 8.42644 16.5498 8.25148C16.1196 8.07652 15.6468 8.03432 15.1924 8.13033C14.738 8.22634 14.3227 8.45615 14 8.79019C13.6773 8.45615 13.262 8.22634 12.8076 8.13033C12.3532 8.03432 11.8804 8.07652 11.4502 8.25148C11.0199 8.42644 10.6519 8.72617 10.3935 9.11207C10.135 9.49798 9.99798 9.95241 10 10.4169C10.0014 10.7635 10.0812 11.1054 10.2333 11.4169H10C9.46957 11.4169 8.96086 11.6276 8.58579 12.0026C8.21071 12.3777 8 12.8864 8 13.4169V14.7502C8 14.927 8.07024 15.0966 8.19526 15.2216C8.32029 15.3466 8.48986 15.4169 8.66667 15.4169H9.33333V19.4169C9.33333 19.9473 9.54405 20.456 9.91912 20.8311C10.2942 21.2061 10.8029 21.4169 11.3333 21.4169H16.6667C17.1971 21.4169 17.7058 21.2061 18.0809 20.8311C18.456 20.456 18.6667 19.9473 18.6667 19.4169V15.4169H19.3333C19.5101 15.4169 19.6797 15.3466 19.8047 15.2216C19.9298 15.0966 20 14.927 20 14.7502V13.4169C20 12.8864 19.7893 12.3777 19.4142 12.0026C19.0391 11.6276 18.5304 11.4169 18 11.4169ZM13.3333 20.0835H11.3333C11.1565 20.0835 10.987 20.0133 10.8619 19.8883C10.7369 19.7632 10.6667 19.5937 10.6667 19.4169V15.4169H13.3333V20.0835ZM13.3333 14.0835H9.33333V13.4169C9.33333 13.24 9.40357 13.0705 9.5286 12.9455C9.65362 12.8204 9.82319 12.7502 10 12.7502H13.3333V14.0835ZM13.3333 11.4169H12.3333C12.1356 11.4169 11.9422 11.3582 11.7778 11.2483C11.6133 11.1384 11.4851 10.9823 11.4095 10.7995C11.3338 10.6168 11.314 10.4157 11.3525 10.2218C11.3911 10.0278 11.4864 9.8496 11.6262 9.70975C11.7661 9.5699 11.9443 9.47465 12.1382 9.43607C12.3322 9.39748 12.5333 9.41729 12.716 9.49297C12.8987 9.56866 13.0549 9.69684 13.1648 9.86128C13.2747 10.0257 13.3333 10.2191 13.3333 10.4169V11.4169ZM14.6667 10.4169C14.6667 10.2191 14.7253 10.0257 14.8352 9.86128C14.9451 9.69684 15.1013 9.56866 15.284 9.49297C15.4667 9.41729 15.6678 9.39748 15.8618 9.43607C16.0557 9.47465 16.2339 9.5699 16.3738 9.70975C16.5136 9.8496 16.6089 10.0278 16.6475 10.2218C16.686 10.4157 16.6662 10.6168 16.5905 10.7995C16.5149 10.9823 16.3867 11.1384 16.2222 11.2483C16.0578 11.3582 15.8644 11.4169 15.6667 11.4169H14.6667V10.4169ZM17.3333 19.4169C17.3333 19.5937 17.2631 19.7632 17.1381 19.8883C17.013 20.0133 16.8435 20.0835 16.6667 20.0835H14.6667V15.4169H17.3333V19.4169ZM18.6667 14.0835H14.6667V12.7502H18C18.1768 12.7502 18.3464 12.8204 18.4714 12.9455C18.5964 13.0705 18.6667 13.24 18.6667 13.4169V14.0835Z" fill="#99AEC0"/>
</svg>
