<svg width="19" height="21" viewBox="0 0 19 21" fill="none" xmlns="http://www.w3.org/2000/svg">
<path d="M17.5001 6.17676L11.5001 0.916764C10.9501 0.424809 10.238 0.152832 9.50009 0.152832C8.76216 0.152832 8.05012 0.424809 7.50009 0.916764L1.50009 6.17676C1.18246 6.46084 0.928995 6.80932 0.756567 7.19901C0.584139 7.5887 0.496707 8.01065 0.500095 8.43676V17.1768C0.500095 17.9724 0.816165 18.7355 1.37877 19.2981C1.94138 19.8607 2.70445 20.1768 3.50009 20.1768H15.5001C16.2957 20.1768 17.0588 19.8607 17.6214 19.2981C18.184 18.7355 18.5001 17.9724 18.5001 17.1768V8.42676C18.5021 8.00233 18.4139 7.5823 18.2416 7.19445C18.0692 6.80659 17.8165 6.45972 17.5001 6.17676ZM11.5001 18.1768H7.50009V13.1768C7.50009 12.9115 7.60545 12.6572 7.79299 12.4697C7.98052 12.2821 8.23488 12.1768 8.50009 12.1768H10.5001C10.7653 12.1768 11.0197 12.2821 11.2072 12.4697C11.3947 12.6572 11.5001 12.9115 11.5001 13.1768V18.1768ZM16.5001 17.1768C16.5001 17.442 16.3947 17.6963 16.2072 17.8839C16.0197 18.0714 15.7653 18.1768 15.5001 18.1768H13.5001V13.1768C13.5001 12.3811 13.184 11.6181 12.6214 11.0554C12.0588 10.4928 11.2957 10.1768 10.5001 10.1768H8.50009C7.70444 10.1768 6.94138 10.4928 6.37877 11.0554C5.81616 11.6181 5.50009 12.3811 5.50009 13.1768V18.1768H3.50009C3.23488 18.1768 2.98052 18.0714 2.79299 17.8839C2.60545 17.6963 2.50009 17.442 2.50009 17.1768V8.42676C2.50027 8.28478 2.53069 8.14446 2.58931 8.01514C2.64794 7.88583 2.73343 7.77047 2.8401 7.67676L8.84009 2.42676C9.02258 2.26644 9.25719 2.17803 9.50009 2.17803C9.743 2.17803 9.97761 2.26644 10.1601 2.42676L16.1601 7.67676C16.2668 7.77047 16.3523 7.88583 16.4109 8.01514C16.4695 8.14446 16.4999 8.28478 16.5001 8.42676V17.1768Z" fill="#9A8550"/>
</svg>
