<svg width="21" height="21" viewBox="0 0 21 21" fill="none" xmlns="http://www.w3.org/2000/svg">
<path d="M10.5 9.82617C10.2348 9.82617 9.98043 9.93153 9.7929 10.1191C9.60536 10.3066 9.5 10.561 9.5 10.8262V14.8262C9.5 15.0914 9.60536 15.3457 9.7929 15.5333C9.98043 15.7208 10.2348 15.8262 10.5 15.8262C10.7652 15.8262 11.0196 15.7208 11.2071 15.5333C11.3946 15.3457 11.5 15.0914 11.5 14.8262V10.8262C11.5 10.561 11.3946 10.3066 11.2071 10.1191C11.0196 9.93153 10.7652 9.82617 10.5 9.82617ZM10.88 5.90617C10.6365 5.80615 10.3635 5.80615 10.12 5.90617C9.99725 5.95377 9.88511 6.02513 9.79 6.11617C9.70167 6.21337 9.63065 6.32499 9.58 6.44617C9.52402 6.56485 9.49662 6.695 9.5 6.82617C9.49924 6.95778 9.52447 7.08824 9.57423 7.21008C9.624 7.33192 9.69732 7.44273 9.79 7.53617C9.88721 7.6245 9.99882 7.69553 10.12 7.74617C10.2715 7.80841 10.436 7.83249 10.599 7.81628C10.7619 7.80008 10.9184 7.74409 11.0547 7.65324C11.191 7.56239 11.3029 7.43946 11.3805 7.29524C11.4582 7.15103 11.4992 6.98995 11.5 6.82617C11.4963 6.5614 11.3927 6.30781 11.21 6.11617C11.1149 6.02513 11.0028 5.95377 10.88 5.90617ZM10.5 0.826172C8.52219 0.826172 6.58879 1.41266 4.9443 2.51148C3.29981 3.61029 2.01809 5.17208 1.26121 6.99934C0.504333 8.8266 0.306299 10.8373 0.692152 12.7771C1.078 14.7169 2.03041 16.4987 3.42894 17.8972C4.82746 19.2958 6.60929 20.2482 8.5491 20.634C10.4889 21.0199 12.4996 20.8218 14.3268 20.065C16.1541 19.3081 17.7159 18.0264 18.8147 16.3819C19.9135 14.7374 20.5 12.804 20.5 10.8262C20.5 9.51295 20.2413 8.21259 19.7388 6.99934C19.2363 5.78608 18.4997 4.68369 17.5711 3.7551C16.6425 2.82652 15.5401 2.08992 14.3268 1.58738C13.1136 1.08483 11.8132 0.826172 10.5 0.826172ZM10.5 18.8262C8.91775 18.8262 7.37104 18.357 6.05544 17.4779C4.73985 16.5989 3.71447 15.3494 3.10897 13.8876C2.50347 12.4258 2.34504 10.8173 2.65372 9.26545C2.9624 7.7136 3.72433 6.28814 4.84315 5.16932C5.96197 4.0505 7.38743 3.28857 8.93928 2.97989C10.4911 2.67121 12.0997 2.82963 13.5615 3.43514C15.0233 4.04064 16.2727 5.06602 17.1518 6.38161C18.0308 7.6972 18.5 9.24392 18.5 10.8262C18.5 12.9479 17.6572 14.9827 16.1569 16.483C14.6566 17.9833 12.6217 18.8262 10.5 18.8262Z" fill="#D5543E"/>
</svg>
