<svg width="20" height="21" viewBox="0 0 20 21" fill="none" xmlns="http://www.w3.org/2000/svg">
<path d="M10 7.9907C9.5095 7.9907 9.03002 8.13615 8.62219 8.40866C8.21435 8.68116 7.89648 9.06849 7.70878 9.52165C7.52107 9.97481 7.47196 10.4735 7.56765 10.9545C7.66334 11.4356 7.89954 11.8775 8.24638 12.2243C8.59321 12.5712 9.0351 12.8074 9.51618 12.9031C9.99725 12.9987 10.4959 12.9496 10.9491 12.7619C11.4022 12.5742 11.7895 12.2564 12.062 11.8485C12.3346 11.4407 12.48 10.9612 12.48 10.4707C12.48 10.145 12.4159 9.82254 12.2912 9.52165C12.1666 9.22076 11.9839 8.94737 11.7536 8.71708C11.5233 8.48679 11.2499 8.30411 10.9491 8.17948C10.6482 8.05485 10.3257 7.9907 10 7.9907ZM19.93 5.5407C19.9247 4.76846 19.7825 4.00327 19.51 3.2807C19.3093 2.75196 18.9987 2.2718 18.5988 1.87189C18.1989 1.47198 17.7187 1.16142 17.19 0.960703C16.4674 0.688167 15.7022 0.545964 14.93 0.540703C13.64 0.470703 13.26 0.470703 10 0.470703C6.74 0.470703 6.36 0.470703 5.07 0.540703C4.29776 0.545964 3.53257 0.688167 2.81 0.960703C2.28126 1.16142 1.80109 1.47198 1.40119 1.87189C1.00128 2.2718 0.690718 2.75196 0.49 3.2807C0.217464 4.00327 0.0752609 4.76846 0.0699999 5.5407C-6.70552e-08 6.8307 0 7.2107 0 10.4707C0 13.7307 -6.70552e-08 14.1107 0.0699999 15.4007C0.0807639 16.1757 0.222774 16.9432 0.49 17.6707C0.689828 18.197 1.00013 18.6744 1.4 19.0707C1.79819 19.473 2.27939 19.7836 2.81 19.9807C3.53257 20.2532 4.29776 20.3954 5.07 20.4007C6.36 20.4707 6.74 20.4707 10 20.4707C13.26 20.4707 13.64 20.4707 14.93 20.4007C15.7022 20.3954 16.4674 20.2532 17.19 19.9807C17.7206 19.7836 18.2018 19.473 18.6 19.0707C18.9999 18.6744 19.3102 18.197 19.51 17.6707C19.7823 16.9446 19.9244 16.1762 19.93 15.4007C20 14.1107 20 13.7307 20 10.4707C20 7.2107 20 6.8307 19.93 5.5407ZM17.39 13.5407C17.3579 14.1578 17.2262 14.7657 17 15.3407C16.8059 15.8204 16.5173 16.2561 16.1514 16.6221C15.7854 16.988 15.3497 17.2766 14.87 17.4707C14.2895 17.6843 13.6783 17.8025 13.06 17.8207C12.27 17.8207 12.06 17.8207 10 17.8207C7.94 17.8207 7.73 17.8207 6.94 17.8207C6.32173 17.8025 5.71049 17.6843 5.13 17.4707C4.6341 17.2864 4.18628 16.9924 3.82 16.6107C3.45767 16.252 3.17784 15.8186 3 15.3407C2.78556 14.7608 2.67061 14.1489 2.66 13.5307C2.66 12.7407 2.66 12.5307 2.66 10.4707C2.66 8.4107 2.66 8.2007 2.66 7.4107C2.67061 6.79253 2.78556 6.18059 3 5.6007C3.18428 5.10481 3.47827 4.65698 3.86 4.2907C4.22033 3.93033 4.65326 3.6508 5.13 3.4707C5.71049 3.25711 6.32173 3.13891 6.94 3.1207C7.73 3.1207 7.94 3.1207 10 3.1207C12.06 3.1207 12.27 3.1207 13.06 3.1207C13.6783 3.13891 14.2895 3.25711 14.87 3.4707C15.3659 3.65498 15.8137 3.94898 16.18 4.3307C16.5423 4.68945 16.8222 5.12284 17 5.6007C17.2136 6.18119 17.3318 6.79243 17.35 7.4107C17.35 8.2007 17.35 8.4107 17.35 10.4707C17.35 12.5307 17.42 12.7407 17.39 13.5307V13.5407ZM15.79 6.1007C15.6709 5.77769 15.4832 5.48435 15.2398 5.24092C14.9964 4.99749 14.703 4.80977 14.38 4.6907C13.9365 4.53696 13.4693 4.46249 13 4.4707C12.22 4.4707 12 4.4707 10 4.4707C8 4.4707 7.78 4.4707 7 4.4707C6.52827 4.47531 6.06107 4.56334 5.62 4.7307C5.30193 4.84436 5.01169 5.02442 4.76858 5.2589C4.52547 5.49339 4.33506 5.77694 4.21 6.0907C4.06478 6.53607 3.99383 7.0023 4 7.4707C4 8.2507 4 8.4707 4 10.4707C4 12.4707 4 12.6907 4 13.4707C4.00991 13.9419 4.09777 14.4082 4.26 14.8507C4.37906 15.1737 4.56678 15.4671 4.81021 15.7105C5.05364 15.9539 5.34698 16.1416 5.67 16.2607C6.09667 16.4176 6.54565 16.5054 7 16.5207C7.78 16.5207 8 16.5207 10 16.5207C12 16.5207 12.22 16.5207 13 16.5207C13.4717 16.5161 13.9389 16.4281 14.38 16.2607C14.703 16.1416 14.9964 15.9539 15.2398 15.7105C15.4832 15.4671 15.6709 15.1737 15.79 14.8507C15.9574 14.4096 16.0454 13.9424 16.05 13.4707C16.05 12.6907 16.05 12.4707 16.05 10.4707C16.05 8.4707 16.05 8.2507 16.05 7.4707C16.0503 6.9985 15.9621 6.53043 15.79 6.0907V6.1007ZM10 14.2907C9.49882 14.2907 9.00257 14.1918 8.53966 13.9997C8.07676 13.8076 7.6563 13.5261 7.30238 13.1712C6.94846 12.8164 6.66803 12.3952 6.47714 11.9318C6.28626 11.4684 6.18868 10.9719 6.19 10.4707C6.19 9.71475 6.4143 8.9758 6.83449 8.34739C7.25468 7.71898 7.85187 7.22937 8.55047 6.94054C9.24907 6.65171 10.0177 6.57664 10.7589 6.72485C11.5002 6.87306 12.1808 7.23787 12.7147 7.77311C13.2485 8.30835 13.6116 8.98994 13.7578 9.73161C13.9041 10.4733 13.827 11.2417 13.5363 11.9395C13.2457 12.6373 12.7545 13.2332 12.125 13.6518C11.4955 14.0703 10.7559 14.2927 10 14.2907ZM14 7.4007C13.7789 7.3773 13.5744 7.27292 13.4257 7.10767C13.277 6.94242 13.1947 6.728 13.1947 6.5057C13.1947 6.28341 13.277 6.06898 13.4257 5.90373C13.5744 5.73848 13.7789 5.6341 14 5.6107C14.2211 5.6341 14.4256 5.73848 14.5743 5.90373C14.723 6.06898 14.8053 6.28341 14.8053 6.5057C14.8053 6.728 14.723 6.94242 14.5743 7.10767C14.4256 7.27292 14.2211 7.3773 14 7.4007Z" fill="white"/>
</svg>
