<svg width="15" height="15" viewBox="0 0 15 15" fill="none" xmlns="http://www.w3.org/2000/svg">
<path d="M13.3586 10.0178H10.1499C9.962 10.0178 9.78183 10.0925 9.649 10.2253C9.51616 10.3581 9.44153 10.5383 9.44153 10.7262C9.44153 10.914 9.51616 11.0942 9.649 11.227C9.78183 11.3599 9.962 11.4345 10.1499 11.4345H11.8499C11.0685 12.251 10.0609 12.8153 8.95644 13.0547C7.85198 13.2942 6.70114 13.198 5.65179 12.7784C4.60244 12.3588 3.70252 11.635 3.06766 10.7001C2.43279 9.76512 2.09199 8.6617 2.08903 7.53158C2.08903 7.34371 2.0144 7.16355 1.88156 7.03071C1.74873 6.89787 1.56856 6.82324 1.3807 6.82324C1.19283 6.82324 1.01267 6.89787 0.879829 7.03071C0.746991 7.16355 0.672363 7.34371 0.672363 7.53158C0.676108 8.91481 1.08477 10.2667 1.84792 11.4203C2.61106 12.574 3.69529 13.479 4.96681 14.0236C6.23832 14.5682 7.64146 14.7286 9.00308 14.485C10.3647 14.2414 11.6252 13.6045 12.629 12.6528V13.9066C12.629 14.0944 12.7037 14.2746 12.8365 14.4074C12.9693 14.5403 13.1495 14.6149 13.3374 14.6149C13.5252 14.6149 13.7054 14.5403 13.8382 14.4074C13.9711 14.2746 14.0457 14.0944 14.0457 13.9066V10.7191C14.0439 10.5361 13.9714 10.3608 13.8433 10.2301C13.7153 10.0994 13.5415 10.0233 13.3586 10.0178ZM7.7557 0.448242C5.9398 0.453422 4.19525 1.15581 2.88236 2.41033V1.15658C2.88236 0.968714 2.80774 0.788546 2.6749 0.655708C2.54206 0.52287 2.36189 0.448242 2.17403 0.448242C1.98617 0.448242 1.806 0.52287 1.67316 0.655708C1.54032 0.788546 1.4657 0.968714 1.4657 1.15658V4.34408C1.4657 4.53194 1.54032 4.7121 1.67316 4.84494C1.806 4.97778 1.98617 5.05241 2.17403 5.05241H5.36153C5.54939 5.05241 5.72956 4.97778 5.8624 4.84494C5.99524 4.7121 6.06986 4.53194 6.06986 4.34408C6.06986 4.15621 5.99524 3.97605 5.8624 3.84321C5.72956 3.71037 5.54939 3.63574 5.36153 3.63574H3.66153C4.44244 2.81965 5.44943 2.25555 6.55323 2.01586C7.65703 1.77617 8.80728 1.87181 9.85633 2.29052C10.9054 2.70923 11.8054 3.43189 12.4408 4.36575C13.0762 5.29961 13.418 6.40206 13.4224 7.53158C13.4224 7.71944 13.497 7.8996 13.6298 8.03244C13.7627 8.16528 13.9428 8.23991 14.1307 8.23991C14.3186 8.23991 14.4987 8.16528 14.6316 8.03244C14.7644 7.8996 14.839 7.71944 14.839 7.53158C14.839 6.60138 14.6558 5.68029 14.2998 4.8209C13.9439 3.96151 13.4221 3.18065 12.7644 2.5229C12.1066 1.86515 11.3258 1.3434 10.4664 0.987429C9.60698 0.631458 8.68589 0.448242 7.7557 0.448242V0.448242Z" fill="black"/>
</svg>
