<svg width="15" height="14" viewBox="0 0 15 14" fill="none" xmlns="http://www.w3.org/2000/svg">
<path d="M14.1683 4.07684C14.1688 3.9891 14.152 3.90213 14.1188 3.8209C14.0856 3.73968 14.0368 3.6658 13.975 3.60351L11.1483 0.776841C11.086 0.715053 11.0121 0.666169 10.9309 0.632993C10.8497 0.599817 10.7627 0.583 10.675 0.583507C10.5872 0.583 10.5003 0.599817 10.419 0.632993C10.3378 0.666169 10.2639 0.715053 10.2016 0.776841L8.31497 2.66351L1.02831 9.95017C0.966518 10.0125 0.917634 10.0863 0.884458 10.1676C0.851282 10.2488 0.834465 10.3358 0.834972 10.4235V13.2502C0.834972 13.427 0.90521 13.5966 1.03023 13.7216C1.15526 13.8466 1.32483 13.9168 1.50164 13.9168H4.32831C4.42159 13.9219 4.5149 13.9073 4.60219 13.874C4.68947 13.8407 4.76878 13.7894 4.83497 13.7235L12.0816 6.43684L13.975 4.58351C14.0358 4.51889 14.0854 4.44453 14.1216 4.36351C14.1281 4.31037 14.1281 4.25665 14.1216 4.20351C14.1248 4.17247 14.1248 4.14121 14.1216 4.11017L14.1683 4.07684ZM4.05497 12.5835H2.16831V10.6968L8.78831 4.07684L10.675 5.96351L4.05497 12.5835ZM11.615 5.02351L9.72831 3.13684L10.675 2.19684L12.555 4.07684L11.615 5.02351Z" fill="black"/>
</svg>
