<svg width="21" height="18" viewBox="0 0 21 18" fill="none" xmlns="http://www.w3.org/2000/svg">
<path d="M17.502 3.16799H16.222L15.902 2.16799C15.6945 1.58122 15.3097 1.07349 14.8009 0.715152C14.292 0.356809 13.6843 0.165592 13.062 0.167991H7.94195C7.3135 0.169167 6.70129 0.367674 6.19172 0.735496C5.68215 1.10332 5.30096 1.62188 5.10195 2.21799L4.78195 3.21799H3.50195C2.7063 3.21799 1.94324 3.53406 1.38063 4.09667C0.818024 4.65928 0.501953 5.42234 0.501953 6.21799V14.218C0.501953 15.0136 0.818024 15.7767 1.38063 16.3393C1.94324 16.9019 2.7063 17.218 3.50195 17.218H17.502C18.2976 17.218 19.0607 16.9019 19.6233 16.3393C20.1859 15.7767 20.502 15.0136 20.502 14.218V6.21799C20.5086 5.81984 20.4359 5.42435 20.2881 5.05458C20.1403 4.68481 19.9204 4.34817 19.6411 4.06427C19.3619 3.78038 19.0289 3.55492 18.6617 3.40104C18.2944 3.24716 17.9002 3.16794 17.502 3.16799ZM18.502 14.168C18.502 14.4332 18.3966 14.6876 18.2091 14.8751C18.0215 15.0626 17.7672 15.168 17.502 15.168H3.50195C3.23674 15.168 2.98238 15.0626 2.79485 14.8751C2.60731 14.6876 2.50195 14.4332 2.50195 14.168V6.16799C2.50195 5.90277 2.60731 5.64842 2.79485 5.46088C2.98238 5.27335 3.23674 5.16799 3.50195 5.16799H5.50195C5.72002 5.17937 5.93582 5.11906 6.11639 4.99628C6.29696 4.87349 6.43237 4.69497 6.50195 4.48799L7.04195 2.84799C7.10904 2.64937 7.23685 2.47686 7.40732 2.35483C7.5778 2.23281 7.78231 2.16745 7.99195 2.16799H13.112C13.3216 2.16745 13.5261 2.23281 13.6966 2.35483C13.8671 2.47686 13.9949 2.64937 14.062 2.84799L14.602 4.48799C14.6661 4.67874 14.7864 4.84568 14.9469 4.967C15.1075 5.08832 15.3009 5.15837 15.502 5.16799H17.502C17.7672 5.16799 18.0215 5.27335 18.2091 5.46088C18.3966 5.64842 18.502 5.90277 18.502 6.16799V14.168ZM10.502 5.16799C9.71083 5.16799 8.93747 5.40259 8.27967 5.84211C7.62188 6.28164 7.10919 6.90635 6.80643 7.63726C6.50368 8.36816 6.42447 9.17243 6.57881 9.94835C6.73315 10.7243 7.11412 11.437 7.67353 11.9964C8.23294 12.5558 8.94567 12.9368 9.72159 13.0911C10.4975 13.2455 11.3018 13.1663 12.0327 12.8635C12.7636 12.5608 13.3883 12.0481 13.8278 11.3903C14.2674 10.7325 14.502 9.95912 14.502 9.16799C14.502 8.10712 14.0805 7.08971 13.3304 6.33956C12.5802 5.58942 11.5628 5.16799 10.502 5.16799ZM10.502 11.168C10.1064 11.168 9.71971 11.0507 9.39081 10.8309C9.06191 10.6112 8.80557 10.2988 8.65419 9.93336C8.50282 9.56791 8.46321 9.16577 8.54038 8.77781C8.61755 8.38985 8.80803 8.03348 9.08774 7.75378C9.36744 7.47407 9.72381 7.28359 10.1118 7.20642C10.4997 7.12925 10.9019 7.16886 11.2673 7.32023C11.6328 7.47161 11.9451 7.72795 12.1649 8.05685C12.3847 8.38575 12.502 8.77243 12.502 9.16799C12.502 9.69842 12.2912 10.2071 11.9162 10.5822C11.5411 10.9573 11.0324 11.168 10.502 11.168Z" fill="#8E8E8E"/>
</svg>
