<svg width="20" height="21" viewBox="0 0 20 21" fill="none" xmlns="http://www.w3.org/2000/svg">
<path d="M19.07 15.2999L17 13.1799C16.5547 12.7567 15.9931 12.4762 15.3872 12.3747C14.7813 12.2731 14.1589 12.355 13.6 12.6099L12.7 11.7099C13.7605 10.2928 14.2449 8.52659 14.0555 6.76675C13.8662 5.00691 13.0172 3.38414 11.6794 2.22511C10.3417 1.06609 8.61452 0.456869 6.84565 0.520097C5.07678 0.583324 3.39754 1.3143 2.14596 2.56588C0.894381 3.81746 0.163402 5.49671 0.100175 7.26558C0.0369472 9.03445 0.646165 10.7616 1.80519 12.0993C2.96421 13.4371 4.58699 14.2861 6.34683 14.4755C8.10667 14.6648 9.87291 14.1805 11.29 13.1199L12.18 14.0099C11.8951 14.5695 11.793 15.2045 11.8881 15.8252C11.9831 16.446 12.2706 17.0212 12.71 17.4699L14.83 19.5899C15.3925 20.1517 16.155 20.4673 16.95 20.4673C17.745 20.4673 18.5075 20.1517 19.07 19.5899C19.3557 19.3105 19.5828 18.9769 19.7378 18.6085C19.8928 18.2402 19.9726 17.8445 19.9726 17.4449C19.9726 17.0453 19.8928 16.6497 19.7378 16.2813C19.5828 15.913 19.3557 15.5793 19.07 15.2999ZM10.59 11.0599C9.89023 11.7579 8.99929 12.2329 8.02973 12.4248C7.06017 12.6167 6.05549 12.5169 5.14259 12.1381C4.2297 11.7593 3.44955 11.1184 2.9007 10.2964C2.35185 9.47448 2.05893 8.50828 2.05893 7.51991C2.05893 6.53154 2.35185 5.56535 2.9007 4.74337C3.44955 3.9214 4.2297 3.28053 5.14259 2.90172C6.05549 2.52292 7.06017 2.42316 8.02973 2.61506C8.99929 2.80697 9.89023 3.28191 10.59 3.97991C11.0556 4.44437 11.4251 4.99612 11.6771 5.60358C11.9292 6.21103 12.0589 6.86224 12.0589 7.51991C12.0589 8.17759 11.9292 8.8288 11.6771 9.43625C11.4251 10.0437 11.0556 10.5955 10.59 11.0599ZM17.66 18.1299C17.567 18.2236 17.4564 18.298 17.3346 18.3488C17.2127 18.3996 17.082 18.4257 16.95 18.4257C16.818 18.4257 16.6873 18.3996 16.5654 18.3488C16.4436 18.298 16.333 18.2236 16.24 18.1299L14.12 16.0099C14.0263 15.917 13.9519 15.8063 13.9011 15.6845C13.8503 15.5626 13.8242 15.4319 13.8242 15.2999C13.8242 15.1679 13.8503 15.0372 13.9011 14.9153C13.9519 14.7935 14.0263 14.6829 14.12 14.5899C14.213 14.4962 14.3236 14.4218 14.4454 14.371C14.5673 14.3203 14.698 14.2941 14.83 14.2941C14.962 14.2941 15.0927 14.3203 15.2146 14.371C15.3364 14.4218 15.447 14.4962 15.54 14.5899L17.66 16.7099C17.7537 16.8029 17.8281 16.9135 17.8789 17.0353C17.9296 17.1572 17.9558 17.2879 17.9558 17.4199C17.9558 17.5519 17.9296 17.6826 17.8789 17.8045C17.8281 17.9263 17.7537 18.0369 17.66 18.1299Z" fill="black"/>
</svg>
