<svg width="21" height="21" viewBox="0 0 21 21" fill="none" xmlns="http://www.w3.org/2000/svg">
<path d="M16.0602 12.2257C15.4694 12.2296 14.8868 12.3644 14.3542 12.6203C13.8217 12.8762 13.3524 13.2468 12.9802 13.7057L7.88021 11.3557C8.12 10.6214 8.12 9.82995 7.88021 9.0957L12.9802 6.7457C13.5818 7.47167 14.4206 7.96178 15.3484 8.12954C16.2762 8.2973 17.2334 8.13193 18.0512 7.6626C18.8689 7.19328 19.4946 6.45018 19.8178 5.56444C20.1409 4.67871 20.1409 3.70728 19.8175 2.82161C19.4942 1.93593 18.8684 1.19294 18.0505 0.723769C17.2327 0.254594 16.2754 0.0893938 15.3476 0.257324C14.4199 0.425254 13.5812 0.915519 12.9797 1.64159C12.3783 2.36767 12.0526 3.28288 12.0602 4.2257C12.0632 4.46393 12.0866 4.70147 12.1302 4.9357L6.85021 7.3657C6.28729 6.81528 5.57445 6.44322 4.80101 6.29613C4.02758 6.14904 3.22793 6.23347 2.50226 6.53883C1.77659 6.8442 1.15717 7.35692 0.721609 8.01276C0.286047 8.6686 0.0537109 9.4384 0.0537109 10.2257C0.0537109 11.013 0.286047 11.7828 0.721609 12.4386C1.15717 13.0945 1.77659 13.6072 2.50226 13.9126C3.22793 14.2179 4.02758 14.3024 4.80101 14.1553C5.57445 14.0082 6.28729 13.6361 6.85021 13.0857L12.1302 15.5157C12.0866 15.7499 12.0632 15.9875 12.0602 16.2257C12.0602 17.0168 12.2948 17.7902 12.7343 18.448C13.1739 19.1058 13.7986 19.6185 14.5295 19.9212C15.2604 20.224 16.0646 20.3032 16.8406 20.1488C17.6165 19.9945 18.3292 19.6135 18.8886 19.0541C19.448 18.4947 19.829 17.782 19.9834 17.0061C20.1377 16.2301 20.0585 15.4259 19.7557 14.695C19.453 13.9641 18.9403 13.3393 18.2825 12.8998C17.6247 12.4603 16.8513 12.2257 16.0602 12.2257ZM16.0602 2.2257C16.4558 2.2257 16.8425 2.343 17.1714 2.56276C17.5002 2.78252 17.7566 3.09488 17.908 3.46033C18.0593 3.82579 18.099 4.22792 18.0218 4.61588C17.9446 5.00384 17.7541 5.36021 17.4744 5.63991C17.1947 5.91962 16.8384 6.1101 16.4504 6.18727C16.0624 6.26444 15.6603 6.22483 15.2948 6.07346C14.9294 5.92208 14.617 5.66574 14.3973 5.33684C14.1775 5.00794 14.0602 4.62126 14.0602 4.2257C14.0602 3.69527 14.2709 3.18656 14.646 2.81149C15.0211 2.43641 15.5298 2.2257 16.0602 2.2257ZM4.06021 12.2257C3.66465 12.2257 3.27797 12.1084 2.94907 11.8886C2.62017 11.6689 2.36382 11.3565 2.21245 10.9911C2.06107 10.6256 2.02147 10.2235 2.09864 9.83552C2.17581 9.44756 2.36629 9.09119 2.646 8.81149C2.9257 8.53178 3.28207 8.3413 3.67003 8.26413C4.05799 8.18696 4.46012 8.22657 4.82558 8.37794C5.19103 8.52932 5.50339 8.78566 5.72315 9.11456C5.94291 9.44346 6.06021 9.83014 6.06021 10.2257C6.06021 10.7561 5.8495 11.2648 5.47442 11.6399C5.09935 12.015 4.59064 12.2257 4.06021 12.2257ZM16.0602 18.2257C15.6646 18.2257 15.278 18.1084 14.9491 17.8886C14.6202 17.6689 14.3638 17.3565 14.2125 16.9911C14.0611 16.6256 14.0215 16.2235 14.0986 15.8355C14.1758 15.4476 14.3663 15.0912 14.646 14.8115C14.9257 14.5318 15.2821 14.3413 15.67 14.2641C16.058 14.187 16.4601 14.2266 16.8256 14.3779C17.191 14.5293 17.5034 14.7857 17.7231 15.1146C17.9429 15.4435 18.0602 15.8301 18.0602 16.2257C18.0602 16.7561 17.8495 17.2648 17.4744 17.6399C17.0993 18.015 16.5906 18.2257 16.0602 18.2257Z" fill="#8E8E8E"/>
</svg>
