<svg width="17" height="19" viewBox="0 0 17 19" fill="none" xmlns="http://www.w3.org/2000/svg">
<path d="M15.0422 6.66775L5.38217 1.12775C4.85945 0.82591 4.26616 0.667789 3.66256 0.669446C3.05896 0.671104 2.46654 0.832483 1.94549 1.13719C1.42445 1.4419 0.993321 1.87908 0.695913 2.40433C0.398504 2.92958 0.245405 3.52418 0.252168 4.12775V15.2478C0.252168 16.1548 0.612488 17.0247 1.25386 17.6661C1.89524 18.3074 2.76513 18.6678 3.67217 18.6678C4.27261 18.6667 4.86226 18.5081 5.38217 18.2078L15.0422 12.6678C15.5612 12.3673 15.9922 11.9357 16.2918 11.4162C16.5913 10.8967 16.749 10.3075 16.749 9.70775C16.749 9.10803 16.5913 8.51885 16.2918 7.99931C15.9922 7.47978 15.5612 7.04816 15.0422 6.74775V6.66775ZM14.0422 10.8577L4.38217 16.4777C4.16565 16.6005 3.92104 16.665 3.67217 16.665C3.4233 16.665 3.17868 16.6005 2.96217 16.4777C2.74626 16.3531 2.56698 16.1738 2.44235 15.9579C2.31772 15.742 2.25213 15.4971 2.25217 15.2478V4.08775C2.25213 3.83845 2.31772 3.59353 2.44235 3.37761C2.56698 3.1617 2.74626 2.9824 2.96217 2.85775C3.17957 2.73691 3.42346 2.67164 3.67217 2.66775C3.9207 2.67285 4.1643 2.73804 4.38217 2.85775L14.0422 8.43775C14.2582 8.56235 14.4375 8.74162 14.5622 8.95754C14.6869 9.17346 14.7526 9.41841 14.7526 9.66775C14.7526 9.9171 14.6869 10.162 14.5622 10.378C14.4375 10.5939 14.2582 10.7732 14.0422 10.8977V10.8577Z" fill="#8E8E8E"/>
</svg>
