<svg width="28" height="29" viewBox="0 0 28 29" fill="none" xmlns="http://www.w3.org/2000/svg">
<rect y="0.75" width="28" height="28" rx="14" fill="white"/>
<path d="M11.0002 10.7497C10.8024 10.7497 10.6091 10.8083 10.4446 10.9182C10.2802 11.0281 10.152 11.1843 10.0763 11.367C10.0006 11.5497 9.9808 11.7508 10.0194 11.9448C10.058 12.1388 10.1532 12.3169 10.2931 12.4568C10.4329 12.5966 10.6111 12.6919 10.8051 12.7305C10.9991 12.7691 11.2001 12.7493 11.3829 12.6736C11.5656 12.5979 11.7218 12.4697 11.8316 12.3053C11.9415 12.1408 12.0002 11.9475 12.0002 11.7497C12.0002 11.4845 11.8948 11.2301 11.7073 11.0426C11.5197 10.855 11.2654 10.7497 11.0002 10.7497V10.7497ZM20.0802 13.8897L14.4735 8.27635C14.4112 8.21456 14.3373 8.16568 14.2561 8.1325C14.1749 8.09933 14.0879 8.08251 14.0002 8.08302H8.00017C7.82336 8.08302 7.65379 8.15326 7.52877 8.27828C7.40375 8.40331 7.33351 8.57287 7.33351 8.74969V14.7497C7.333 14.8374 7.34982 14.9244 7.38299 15.0056C7.41617 15.0868 7.46505 15.1607 7.52684 15.223L13.1402 20.8297C13.5152 21.2042 14.0235 21.4146 14.5535 21.4146C15.0835 21.4146 15.5918 21.2042 15.9668 20.8297L20.0802 16.7497C20.4547 16.3747 20.6651 15.8664 20.6651 15.3364C20.6651 14.8064 20.4547 14.298 20.0802 13.923V13.8897ZM19.1402 15.7697L15.0202 19.883C14.8953 20.0072 14.7263 20.0769 14.5502 20.0769C14.3741 20.0769 14.2051 20.0072 14.0802 19.883L8.66684 14.4764V9.41635H13.7268L19.1402 14.8297C19.202 14.892 19.2508 14.9659 19.284 15.0471C19.3172 15.1283 19.334 15.2153 19.3335 15.303C19.3328 15.4779 19.2633 15.6455 19.1402 15.7697V15.7697Z" fill="#99AEC0"/>
</svg>
