<svg width="22" height="21" viewBox="0 0 22 21" fill="none" xmlns="http://www.w3.org/2000/svg">
<path d="M21.2647 0.898483C20.98 0.661617 20.6364 0.506378 20.2704 0.449287C19.9045 0.392197 19.5299 0.435391 19.1866 0.574272L1.26566 7.80962C0.88241 7.96731 0.556176 8.23781 0.33026 8.58524C0.104343 8.93267 -0.0105725 9.34059 0.000764965 9.75485C0.0121025 10.1691 0.149157 10.5701 0.393738 10.9047C0.638319 11.2392 0.978859 11.4915 1.37016 11.628L4.99516 12.8887L7.01566 19.5704C7.04312 19.6596 7.08297 19.7446 7.13404 19.8228C7.14179 19.8348 7.15272 19.8437 7.16096 19.8553C7.21996 19.9377 7.29127 20.0104 7.37239 20.0711C7.39546 20.0887 7.41755 20.1052 7.44221 20.1208C7.53714 20.1838 7.64228 20.2298 7.75294 20.2569L7.76478 20.2579L7.77149 20.2608C7.83802 20.2743 7.90574 20.2812 7.97364 20.2813C7.98017 20.2813 7.98597 20.2782 7.99244 20.278C8.0949 20.2762 8.19647 20.2586 8.29353 20.2257C8.31611 20.218 8.33546 20.2052 8.35737 20.1959C8.42975 20.1659 8.49832 20.1274 8.56166 20.0813C8.61238 20.0386 8.66312 19.9958 8.71388 19.9531L11.416 16.9698L15.4463 20.0918C15.8011 20.3681 16.2379 20.5182 16.6875 20.5186C17.1587 20.518 17.6154 20.3554 17.9809 20.0581C18.3465 19.7608 18.5987 19.3469 18.6954 18.8858L21.958 2.86919C22.032 2.50871 22.0065 2.13491 21.8844 1.78778C21.7623 1.44065 21.5481 1.13326 21.2647 0.898483ZM8.37016 13.2071C8.2315 13.3452 8.13672 13.5212 8.0977 13.7129L7.78819 15.2169L7.00413 12.6239L11.0694 10.5069L8.37016 13.2071ZM16.6719 18.5108L11.9092 14.8213C11.71 14.6673 11.46 14.5941 11.2092 14.6162C10.9583 14.6383 10.725 14.754 10.5557 14.9404L9.69029 15.8956L9.99613 14.4092L17.0791 7.32619C17.2482 7.15735 17.3512 6.93355 17.3695 6.69532C17.3878 6.45708 17.3201 6.22018 17.1788 6.02751C17.0375 5.83484 16.8319 5.69916 16.5992 5.64503C16.3664 5.5909 16.122 5.62191 15.9102 5.73244L5.74491 11.0251L2.02055 9.66216L19.999 2.46975L16.6719 18.5108Z" fill="white"/>
</svg>
