<svg width="17" height="15" viewBox="0 0 17 15" fill="none" xmlns="http://www.w3.org/2000/svg">
<path d="M16.752 8.125V11.875C16.752 12.0739 16.6729 12.2647 16.5323 12.4053C16.3916 12.546 16.2009 12.625 16.002 12.625H15.252C15.252 13.2217 15.0149 13.794 14.5929 14.216C14.171 14.6379 13.5987 14.875 13.002 14.875C12.4052 14.875 11.8329 14.6379 11.411 14.216C10.989 13.794 10.752 13.2217 10.752 12.625H6.25195C6.25195 13.2217 6.0149 13.794 5.59294 14.216C5.17099 14.6379 4.59869 14.875 4.00195 14.875C3.40522 14.875 2.83292 14.6379 2.41096 14.216C1.98901 13.794 1.75195 13.2217 1.75195 12.625H1.00195C0.803041 12.625 0.612275 12.546 0.471622 12.4053C0.33097 12.2647 0.251953 12.0739 0.251953 11.875V2.875C0.251953 2.27826 0.489006 1.70597 0.910963 1.28401C1.33292 0.862053 1.90522 0.625 2.50195 0.625H9.25195C9.84869 0.625 10.421 0.862053 10.8429 1.28401C11.2649 1.70597 11.502 2.27826 11.502 2.875V4.375H13.002C13.3513 4.375 13.6958 4.45633 14.0082 4.61254C14.3206 4.76875 14.5924 4.99556 14.802 5.275L16.602 7.675C16.6239 7.7076 16.6415 7.74289 16.6545 7.78L16.6995 7.8625C16.7326 7.94614 16.7503 8.03506 16.752 8.125V8.125ZM4.75195 12.625C4.75195 12.4767 4.70797 12.3317 4.62556 12.2083C4.54314 12.085 4.42601 11.9889 4.28897 11.9321C4.15192 11.8753 4.00112 11.8605 3.85563 11.8894C3.71015 11.9183 3.57651 11.9898 3.47162 12.0947C3.36673 12.1996 3.2953 12.3332 3.26636 12.4787C3.23743 12.6242 3.25228 12.775 3.30904 12.912C3.36581 13.0491 3.46194 13.1662 3.58528 13.2486C3.70861 13.331 3.85362 13.375 4.00195 13.375C4.20087 13.375 4.39163 13.296 4.53228 13.1553C4.67294 13.0147 4.75195 12.8239 4.75195 12.625ZM10.002 2.875C10.002 2.67609 9.92294 2.48532 9.78228 2.34467C9.64163 2.20402 9.45087 2.125 9.25195 2.125H2.50195C2.30304 2.125 2.11227 2.20402 1.97162 2.34467C1.83097 2.48532 1.75195 2.67609 1.75195 2.875V11.125H2.33695C2.54784 10.893 2.80489 10.7076 3.09162 10.5807C3.37834 10.4539 3.68842 10.3884 4.00195 10.3884C4.31549 10.3884 4.62556 10.4539 4.91229 10.5807C5.19902 10.7076 5.45607 10.893 5.66695 11.125H10.002V2.875ZM11.502 7.375H14.502L13.602 6.175C13.5321 6.08185 13.4415 6.00625 13.3374 5.95418C13.2332 5.90211 13.1184 5.875 13.002 5.875H11.502V7.375ZM13.752 12.625C13.752 12.4767 13.708 12.3317 13.6256 12.2083C13.5431 12.085 13.426 11.9889 13.289 11.9321C13.1519 11.8753 13.0011 11.8605 12.8556 11.8894C12.7101 11.9183 12.5765 11.9898 12.4716 12.0947C12.3667 12.1996 12.2953 12.3332 12.2664 12.4787C12.2374 12.6242 12.2523 12.775 12.309 12.912C12.3658 13.0491 12.4619 13.1662 12.5853 13.2486C12.7086 13.331 12.8536 13.375 13.002 13.375C13.2009 13.375 13.3916 13.296 13.5323 13.1553C13.6729 13.0147 13.752 12.8239 13.752 12.625ZM15.252 8.875H11.502V10.96C11.9446 10.5644 12.5256 10.3598 13.1184 10.3907C13.7113 10.4216 14.2679 10.6855 14.667 11.125H15.252V8.875Z" fill="black"/>
</svg>
