<svg width="18" height="18" viewBox="0 0 18 18" fill="none" xmlns="http://www.w3.org/2000/svg">
<path d="M12.0904 9.34169C12.9074 8.69891 13.5038 7.81746 13.7965 6.81997C14.0892 5.82249 14.0637 4.75858 13.7236 3.77625C13.3835 2.79391 12.7457 1.94202 11.8988 1.33907C11.052 0.736122 10.0383 0.412109 8.99878 0.412109C7.95923 0.412109 6.94554 0.736122 6.09872 1.33907C5.2519 1.94202 4.61406 2.79391 4.27395 3.77625C3.93384 4.75858 3.90837 5.82249 4.20108 6.81997C4.49378 7.81746 5.09012 8.69891 5.90711 9.34169C4.50717 9.90256 3.28568 10.8328 2.37285 12.0333C1.46002 13.2338 0.890079 14.6594 0.723777 16.1584C0.711739 16.2678 0.721374 16.3785 0.752131 16.4842C0.782888 16.5899 0.834166 16.6886 0.903036 16.7745C1.04213 16.9479 1.24443 17.059 1.46544 17.0834C1.68646 17.1077 1.90808 17.0432 2.08155 16.9041C2.25502 16.765 2.36613 16.5627 2.39044 16.3417C2.57343 14.7127 3.35018 13.2082 4.57229 12.1157C5.7944 11.0232 7.37619 10.4192 9.01544 10.4192C10.6547 10.4192 12.2365 11.0232 13.4586 12.1157C14.6807 13.2082 15.4575 14.7127 15.6404 16.3417C15.6631 16.5465 15.7608 16.7356 15.9147 16.8725C16.0686 17.0095 16.2678 17.0846 16.4738 17.0834H16.5654C16.7839 17.0582 16.9835 16.9478 17.1209 16.7761C17.2583 16.6044 17.3222 16.3853 17.2988 16.1667C17.1317 14.6635 16.5587 13.2342 15.6412 12.0319C14.7236 10.8295 13.4962 9.89959 12.0904 9.34169ZM8.99878 8.75002C8.33951 8.75002 7.69504 8.55453 7.14688 8.18825C6.59871 7.82198 6.17147 7.30139 5.91918 6.6923C5.66689 6.08321 5.60087 5.41299 5.72949 4.76639C5.85811 4.11979 6.17558 3.52584 6.64175 3.05967C7.10793 2.59349 7.70187 2.27602 8.34848 2.14741C8.99508 2.01879 9.6653 2.0848 10.2744 2.33709C10.8835 2.58938 11.4041 3.01662 11.7703 3.56479C12.1366 4.11295 12.3321 4.75742 12.3321 5.41669C12.3321 6.30074 11.9809 7.14859 11.3558 7.77371C10.7307 8.39883 9.88283 8.75002 8.99878 8.75002Z" fill="black"/>
</svg>
