<svg width="20" height="21" viewBox="0 0 20 21" fill="none" xmlns="http://www.w3.org/2000/svg">
<path d="M13.0729 0.470703H6.9375C1.33331 0.470703 0 1.80401 0 7.39776V13.5332C0 19.1373 1.32294 20.4707 6.92706 20.4707H13.0625C18.6667 20.4707 20 19.1478 20 13.5436V7.4082C20 1.80401 18.6771 0.470703 13.0729 0.470703ZM16.1458 14.7415H14.6875C14.1354 14.7415 13.9688 14.2936 12.9792 13.304C12.1146 12.4707 11.75 12.3665 11.5312 12.3665C11.2292 12.3665 11.1458 12.4498 11.1458 12.8665V14.179C11.1458 14.5332 11.0312 14.7415 10.1042 14.7415C9.20458 14.6811 8.33219 14.4078 7.55888 13.9442C6.78557 13.4805 6.13346 12.8398 5.65625 12.0748C4.52336 10.6647 3.73511 9.00976 3.35419 7.24151C3.35419 7.02276 3.4375 6.82483 3.85419 6.82483H5.3125C5.6875 6.82483 5.82294 6.99151 5.96875 7.37695C6.67706 9.46026 7.88544 11.2728 8.375 11.2728C8.5625 11.2728 8.64581 11.1895 8.64581 10.7207V8.57483C8.58331 7.5957 8.0625 7.51233 8.0625 7.1582C8.06936 7.06477 8.11236 6.97769 8.18237 6.91545C8.25239 6.85321 8.34391 6.8207 8.4375 6.82483H10.7292C11.0417 6.82483 11.1458 6.98108 11.1458 7.35608V10.252C11.1458 10.5645 11.2812 10.6686 11.375 10.6686C11.5625 10.6686 11.7083 10.5645 12.0521 10.2207C12.7907 9.31988 13.3943 8.31629 13.8438 7.24151C13.8896 7.11219 13.9766 7.00144 14.0913 6.9262C14.2061 6.85096 14.3423 6.81535 14.4792 6.82483H15.9375C16.375 6.82483 16.4688 7.04358 16.375 7.35608C15.8444 8.54439 15.1878 9.67238 14.4167 10.7207C14.2604 10.9603 14.1979 11.0853 14.4167 11.3665C14.5625 11.5853 15.0729 12.0123 15.4167 12.4186C15.9167 12.9173 16.3318 13.4944 16.6458 14.127C16.7708 14.5332 16.5625 14.7415 16.1458 14.7415Z" fill="white"/>
</svg>
