<svg width="14" height="14" viewBox="0 0 14 14" fill="none" xmlns="http://www.w3.org/2000/svg">
<path d="M7.00017 6.58301C6.82336 6.58301 6.65379 6.65325 6.52876 6.77827C6.40374 6.90329 6.3335 7.07286 6.3335 7.24967V9.91634C6.3335 10.0932 6.40374 10.2627 6.52876 10.3877C6.65379 10.5128 6.82336 10.583 7.00017 10.583C7.17698 10.583 7.34655 10.5128 7.47157 10.3877C7.59659 10.2627 7.66683 10.0932 7.66683 9.91634V7.24967C7.66683 7.07286 7.59659 6.90329 7.47157 6.77827C7.34655 6.65325 7.17698 6.58301 7.00017 6.58301ZM7.2535 3.96967C7.09119 3.903 6.90914 3.903 6.74683 3.96967C6.665 4.0014 6.59024 4.04898 6.52683 4.10967C6.46795 4.17448 6.42059 4.24888 6.38683 4.32967C6.34951 4.40879 6.33125 4.49556 6.3335 4.58301C6.33299 4.67075 6.34981 4.75772 6.38299 4.83895C6.41616 4.92017 6.46505 4.99405 6.52683 5.05634C6.59163 5.11523 6.66604 5.16258 6.74683 5.19634C6.84783 5.23783 6.95748 5.25389 7.06613 5.24308C7.17478 5.23228 7.27912 5.19496 7.36997 5.13439C7.46083 5.07382 7.53541 4.99186 7.58717 4.89572C7.63893 4.79958 7.66629 4.6922 7.66683 4.58301C7.66438 4.4065 7.59532 4.23743 7.4735 4.10967C7.4101 4.04898 7.33533 4.0014 7.2535 3.96967ZM7.00017 0.583008C5.68162 0.583008 4.39269 0.974001 3.29636 1.70654C2.20004 2.43909 1.34555 3.48028 0.840969 4.69845C0.336385 5.91663 0.204362 7.25707 0.461597 8.55028C0.718832 9.84348 1.35377 11.0314 2.28612 11.9637C3.21847 12.8961 4.40636 13.531 5.69956 13.7882C6.99277 14.0455 8.33322 13.9135 9.55139 13.4089C10.7696 12.9043 11.8108 12.0498 12.5433 10.9535C13.2758 9.85715 13.6668 8.56822 13.6668 7.24967C13.6668 6.3742 13.4944 5.50729 13.1594 4.69845C12.8243 3.88961 12.3333 3.15469 11.7142 2.53563C11.0952 1.91657 10.3602 1.42551 9.55139 1.09048C8.74255 0.755446 7.87565 0.583008 7.00017 0.583008V0.583008ZM7.00017 12.583C5.94533 12.583 4.91419 12.2702 4.03712 11.6842C3.16006 11.0981 2.47648 10.2652 2.07281 9.29065C1.66914 8.31611 1.56352 7.24376 1.76931 6.20919C1.9751 5.17463 2.48305 4.22432 3.22893 3.47844C3.97481 2.73256 4.92512 2.22461 5.95968 2.01882C6.99425 1.81303 8.06661 1.91865 9.04114 2.32232C10.0157 2.72598 10.8486 3.40957 11.4347 4.28663C12.0207 5.1637 12.3335 6.19484 12.3335 7.24967C12.3335 8.66416 11.7716 10.0207 10.7714 11.0209C9.77121 12.0211 8.41465 12.583 7.00017 12.583V12.583Z" fill="black"/>
</svg>
